<svg width="20" height="20" viewBox="0 0 20 20" fill="none" xmlns="http://www.w3.org/2000/svg">
<path d="M8.26931 8.26923C8.26931 7.92692 8.37082 7.59229 8.561 7.30767C8.75118 7.02304 9.02149 6.80121 9.33774 6.67021C9.654 6.53921 10.002 6.50493 10.3377 6.57172C10.6735 6.6385 10.9819 6.80333 11.2239 7.04539C11.466 7.28744 11.6308 7.59583 11.6976 7.93157C11.7644 8.26731 11.7301 8.61531 11.5991 8.93156C11.4681 9.24782 11.2463 9.51813 10.9616 9.7083C10.677 9.89849 10.3424 9.99999 10.0001 9.99999V11.1538M9.99999 2.5C8.64334 2.50042 7.31221 2.86881 6.14838 3.56594C4.98455 4.26306 4.03161 5.26281 3.39104 6.45869C2.75047 7.65458 2.44627 9.00182 2.51083 10.3569C2.5754 11.712 3.00632 13.0243 3.7577 14.1538L2.5 17.5L6.71153 16.7384C7.72565 17.234 8.83856 17.4943 9.96727 17.4999C11.096 17.5055 12.2114 17.2562 13.2304 16.7707C14.2493 16.2852 15.1456 15.5759 15.8523 14.6959C16.5591 13.8158 17.058 12.7875 17.3121 11.6877C17.566 10.5879 17.5685 9.44501 17.3193 8.34413C17.0701 7.24326 16.5757 6.21282 15.8728 5.32964C15.1699 4.44647 14.2768 3.73333 13.2599 3.24339C12.243 2.75344 11.1287 2.49933 9.99999 2.5Z" stroke="#607093" stroke-width="1.5" stroke-linecap="round" stroke-linejoin="round"/>
<circle cx="10.0003" cy="13.75" r="0.833333" fill="#607093"/>
</svg>
