<svg width="32" height="32" viewBox="0 0 32 32" fill="none" xmlns="http://www.w3.org/2000/svg">
<rect width="32" height="32" rx="16" fill="white" fill-opacity="0.1"/>
<path d="M16.2457 22.2833C13.5584 22.2756 11.2199 20.5733 10.457 18.0275C9.82063 15.8977 10.2347 13.9489 11.6684 12.2466C12.5501 11.199 13.6887 10.5596 15.0228 10.2862C15.7703 10.1321 16.5409 10.1283 17.2922 10.2669C17.3766 10.2823 17.3766 10.3054 17.3459 10.3748C16.9779 11.1451 16.6099 11.9192 16.2457 12.6933C16.2265 12.7434 16.1767 12.7742 16.123 12.7665C14.5436 12.8089 13.1903 13.9258 12.8491 15.474C12.4811 17.1224 13.3667 18.8247 14.9346 19.4294C16.1767 19.907 17.3344 19.7183 18.3848 18.8979C18.4385 18.8555 18.4615 18.8478 18.4998 18.9172C18.9023 19.6258 19.3087 20.3345 19.7189 21.0393C19.7534 21.1009 19.7419 21.1279 19.6882 21.1664C18.8947 21.7287 17.9785 22.0907 17.0162 22.2217C16.7594 22.2602 16.5025 22.2794 16.2457 22.2833Z" fill="white"/>
<path d="M20.4203 20.527C20.3934 20.5119 20.3828 20.4874 20.3721 20.4628C20.3692 20.4559 20.3662 20.449 20.3628 20.4423C19.9028 19.645 19.4466 18.8478 18.9904 18.0505C18.9598 17.9851 18.8869 17.9427 18.8141 17.9543C18.2061 17.9568 17.5998 17.956 16.993 17.9551C16.6893 17.9547 16.385 17.9543 16.0807 17.9543H15.9657C15.9657 17.9196 15.9772 17.8849 16.0002 17.858C16.2321 17.4537 16.463 17.0503 16.6939 16.647C16.925 16.2435 17.156 15.8399 17.388 15.4354C17.4148 15.3815 17.4685 15.3469 17.5298 15.3546C18.4614 15.3584 19.3929 15.3584 20.3245 15.3546C20.382 15.3469 20.4395 15.3815 20.4663 15.4354C20.9302 16.2481 21.3979 17.0607 21.8656 17.8734C21.8963 17.9157 21.9001 17.9735 21.8694 18.0197C21.3979 18.8362 20.9302 19.6527 20.4625 20.4692L20.4614 20.4725C20.4541 20.4948 20.4459 20.5197 20.4203 20.527Z" fill="white"/>
<path d="M18.2914 11.7888C18.3459 11.844 18.4012 11.9 18.4583 11.9574C18.4646 11.9456 18.4705 11.9347 18.476 11.9245C18.4942 11.8908 18.5088 11.8636 18.5235 11.8341C18.7267 11.4991 19.0142 11.318 19.4167 11.345C19.6966 11.3643 19.8806 11.5376 19.8691 11.7725C19.8576 11.9227 19.7809 12.0344 19.6697 12.1268C19.5573 12.2193 19.4266 12.2843 19.2967 12.349C19.2805 12.3571 19.2642 12.3652 19.248 12.3733C18.9835 12.4966 18.7344 12.6622 18.512 12.8586C18.0481 13.2861 17.937 13.8407 17.937 14.4377C17.937 14.4954 17.9715 14.4954 18.0136 14.4954H20.586C20.6473 14.4954 20.6626 14.4762 20.6626 14.4146C20.6588 14.2258 20.655 14.0371 20.6626 13.8484C20.6665 13.7598 20.6358 13.7444 20.5553 13.7444C20.2889 13.7463 20.0225 13.7463 19.756 13.7463C19.4896 13.7463 19.2231 13.7463 18.9567 13.7483C18.8724 13.7483 18.8609 13.729 18.8839 13.652C18.9452 13.4633 19.0717 13.3362 19.2365 13.2399C19.3821 13.1555 19.5276 13.0794 19.6746 13.0025C19.729 12.974 19.7836 12.9455 19.8384 12.9164C20.0339 12.8162 20.2141 12.6853 20.3713 12.5312C20.7891 12.1191 20.8543 11.2025 20.1298 10.8097C19.7311 10.5824 19.2557 10.5362 18.8225 10.6787C18.4698 10.7865 18.167 11.0253 17.983 11.3489C17.98 11.3538 17.9768 11.3587 17.9737 11.3636C17.9525 11.3966 17.9319 11.4285 17.9753 11.4721C18.0818 11.5765 18.185 11.681 18.2914 11.7888Z" fill="white"/>
</svg>
