<svg width="117" height="86" viewBox="0 0 117 86" fill="none" xmlns="http://www.w3.org/2000/svg">
<g clip-path="url(#clip0_7798_65264)">
<mask id="mask0_7798_65264" style="mask-type:luminance" maskUnits="userSpaceOnUse" x="0" y="23" width="117" height="40">
<path d="M116.327 23.9536H0.327148V62.0466H116.327V23.9536Z" fill="white"/>
</mask>
<g mask="url(#mask0_7798_65264)">
<path d="M26.8545 56.3481V35.0627H35.3349C36.5399 35.0335 37.7426 35.1799 38.9035 35.4971C39.9028 35.828 40.7645 36.4688 41.358 37.3221C42.0568 38.2703 42.4205 39.4155 42.394 40.5841C42.4173 41.6933 42.0462 42.7758 41.344 43.6468C40.6164 44.5282 39.5846 45.1189 38.4428 45.3078C39.973 45.5683 41.1309 46.1766 41.9165 47.1329C42.7059 48.095 43.124 49.2981 43.0977 50.5316C43.118 51.2946 42.9825 52.054 42.6992 52.7652C42.4158 53.4764 41.9902 54.1251 41.4474 54.6734C40.3472 55.7917 38.6551 56.3499 36.3709 56.3481H26.8545ZM30.5656 43.9993H35.3433C35.7622 44.028 36.1825 43.9694 36.5765 43.8275C36.9706 43.6855 37.3294 43.4633 37.6292 43.1757C37.9289 42.888 38.163 42.5415 38.3158 42.1587C38.4685 41.7761 38.5365 41.366 38.5154 40.9557C38.5154 39.9804 38.1915 39.2591 37.5437 38.7974C36.8811 38.3306 36.0815 38.087 35.2651 38.1035H30.5599L30.5656 43.9993ZM30.5656 53.1517H35.6364C36.7088 53.1517 37.5558 52.8784 38.1775 52.332C38.4746 52.0405 38.7101 51.6944 38.8702 51.3138C39.0304 50.933 39.1121 50.5251 39.1108 50.1135C39.1095 49.7018 39.0251 49.2944 38.8626 48.9146C38.7001 48.535 38.4625 48.1903 38.1636 47.9006C37.4705 47.3083 36.5697 47.0017 35.6505 47.0454H30.5599L30.5656 53.1517Z" fill="#0092CC"/>
<path d="M48.7834 38.7563H45.1533V35.0625H48.7834V38.7563ZM48.7834 56.3507H45.1533V40.5977H48.7834V56.3507Z" fill="#0092CC"/>
<path d="M58.1298 56.6753C55.7488 56.6753 53.931 55.8385 52.6763 54.1647C51.4249 52.4988 50.7649 50.4781 50.797 48.4109C50.797 46.0832 51.4905 44.1444 52.8773 42.5944C54.2642 41.0444 56.0941 40.2694 58.3671 40.2694C59.3668 40.2436 60.36 40.4328 61.2767 40.8238C62.1935 41.2147 63.0113 41.7976 63.6725 42.5315C65.0595 44.0396 65.7529 45.9994 65.7529 48.4109C65.7529 50.8953 65.0334 52.8988 63.5944 54.4214C62.9007 55.1608 62.0529 55.7458 61.1082 56.137C60.1635 56.5281 59.1441 56.7164 58.1186 56.689L58.1298 56.6753ZM58.2442 53.7575C60.6903 53.7575 61.9124 51.9744 61.9107 48.4082C61.9107 46.7963 61.6183 45.5259 61.0338 44.597C60.4492 43.668 59.552 43.2027 58.342 43.2008C57.0873 43.2008 56.1565 43.6817 55.5496 44.6434C54.9428 45.6051 54.6403 46.8801 54.6421 48.4683C54.6421 50.184 54.9641 51.4936 55.6083 52.397C55.8905 52.8272 56.2814 53.179 56.7431 53.4183C57.2049 53.6576 57.7219 53.7763 58.2442 53.763" fill="#0092CC"/>
<path d="M93.6392 51.3257L96.9233 51.7628C96.5108 53.1717 95.638 54.4096 94.4378 55.2872C93.2037 56.2142 91.6576 56.6769 89.7998 56.6751C87.5659 56.6751 85.7695 55.9465 84.4105 54.4894C83.0516 53.0323 82.3721 51.047 82.3721 48.5335C82.3721 46.153 83.0571 44.1832 84.4273 42.6241C85.7974 41.065 87.659 40.2845 90.012 40.2827C92.3073 40.2827 94.0813 41.0523 95.3339 42.5913C96.5875 44.1304 97.2161 46.1011 97.2218 48.5035L97.2049 48.9105H86.1474C86.122 49.7779 86.2273 50.6441 86.4601 51.4814C86.6857 52.1536 87.1164 52.7419 87.6943 53.167C88.3573 53.6604 89.1741 53.9142 90.0064 53.8856C91.801 53.8856 93.011 53.0323 93.6365 51.3257H93.6392ZM93.4158 46.6293C93.4493 45.6069 93.076 44.6118 92.3744 43.8535C92.0509 43.5194 91.6624 43.2522 91.2318 43.0673C90.8011 42.8825 90.337 42.7838 89.8667 42.7772C89.3965 42.7706 88.9297 42.8561 88.4938 43.0288C88.0578 43.2015 87.6617 43.4577 87.3285 43.7825C86.664 44.4437 86.2702 45.3925 86.1474 46.6293H93.4158Z" fill="#0092CC"/>
<path d="M112.547 56.3476H108.917V46.5121C108.917 45.474 108.673 44.6917 108.186 44.1653C107.967 43.9161 107.694 43.7166 107.39 43.5807C107.084 43.4448 106.751 43.3758 106.415 43.3785C105.47 43.3785 104.641 43.7838 103.93 44.5942C103.219 45.4047 102.861 46.6296 102.855 48.2689V56.3612H99.2246V40.5973H102.528V44.2473C103.688 41.5972 105.314 40.2712 107.406 40.2694C108.743 40.2395 110.041 40.7083 111.037 41.5808C112.042 42.4514 112.544 43.9841 112.544 46.1788L112.547 56.3476Z" fill="#0092CC"/>
<path d="M81.074 53.7717C80.1433 52.9412 78.8551 52.5259 77.2094 52.5259H72.4066C71.6694 52.5259 71.1221 52.3647 70.7591 52.0396C70.5953 51.9108 70.4619 51.7489 70.368 51.565C70.274 51.3811 70.2217 51.1796 70.2146 50.974C70.2146 50.2747 70.5869 49.7583 71.3315 49.425C72.3097 49.6744 73.3143 49.8111 74.325 49.8321C76.3001 49.8321 77.887 49.3768 79.0859 48.4661C79.6494 48.0708 80.1075 47.5488 80.4214 46.9439C80.7354 46.339 80.896 45.6692 80.8897 44.9909C80.8764 44.0159 80.4921 43.0808 79.8119 42.3681L82.1323 42.1687L81.613 39.1279L77.2262 40.5704H77.2094C76.1836 40.3529 75.1372 40.2422 74.0876 40.2399C71.8537 40.2399 70.1839 40.7043 69.0781 41.6332C68.5635 42.036 68.1482 42.547 67.863 43.1282C67.5778 43.7095 67.43 44.3461 67.4307 44.9909C67.4307 46.5482 68.1752 47.7703 69.6645 48.6573C67.9482 49.4715 67.089 50.5643 67.0871 51.9358C67.0871 52.8464 67.5888 53.718 68.5922 54.5503C67.023 55.2789 66.2383 56.349 66.2383 57.7605C66.2383 60.6109 68.8444 62.0362 74.0569 62.0362C76.8324 62.0362 78.9267 61.5453 80.3397 60.5636C81.7526 59.5819 82.46 58.3451 82.4619 56.8534C82.4727 56.2721 82.3542 55.6953 82.1146 55.1632C81.8749 54.6311 81.5199 54.1563 81.074 53.7717ZM71.9989 43.2396C72.5258 42.737 73.2704 42.4856 74.2328 42.4856C75.1953 42.4856 75.9175 42.726 76.3997 43.2069C76.6436 43.4374 76.8357 43.7151 76.9641 44.0222C77.0924 44.3294 77.1542 44.6592 77.1452 44.9909C77.1452 46.8123 76.153 47.723 74.1686 47.723C73.2378 47.723 72.5117 47.4825 71.9906 47.0017C71.731 46.7609 71.527 46.4686 71.3921 46.1445C71.2573 45.8203 71.1948 45.4717 71.2087 45.122C71.1983 44.7716 71.2632 44.423 71.3994 44.0987C71.5355 43.7745 71.7398 43.4818 71.9989 43.2396ZM74.8834 59.6047C72.9735 59.6047 71.5773 59.3315 70.6949 58.785C69.8125 58.2387 69.3751 57.6011 69.3824 56.8726C69.3824 56.4355 69.6449 55.9792 70.1671 55.5066C71.0219 55.7438 71.9038 55.8751 72.7919 55.8972H76.6649C77.249 55.8884 77.8257 56.0257 78.3404 56.2961C78.5664 56.4031 78.7562 56.5716 78.8869 56.7814C79.0176 56.9913 79.0838 57.2335 79.0775 57.4791C79.0738 58.8961 77.6758 59.6047 74.8834 59.6047Z" fill="#0092CC"/>
<path d="M14.736 37.0835C14.4568 37.3157 14.2613 37.4523 14.2613 37.4523C11.011 39.7992 6.8532 40.9357 6.8532 40.9357L6.19141 41.1187C7.24045 42.1368 8.502 42.9211 9.88969 43.4177C11.2773 43.9144 12.7584 44.1118 14.2312 43.9963C15.7041 43.8808 17.1341 43.4553 18.4232 42.7487C19.7124 42.0422 20.8302 41.0715 21.7002 39.9029C19.8376 40.5504 17.2463 39.2281 14.736 37.0835Z" fill="url(#paint0_linear_7798_65264)"/>
<path d="M23.6525 33.3851C23.6525 33.325 23.6525 33.2649 23.6525 33.2048C23.6413 33.0591 23.6274 32.9143 23.6106 32.7704L23.5855 32.5873C23.5631 32.4234 23.5352 32.2622 23.5045 32.0983C23.5045 32.0682 23.5045 32.0355 23.4849 32.0027C23.4458 31.8087 23.3984 31.6174 23.3481 31.4262C23.3481 31.3825 23.323 31.3388 23.309 31.2951C23.2699 31.1503 23.2252 31.0055 23.175 30.8634C23.1582 30.806 23.1359 30.7487 23.1163 30.6913C23.0689 30.5547 23.0186 30.4181 22.9628 30.2897L22.9042 30.1394C22.8288 29.9673 22.7534 29.7952 22.6695 29.6285C22.6445 29.5739 22.6137 29.522 22.5858 29.4673C22.53 29.358 22.4713 29.2488 22.4099 29.1422C22.3931 29.1094 22.3736 29.0794 22.3568 29.0493C21.4884 30.735 19.0562 32.2048 16.1355 33.2976C16.2907 33.9215 16.2907 34.5727 16.1355 35.1965C15.8897 35.9914 15.2028 36.6854 14.7393 37.0843C17.2524 39.229 19.8409 40.5513 21.7062 39.9038C22.0733 39.4176 22.3947 38.9 22.6667 38.3574C22.6891 38.3138 22.7086 38.2672 22.731 38.2208L22.8566 37.9476C22.8929 37.8629 22.9264 37.7755 22.9628 37.688C22.9991 37.6007 23.0046 37.5843 23.027 37.5296C23.0661 37.4285 23.1024 37.3247 23.1387 37.2209C23.1387 37.1827 23.1667 37.1444 23.1778 37.1061C23.2169 36.9914 23.2532 36.8767 23.2867 36.7619C23.2867 36.7346 23.2867 36.71 23.3062 36.6854C23.4292 36.2669 23.5226 35.8406 23.5855 35.4095C23.5855 35.3795 23.5855 35.3494 23.5855 35.3194C23.6078 35.1418 23.6274 34.9615 23.6413 34.773C23.6413 34.7238 23.6413 34.6719 23.6413 34.62C23.6413 34.4096 23.6665 34.1965 23.6665 33.9807C23.6665 33.7648 23.6665 33.5872 23.6525 33.3851Z" fill="url(#paint1_linear_7798_65264)"/>
<path d="M22.0156 28.5245C21.9513 28.4262 21.8816 28.3278 21.8118 28.2322C21.6973 28.071 21.5771 27.9126 21.4515 27.7596L21.3091 27.582C21.2114 27.47 21.1136 27.358 21.0131 27.2487L20.9908 27.2323C19.7049 25.852 18.0509 24.85 16.215 24.3388C14.379 23.8277 12.4336 23.8278 10.5977 24.339C11.1561 24.9401 11.575 25.4127 11.575 25.4127C11.575 25.4127 14.4176 28.5983 15.8305 32.2948C15.9604 32.6201 16.0622 32.9555 16.1349 33.2975C19.0556 32.2046 21.4878 30.7348 22.3423 29.0491C22.2398 28.8724 22.131 28.6976 22.0156 28.5245Z" fill="url(#paint2_linear_7798_65264)"/>
<path d="M16.1351 33.2973C16.0624 32.9553 15.9606 32.6199 15.8307 32.2946C14.4178 28.5981 11.5751 25.4126 11.5751 25.4126C11.5751 25.4126 11.1507 24.9399 10.5978 24.3389C10.4749 24.3744 10.3521 24.4099 10.232 24.4509L10.1789 24.4673C10.0589 24.5055 9.94161 24.5465 9.8243 24.5902L9.788 24.6039C9.41754 24.7421 9.05576 24.9018 8.70461 25.082H8.68785L8.42537 25.2295L8.27737 25.3197L8.0512 25.4508L7.88644 25.5519L7.68818 25.6803L7.49831 25.8087L7.32798 25.9289L7.08224 26.112L6.97893 26.1912C6.86165 26.2841 6.74716 26.377 6.63546 26.4644L6.56287 26.5272L6.30038 26.7677L6.26687 26.7977C4.93707 28.0605 3.98211 29.6525 3.50367 31.4041C3.02524 33.1558 3.04121 35.0016 3.54992 36.7451C3.54992 36.7451 3.54992 36.7451 3.54992 36.7615C3.73572 37.394 3.9845 38.0071 4.29269 38.592L4.3234 38.6493C4.37646 38.7505 4.43509 38.8516 4.49373 38.9526C4.49373 38.9745 4.52165 38.9991 4.53562 39.0236C4.59426 39.122 4.65289 39.2204 4.71433 39.3187L4.73667 39.3515C4.93074 39.6513 5.14141 39.9403 5.36774 40.2176C5.39567 40.2559 5.42359 40.2913 5.4543 40.3269C5.48502 40.3623 5.57159 40.4662 5.63302 40.5345L5.75029 40.6656L5.92342 40.8541L6.06583 40.9962L6.1887 41.1218L6.84769 40.9388C6.84769 40.9388 11.0111 39.7996 14.2614 37.4527C14.2614 37.4527 14.4624 37.3162 14.7361 37.0839C15.2108 36.685 15.8977 35.9911 16.1323 35.196C16.2884 34.5725 16.2893 33.9213 16.1351 33.2973Z" fill="url(#paint3_radial_7798_65264)"/>
<path d="M6.83656 24.3286C6.83656 24.3286 2.12585 26.4132 0.721296 31.0194C-0.683256 35.6257 2.11747 39.8522 2.11747 39.8522C2.11747 39.8522 6.2725 38.7074 9.5228 36.3687C9.5228 36.3687 11.0195 35.3688 11.4048 34.1121C11.7818 32.8526 11.0893 31.2161 11.0893 31.2161C9.67638 27.506 6.83656 24.3286 6.83656 24.3286Z" fill="url(#paint4_radial_7798_65264)"/>
<path d="M115.431 54.6157C115.609 54.6152 115.783 54.6663 115.932 54.7627C116.08 54.8591 116.196 54.9962 116.264 55.1569C116.332 55.3176 116.351 55.4946 116.316 55.6655C116.282 55.8362 116.197 55.9932 116.071 56.1166C115.945 56.2398 115.785 56.3239 115.61 56.3581C115.436 56.3922 115.255 56.375 115.091 56.3085C114.926 56.242 114.786 56.1292 114.687 55.9845C114.588 55.8398 114.535 55.6696 114.535 55.4955C114.535 55.2627 114.63 55.0393 114.797 54.8744C114.965 54.7095 115.193 54.6165 115.431 54.6157ZM115.431 56.2167C115.578 56.2173 115.721 56.1752 115.843 56.0959C115.966 56.0166 116.061 55.9035 116.117 55.7711C116.173 55.6387 116.188 55.4929 116.16 55.3522C116.131 55.2115 116.061 55.0823 115.957 54.9808C115.853 54.8794 115.721 54.8104 115.577 54.7825C115.434 54.7547 115.284 54.7693 115.15 54.8244C115.014 54.8796 114.899 54.9727 114.818 55.0923C114.736 55.2117 114.693 55.3521 114.694 55.4955C114.695 55.6866 114.773 55.8696 114.91 56.0047C115.049 56.1398 115.236 56.216 115.431 56.2167ZM115.255 55.9627H115.052V55.0229H115.498C115.554 55.0229 115.864 55.0229 115.864 55.2961C115.866 55.3513 115.85 55.4057 115.818 55.4511C115.786 55.4964 115.739 55.5302 115.685 55.5474L115.864 55.9545H115.652L115.493 55.5802H115.258L115.255 55.9627ZM115.255 55.4326H115.468C115.537 55.4326 115.652 55.4135 115.652 55.3015C115.652 55.2442 115.613 55.1759 115.487 55.1759H115.255V55.4326Z" fill="#0092CC"/>
</g>
</g>
<defs>
<linearGradient id="paint0_linear_7798_65264" x1="10.3827" y1="37.0206" x2="17.4461" y2="44.2399" gradientUnits="userSpaceOnUse">
<stop offset="0.17" stop-color="#ECF1C5"/>
<stop offset="0.74" stop-color="#DBE2A1"/>
</linearGradient>
<linearGradient id="paint1_linear_7798_65264" x1="23.7698" y1="35.5024" x2="16.3418" y2="32.74" gradientUnits="userSpaceOnUse">
<stop stop-color="#DBE2A1"/>
<stop offset="0.27" stop-color="#C9D788"/>
<stop offset="0.55" stop-color="#BBCE75"/>
<stop offset="0.74" stop-color="#B6CB6E"/>
</linearGradient>
<linearGradient id="paint2_linear_7798_65264" x1="20.2899" y1="31.62" x2="11.1076" y2="23.7455" gradientUnits="userSpaceOnUse">
<stop stop-color="#B5CA6D"/>
<stop offset="0.09" stop-color="#A3C067"/>
<stop offset="0.29" stop-color="#84AE5D"/>
<stop offset="0.46" stop-color="#71A356"/>
<stop offset="0.58" stop-color="#6A9F54"/>
</linearGradient>
<radialGradient id="paint3_radial_7798_65264" cx="0" cy="0" r="1" gradientUnits="userSpaceOnUse" gradientTransform="translate(9.70708 32.729) scale(7.63151 7.4667)">
<stop offset="0.17" stop-color="#3A5C7B"/>
<stop offset="1" stop-color="#5B89B4"/>
</radialGradient>
<radialGradient id="paint4_radial_7798_65264" cx="0" cy="0" r="1" gradientUnits="userSpaceOnUse" gradientTransform="translate(3.65081 29.0972) rotate(-83.3884) scale(11.4286 6.91196)">
<stop stop-color="#E6F1F7"/>
<stop offset="0.09" stop-color="#D1E3F0"/>
<stop offset="0.28" stop-color="#ABC8E3"/>
<stop offset="0.47" stop-color="#8DB4D8"/>
<stop offset="0.65" stop-color="#78A5D1"/>
<stop offset="0.83" stop-color="#6B9CCC"/>
<stop offset="1" stop-color="#6799CB"/>
</radialGradient>
<clipPath id="clip0_7798_65264">
<rect width="116" height="39" fill="white" transform="translate(0.327148 23.5)"/>
</clipPath>
</defs>
</svg>
