<svg width="24" height="24" viewBox="0 0 24 24" fill="none" xmlns="http://www.w3.org/2000/svg">
<path d="M17.8333 3.87494C19.099 3.87494 20.125 4.90095 20.125 6.16661V16.1666C20.125 17.4323 19.099 18.4583 17.8333 18.4583H14.5C14.1548 18.4583 13.875 18.1785 13.875 17.8333C13.875 17.4881 14.1548 17.2083 14.5 17.2083H17.8333C18.4086 17.2083 18.875 16.7419 18.875 16.1666V6.16661C18.875 5.59131 18.4086 5.12494 17.8333 5.12494H6.16667C5.59137 5.12494 5.125 5.59131 5.125 6.16661V9.49994C5.125 9.84512 4.84518 10.1249 4.5 10.1249C4.15482 10.1249 3.875 9.84512 3.875 9.49994V6.16661C3.875 4.90095 4.90101 3.87494 6.16667 3.87494H17.8333Z" fill="#607093"/>
<path d="M16.1665 8.87494C16.5117 8.87494 16.7915 9.15476 16.7915 9.49994C16.7915 9.84512 16.5117 10.1249 16.1665 10.1249H11.1665C10.8213 10.1249 10.5415 9.84512 10.5415 9.49994C10.5415 9.15476 10.8213 8.87494 11.1665 8.87494H16.1665Z" fill="#607093"/>
<path d="M16.7915 12.8333C16.7915 12.4881 16.5117 12.2083 16.1665 12.2083H13.6665C13.3213 12.2083 13.0415 12.4881 13.0415 12.8333C13.0415 13.1785 13.3213 13.4583 13.6665 13.4583H16.1665C16.5117 13.4583 16.7915 13.1785 16.7915 12.8333Z" fill="#607093"/>
<path d="M9.9165 16.7916C10.6348 16.7916 11.3237 17.077 11.8316 17.5849C12.3395 18.0928 12.6248 18.7817 12.6248 19.5C12.6248 19.8451 12.345 20.125 11.9998 20.125C11.6547 20.125 11.3748 19.8451 11.3748 19.5C11.3748 19.1132 11.2212 18.7423 10.9477 18.4688C10.6742 18.1953 10.3033 18.0416 9.9165 18.0416H5.74984C4.94442 18.0416 4.2915 18.6945 4.2915 19.5C4.2915 19.8451 4.01168 20.125 3.6665 20.125C3.32133 20.125 3.0415 19.8451 3.0415 19.5C3.0415 18.0042 4.25407 16.7916 5.74984 16.7916H9.9165Z" fill="#607093"/>
<path fill-rule="evenodd" clip-rule="evenodd" d="M7.83333 10.5416C9.3291 10.5416 10.5417 11.7542 10.5417 13.25C10.5417 14.7457 9.3291 15.9583 7.83333 15.9583C6.33756 15.9583 5.125 14.7457 5.125 13.25C5.125 11.7542 6.33756 10.5416 7.83333 10.5416ZM7.83356 11.7918C7.02815 11.7918 6.37523 12.4448 6.37523 13.2502C6.37523 14.0556 7.02815 14.7085 7.83356 14.7085C8.63898 14.7085 9.2919 14.0556 9.2919 13.2502C9.2919 12.4448 8.63898 11.7918 7.83356 11.7918Z" fill="#607093"/>
</svg>
