<svg width="24" height="24" viewBox="0 0 24 24" fill="none" xmlns="http://www.w3.org/2000/svg">
<path fill-rule="evenodd" clip-rule="evenodd" d="M16.099 6.44359C16.0268 5.24265 15.0306 4.29156 13.8115 4.29156H10.1882L10.0485 4.29575C8.84757 4.36787 7.89648 5.36411 7.89648 6.58323V7.62494H6.16667C4.90066 7.62494 3.875 8.65059 3.875 9.91661V17.4166C3.875 18.6826 4.90066 19.7083 6.16667 19.7083H17.8333C19.0993 19.7083 20.125 18.6826 20.125 17.4166V9.91661C20.125 8.65059 19.0993 7.62494 17.8333 7.62494H16.1032V6.58323L16.099 6.44359ZM14.8532 7.62494V6.58323C14.8532 6.04355 14.4436 5.60024 13.918 5.54694L13.8115 5.54156H10.1882C9.64847 5.54156 9.20516 5.95115 9.15186 6.47667L9.14648 6.58323V7.62494H14.8532ZM6.16691 8.87507H17.8336C18.4092 8.87507 18.8752 9.34108 18.8752 9.91674V17.4167C18.8752 17.9924 18.4092 18.4584 17.8336 18.4584H6.16691C5.59125 18.4584 5.12524 17.9924 5.12524 17.4167V9.91674C5.12524 9.34108 5.59125 8.87507 6.16691 8.87507Z" fill="#607093"/>
</svg>
