<svg width="24" height="24" viewBox="0 0 24 24" fill="none" xmlns="http://www.w3.org/2000/svg">
<path fill-rule="evenodd" clip-rule="evenodd" d="M2.25 3.69231C2.25 2.89574 2.89574 2.25 3.69231 2.25H9.23077C10.0273 2.25 10.6731 2.89574 10.6731 3.69231V12C10.6731 12.7966 10.0273 13.4423 9.23077 13.4423H3.69231C2.89574 13.4423 2.25 12.7966 2.25 12V3.69231ZM3.75 3.75V11.9423H9.17308V3.75H3.75Z" fill="#607093"/>
<path fill-rule="evenodd" clip-rule="evenodd" d="M14.769 2.25C13.9724 2.25 13.3267 2.89574 13.3267 3.69231V6.47538C13.3267 7.27195 13.9724 7.91769 14.769 7.91769H20.3074C21.1039 7.91769 21.7497 7.27199 21.7497 6.47538V3.69231C21.7497 2.8957 21.1039 2.25 20.3074 2.25H14.769ZM14.8267 6.41769V3.75H20.2497V6.41769H14.8267Z" fill="#607093"/>
<path fill-rule="evenodd" clip-rule="evenodd" d="M14.769 10.5577C13.9724 10.5577 13.3267 11.2034 13.3267 12V20.3077C13.3267 21.1041 13.9724 21.75 14.769 21.75H20.3074C21.1039 21.75 21.7497 21.1042 21.7497 20.3077V12C21.7497 11.2034 21.1039 10.5577 20.3074 10.5577H14.769ZM14.8267 20.25V12.0577H20.2497V20.25H14.8267Z" fill="#607093"/>
<path fill-rule="evenodd" clip-rule="evenodd" d="M3.69231 16.0823C2.8958 16.0823 2.25 16.7279 2.25 17.5246V20.3077C2.25 21.1042 2.8957 21.75 3.69231 21.75H9.23077C10.0274 21.75 10.6731 21.1042 10.6731 20.3077V17.5246C10.6731 16.7279 10.0273 16.0823 9.23077 16.0823H3.69231ZM3.75 20.25V17.5823H9.17308V20.25H3.75Z" fill="#607093"/>
</svg>
