<svg width="24" height="24" viewBox="0 0 24 24" fill="none" xmlns="http://www.w3.org/2000/svg">
<path d="M7.5115 11.75C7.4958 11.5837 7.4958 11.4163 7.5115 11.25H9C9.13261 11.25 9.25978 11.1973 9.35355 11.1036C9.44732 11.0098 9.5 10.8826 9.5 10.75C9.5 10.6174 9.44732 10.4902 9.35355 10.3964C9.25978 10.3027 9.13261 10.25 9 10.25H7.843C8.144 9.777 8.603 9.5 9.059 9.5C9.3345 9.5 9.5175 9.553 9.661 9.631C9.8105 9.712 9.951 9.8385 10.1175 10.036C10.1591 10.0882 10.2108 10.1315 10.2694 10.1634C10.3281 10.1953 10.3925 10.2152 10.4589 10.2218C10.5254 10.2284 10.5925 10.2216 10.6562 10.2019C10.72 10.1822 10.7792 10.1499 10.8303 10.1069C10.8814 10.0639 10.9233 10.0111 10.9537 9.95168C10.9841 9.89222 11.0022 9.82729 11.0071 9.76071C11.0119 9.69412 11.0034 9.62724 10.982 9.564C10.9606 9.50076 10.9268 9.44245 10.8825 9.3925C10.6775 9.1485 10.4425 8.917 10.1375 8.752C9.8265 8.583 9.4745 8.5 9.059 8.5C7.978 8.5 7.1255 9.2475 6.734 10.25H6.5C6.36739 10.25 6.24021 10.3027 6.14645 10.3964C6.05268 10.4902 6 10.6174 6 10.75C6 10.8826 6.05268 11.0098 6.14645 11.1036C6.24021 11.1973 6.36739 11.25 6.5 11.25H6.509C6.49695 11.4164 6.49695 11.5836 6.509 11.75H6.5C6.36739 11.75 6.24021 11.8027 6.14645 11.8964C6.05268 11.9902 6 12.1174 6 12.25C6 12.3826 6.05268 12.5098 6.14645 12.6036C6.24021 12.6973 6.36739 12.75 6.5 12.75H6.734C7.1255 13.7525 7.978 14.5 9.059 14.5C9.4745 14.5 9.8265 14.417 10.1375 14.248C10.4425 14.0825 10.6775 13.8515 10.8825 13.6075C10.9638 13.5056 11.002 13.376 10.9891 13.2463C10.9762 13.1166 10.9132 12.997 10.8134 12.9131C10.7137 12.8292 10.5851 12.7876 10.4551 12.7971C10.3251 12.8066 10.204 12.8665 10.1175 12.964C9.951 13.1615 9.811 13.288 9.661 13.369C9.5175 13.447 9.334 13.5 9.059 13.5C8.603 13.5 8.1435 13.2225 7.843 12.75H9C9.13261 12.75 9.25978 12.6973 9.35355 12.6036C9.44732 12.5098 9.5 12.3826 9.5 12.25C9.5 12.1174 9.44732 11.9902 9.35355 11.8964C9.25978 11.8027 9.13261 11.75 9 11.75H7.5115Z" fill="#607093"/>
<path d="M15.7185 9.05309C15.7951 8.9823 15.9133 8.9823 15.9899 9.05309L17.6437 10.5808C17.7774 10.7043 17.6901 10.9277 17.508 10.9277H14.2004C14.0184 10.9277 13.931 10.7043 14.0647 10.5808L15.7185 9.05309Z" fill="#607093"/>
<path d="M15.7186 13.8746C15.7952 13.9454 15.9134 13.9454 15.99 13.8746L17.6438 12.3469C17.7775 12.2234 17.6901 12 17.5081 12H14.2005C14.0184 12 13.9311 12.2234 14.0648 12.3469L15.7186 13.8746Z" fill="#607093"/>
<path fill-rule="evenodd" clip-rule="evenodd" d="M5 4.25C3.48122 4.25 2.25 5.48122 2.25 7V16C2.25 17.5188 3.48122 18.75 5 18.75H19C20.5188 18.75 21.75 17.5188 21.75 16V7C21.75 5.48122 20.5188 4.25 19 4.25H5ZM3.75 7C3.75 6.30964 4.30964 5.75 5 5.75H19C19.6904 5.75 20.25 6.30964 20.25 7V16C20.25 16.6904 19.6904 17.25 19 17.25H5C4.30964 17.25 3.75 16.6904 3.75 16V7Z" fill="#607093"/>
</svg>
