<svg width="24" height="24" viewBox="0 0 24 24" fill="none" xmlns="http://www.w3.org/2000/svg">
<g id="linkedin-solid">
<path id="Vector" fill-rule="evenodd" clip-rule="evenodd" d="M2.21981 2.4167C2.49654 2.14639 2.86928 1.997 3.2561 2.00136H20.2986V2.00013C20.6862 1.99502 21.0599 2.14398 21.3378 2.41429C21.6156 2.6846 21.7747 3.05414 21.7803 3.44174V20.5567C21.7749 20.9445 21.6159 21.3143 21.338 21.5849C21.0602 21.8555 20.6864 22.0047 20.2986 21.9999H3.2561C2.86909 22.004 2.49627 21.8543 2.21954 21.5837C1.94282 21.3131 1.78483 20.9438 1.78027 20.5567V3.44297C1.78499 3.05614 1.94308 2.68702 2.21981 2.4167ZM14.3166 11.8691C15.8381 11.8691 15.8578 13.2937 15.8578 14.4004V19.0413H18.8212L18.8225 13.8059C18.8225 11.2357 18.2687 9.26003 15.2652 9.26003C14.7016 9.23911 14.143 9.37143 13.6487 9.64291C13.1544 9.91439 12.743 10.3148 12.4583 10.8016H12.4185V9.49741H9.57363V19.041H12.537V14.3199C12.537 13.0749 12.7732 11.8691 14.3166 11.8691ZM5.2745 7.90321C5.55733 8.09213 5.88984 8.19293 6.22996 8.19287C6.45579 8.19282 6.6794 8.1483 6.88803 8.06184C7.09665 7.97538 7.28622 7.84867 7.44588 7.68895C7.60554 7.52922 7.73216 7.33962 7.81855 7.13095C7.90493 6.92229 7.94938 6.69866 7.94934 6.47282C7.94928 6.13268 7.84836 5.80021 7.65934 5.51743C7.47033 5.23465 7.20172 5.01428 6.88746 4.88417C6.57321 4.75406 6.22744 4.72007 5.89386 4.78649C5.56029 4.8529 5.2539 5.01675 5.01344 5.2573C4.77298 5.49785 4.60925 5.80431 4.54295 6.13792C4.47666 6.47153 4.51078 6.81731 4.641 7.13152C4.77121 7.44574 4.99166 7.71429 5.2745 7.90321ZM4.74519 19.0413H7.71165V9.49741H4.74519V19.0413Z" fill="white"/>
</g>
</svg>
