<svg width="24" height="24" viewBox="0 0 24 24" fill="none" xmlns="http://www.w3.org/2000/svg">
<path d="M12.0003 7.39252L12.0431 7.39396L12.0953 7.39876C12.4202 7.44139 12.6781 7.69785 12.7234 8.02948L12.7303 8.12168C12.7303 8.52439 12.4038 8.85085 12.0011 8.85085C11.6294 8.85085 11.3227 8.57268 11.2777 8.21711L11.272 8.12083C11.272 7.71858 11.5981 7.3925 12.0003 7.39252Z" fill="#607093"/>
<path fill-rule="evenodd" clip-rule="evenodd" d="M4.45582 7.14212L11.5249 4.78521C11.8335 4.68276 12.1669 4.68276 12.4754 4.78521L19.5443 7.14206C20.1396 7.34033 20.5414 7.89713 20.5418 8.52504V10.1717C20.5418 10.7594 20.0654 11.2359 19.4777 11.2359H19.292V16.4077C19.7193 16.4997 20.0892 16.7808 20.2893 17.1814L20.8036 18.2099C20.9056 18.4126 20.9587 18.6364 20.9587 18.8634V18.875H21.1668C21.512 18.875 21.7918 19.1548 21.7918 19.5C21.7918 19.8164 21.5567 20.0779 21.2516 20.1193L21.1668 20.125H20.3425C20.3395 20.125 20.3366 20.1251 20.3337 20.1251H3.66699C3.66405 20.1251 3.6611 20.125 3.65817 20.125H2.8335C2.48832 20.125 2.2085 19.8452 2.2085 19.5C2.2085 19.1836 2.44362 18.9221 2.74869 18.8807L2.8335 18.875H3.04199V18.8634C3.04199 18.6364 3.09503 18.4126 3.19631 18.2114L3.71124 17.1815C3.91145 16.7809 4.28127 16.4998 4.7085 16.4078V11.2359H4.52468C3.93696 11.237 3.45961 10.7614 3.4585 10.1725V8.52455C3.45898 7.89712 3.86073 7.34032 4.45582 7.14212ZM18.042 11.2359V16.3751H15.9585V11.2359H18.042ZM14.7085 11.2359V16.3751H12.6255V11.2359H14.7085ZM11.3755 11.2359V16.3751H9.29199V11.2359H11.3755ZM8.04199 11.2359V16.3751H5.9585V11.2359H8.04199ZM15.3419 9.98596L15.3335 9.9859L15.3251 9.98596H12.0089L12.0005 9.9859L11.9921 9.98596H8.67536L8.66699 9.9859L8.65863 9.98596H5.34186L5.3335 9.9859L5.32513 9.98596H4.70747L4.7083 8.52511C4.70837 8.43596 4.76576 8.35642 4.8508 8.3281L11.9193 5.97137C11.9541 5.95983 11.991 5.95599 12.0275 5.95991L12.0806 5.97137L19.149 8.32803L19.1965 8.35087C19.2549 8.38864 19.2916 8.45389 19.2916 8.52559L19.2916 9.98596H18.6754L18.667 9.9859L18.6586 9.98596H15.3419ZM18.9855 17.6252H5.01582C4.93693 17.6252 4.86483 17.6698 4.8295 17.7405L4.31377 18.772C4.29958 18.8002 4.29215 18.8315 4.29215 18.8635L4.29132 18.8743H19.7088L19.7074 18.8397L19.7032 18.8161L19.6865 18.7705L19.1714 17.7404C19.1361 17.6698 19.064 17.6252 18.9855 17.6252Z" fill="#607093"/>
</svg>
