<svg width="24" height="24" viewBox="0 0 24 24" fill="none" xmlns="http://www.w3.org/2000/svg">
<path d="M15.7498 5.54181C16.0662 5.54181 16.3277 5.77694 16.3691 6.082L16.3748 6.16681V7.00014C16.3748 7.34532 16.0949 7.62514 15.7498 7.62514C15.4333 7.62514 15.1718 7.39001 15.1305 7.08495L15.1248 7.00014V6.16681C15.1248 5.82163 15.4046 5.54181 15.7498 5.54181Z" fill="#607093"/>
<path d="M13.8691 6.082C13.8277 5.77694 13.5662 5.54181 13.2498 5.54181C12.9046 5.54181 12.6248 5.82163 12.6248 6.16681V7.00014L12.6305 7.08495C12.6718 7.39001 12.9333 7.62514 13.2498 7.62514C13.5949 7.62514 13.8748 7.34532 13.8748 7.00014V6.16681L13.8691 6.082Z" fill="#607093"/>
<path fill-rule="evenodd" clip-rule="evenodd" d="M16.9999 3.04181H6.99992C5.73427 3.04181 4.70825 4.06782 4.70825 5.33348V17.8335C4.70825 19.0991 5.73427 20.1251 6.99992 20.1251H16.9999C18.2656 20.1251 19.2916 19.0991 19.2916 17.8335V5.33348C19.2916 4.06782 18.2656 3.04181 16.9999 3.04181ZM18.0415 8.87512V5.3335C18.0415 4.7582 17.5752 4.29183 16.9999 4.29183H6.99986C6.42456 4.29183 5.95819 4.7582 5.95819 5.3335V8.87512H18.0415ZM14.7083 10.1251H18.0415V12.2084H14.7083V10.1251ZM13.4583 10.1251H10.5415V12.2084H13.4583V10.1251ZM9.2915 10.1251H5.95819V12.2084H9.2915V10.1251ZM13.4583 16.7918H10.5415V18.8752H13.4583V16.7918ZM13.4583 15.5418H10.5415V13.4584H13.4583V15.5418ZM9.2915 15.5418V13.4584H5.95819V15.5418H9.2915ZM9.2915 18.8752V16.7918H5.95819V17.8335C5.95819 18.4088 6.42456 18.8752 6.99986 18.8752H9.2915ZM14.7083 18.8752H16.9999C17.5752 18.8752 18.0415 18.4088 18.0415 17.8335V13.4584H14.7083V18.8752Z" fill="#607093"/>
</svg>
