<svg width="24" height="24" viewBox="0 0 24 24" fill="none" xmlns="http://www.w3.org/2000/svg">
<path fill-rule="evenodd" clip-rule="evenodd" d="M9.91895 9.77266V12.9227C9.91895 13.8601 10.9386 14.4418 11.746 13.965L14.4088 12.3898C15.2011 11.9196 15.2011 10.7732 14.4087 10.3047L11.7468 8.73002C10.939 8.25119 9.91895 8.83373 9.91895 9.77266ZM11.1688 9.84011L13.7163 11.3468L11.1688 12.8534V9.84011Z" fill="#607093"/>
<path fill-rule="evenodd" clip-rule="evenodd" d="M12.0005 3.96588C7.52986 3.96588 3.87549 7.27772 3.87549 11.4092L3.87986 11.6552C3.95553 13.7799 5.00909 15.7257 6.73656 17.0707L6.87382 17.1734L6.87549 19.5342L6.88106 19.6191C6.93605 20.0335 7.3882 20.2871 7.77765 20.0944L10.5343 18.7298C11.0186 18.8111 11.5078 18.8525 12.0005 18.8525C16.4711 18.8525 20.1255 15.5407 20.1255 11.4092C20.1255 7.27772 16.4711 3.96588 12.0005 3.96588ZM12.0004 5.21594C15.8067 5.21594 18.8754 7.99708 18.8754 11.4093C18.8754 14.8215 15.8067 17.6026 12.0004 17.6026C11.5167 17.6026 11.0363 17.556 10.5608 17.4647L10.48 17.4545C10.372 17.4481 10.2636 17.4699 10.1658 17.5183L8.12461 18.5276L8.12461 16.8548C8.12477 16.6482 8.02282 16.4548 7.85223 16.3383C6.14248 15.1699 5.12545 13.3672 5.12545 11.4093C5.12545 7.99708 8.19422 5.21594 12.0004 5.21594Z" fill="#607093"/>
</svg>
