<svg width="72" height="72" viewBox="0 0 72 72" fill="none" xmlns="http://www.w3.org/2000/svg">
<path d="M0 12C0 5.37258 5.37258 0 12 0H60C66.6274 0 72 5.37258 72 12V60C72 66.6274 66.6274 72 60 72H12C5.37258 72 0 66.6274 0 60V12Z" fill="#000032"/>
<g clip-path="url(#clip0_13110_134762)">
<path fill-rule="evenodd" clip-rule="evenodd" d="M16.1758 51.2238H55.6721V11.9998H16.1758V51.2238ZM18.4423 48.9731H53.4061V14.251H18.4423V48.9731Z" fill="white"/>
<path fill-rule="evenodd" clip-rule="evenodd" d="M23.7402 36.319H26.1447V24.087H23.7402V36.319Z" fill="white"/>
<path fill-rule="evenodd" clip-rule="evenodd" d="M48.1052 18.892H45.389L40.2463 28.0404L38.1013 24.0894L28.9141 24.0872V36.3187H31.3185V31.3537H36.1798V29.2234H31.3185V26.2175H36.6462L38.9494 30.0509L28.9141 46.7579H31.6644L40.2463 32.0609L42.6337 36.3214H45.384L41.5438 30.0509L48.1052 18.892Z" fill="white"/>
<path fill-rule="evenodd" clip-rule="evenodd" d="M18.1751 57.8572H17.1992V59.7528H16.209V54.7162H18.1751C19.2292 54.7162 19.8493 55.4305 19.8493 56.287C19.8493 57.1424 19.2292 57.8572 18.1751 57.8572ZM18.1246 55.5935H17.1988V56.9728H18.1246C18.5734 56.9728 18.8587 56.6966 18.8587 56.287C18.8587 55.8762 18.5734 55.5935 18.1246 55.5935Z" fill="white"/>
<path fill-rule="evenodd" clip-rule="evenodd" d="M22.2551 54.7164L20.4102 59.753H21.4433L21.7495 58.8615H23.5515L23.8505 59.753H24.8837L23.0316 54.7164H22.2551ZM22.6691 56.2012L23.2887 58.034H22.0275L22.6691 56.2012Z" fill="white"/>
<path fill-rule="evenodd" clip-rule="evenodd" d="M28.2565 54.7164L27.323 56.7466L26.3758 54.7164H25.3008L26.8252 57.6873V59.753H27.8082V57.6873L29.3321 54.7164H28.2565Z" fill="white"/>
<path fill-rule="evenodd" clip-rule="evenodd" d="M34.2028 54.7164L32.8849 57.4395L31.5598 54.7164H30.584V59.753H31.5742V56.8171L32.55 58.7269H33.2197L34.1884 56.8171V59.753H35.1787V54.7164H34.2028Z" fill="white"/>
<path fill-rule="evenodd" clip-rule="evenodd" d="M37.002 54.7164V59.753H40.3426V58.8757H37.9921V57.6517H39.9935V56.7745H37.9921V55.5937H40.3426V54.7164H37.002Z" fill="white"/>
<path fill-rule="evenodd" clip-rule="evenodd" d="M44.8392 54.7164V57.7999L42.8301 54.7164H41.9473V59.753H42.9375V56.6618L44.946 59.753H45.8294V54.7164H44.8392Z" fill="white"/>
<path fill-rule="evenodd" clip-rule="evenodd" d="M47.2734 54.7164V55.5937H48.5985V59.753H49.5887V55.5937H50.9132V54.7164H47.2734Z" fill="white"/>
<path fill-rule="evenodd" clip-rule="evenodd" d="M53.7564 59.7951C52.987 59.7951 52.4027 59.6327 51.9043 59.1301L52.5453 58.4935C52.8659 58.8118 53.3004 58.9179 53.7636 58.9179C54.355 58.9179 54.6684 58.6915 54.6684 58.2883C54.6684 58.1188 54.6183 57.9772 54.5115 57.8711C54.4118 57.7792 54.3121 57.7366 54.056 57.7015L53.4502 57.6091C53.0013 57.5457 52.6952 57.4111 52.4671 57.1918C52.2249 56.9583 52.1037 56.6257 52.1037 56.2013C52.1037 55.3032 52.7734 54.6737 53.8704 54.6737C54.5687 54.6737 55.0743 54.8433 55.5088 55.2606L54.8821 55.8765C54.5687 55.5718 54.1771 55.5297 53.8423 55.5297C53.3147 55.5297 53.0658 55.8195 53.0658 56.1663C53.0658 56.3009 53.101 56.4278 53.2079 56.5273C53.3076 56.6191 53.4573 56.6897 53.671 56.7181L54.2763 56.81C54.7394 56.8735 55.0247 56.9938 55.245 57.206C55.516 57.4538 55.6371 57.8142 55.6371 58.2671C55.6371 59.2433 54.8248 59.7951 53.7564 59.7951Z" fill="white"/>
</g>
<defs>
<clipPath id="clip0_13110_134762">
<rect width="39.6522" height="48" fill="white" transform="translate(16.1738 12)"/>
</clipPath>
</defs>
</svg>
