<svg width="24" height="24" viewBox="0 0 24 24" fill="none" xmlns="http://www.w3.org/2000/svg">
<path fill-rule="evenodd" clip-rule="evenodd" d="M12.2788 6.81081C12.0017 6.7557 11.7145 6.78399 11.4534 6.89211C11.1924 7.00023 10.9693 7.18334 10.8123 7.41827C10.6554 7.65318 10.5716 7.92939 10.5716 8.21194C10.5716 8.48808 10.3477 8.71194 10.0716 8.71194C9.79543 8.71194 9.57157 8.48808 9.57157 8.21194C9.57157 7.73163 9.71399 7.26209 9.98086 6.86271M12.2788 6.81081C12.5559 6.86594 12.8105 7.002 13.0103 7.20179C13.2101 7.40158 13.3461 7.65612 13.4013 7.93325C13.4564 8.21035 13.4281 8.49759 13.32 8.75864C13.2118 9.01966 13.0288 9.24277 12.7938 9.39976C12.5589 9.55673 12.2827 9.64051 12.0001 9.64051C11.724 9.64051 11.5001 9.86437 11.5001 10.1405V10.7834C11.5001 11.0595 11.724 11.2834 12.0001 11.2834C12.2763 11.2834 12.5001 11.0595 12.5001 10.7834V10.5885C12.8019 10.525 13.0904 10.4043 13.3494 10.2312C13.7487 9.96438 14.06 9.58509 14.2438 9.14132C14.4277 8.69756 14.4758 8.20925 14.382 7.73815C14.2883 7.26705 14.057 6.83432 13.7174 6.49468C13.3778 6.15504 12.945 5.92374 12.4739 5.83003C12.0028 5.73634 11.5145 5.78442 11.0708 5.96823C10.627 6.15204 10.2477 6.46333 9.98086 6.86271M13.8917 7.8357L14.382 7.73815Z" fill="#607093"/>
<path d="M12.5003 12.7923C12.5003 12.9147 12.4563 13.0268 12.3833 13.1138C12.4563 13.2007 12.5003 13.3128 12.5003 13.4352C12.5003 13.7113 12.2764 13.9352 12.0003 13.9352C11.5466 13.9352 11.1789 13.5674 11.1789 13.1138C11.1789 12.6601 11.5466 12.2924 12.0002 12.2923" fill="#607093"/>
<path fill-rule="evenodd" clip-rule="evenodd" d="M17.7859 16C18.062 16 18.2859 16.2239 18.2859 16.5V20.3572C18.2859 20.6333 18.062 20.8572 17.7859 20.8572C17.5097 20.8572 17.2859 20.6333 17.2859 20.3572V16.5C17.2859 16.2239 17.5097 16 17.7859 16Z" fill="#607093"/>
<path fill-rule="evenodd" clip-rule="evenodd" d="M6.85746 3.14288L17.7859 3.14288C18.2594 3.14288 18.7137 3.331 19.0486 3.66594C19.3833 4.00078 19.5716 4.45494 19.5716 4.9286V15.2143C19.5716 15.6879 19.3834 16.1422 19.0485 16.477C18.7137 16.8118 18.2595 17 17.7859 17H6.85728C6.47837 17 6.11501 17.1505 5.84713 17.4184C5.57924 17.6863 5.42871 18.0497 5.42871 18.4286C5.42871 18.8075 5.57924 19.1709 5.84713 19.4388C6.11501 19.7067 6.47837 19.8572 6.85728 19.8572H19.0716C19.3477 19.8572 19.5716 20.081 19.5716 20.3572C19.5716 20.6333 19.3477 20.8572 19.0716 20.8572H6.85728C6.21323 20.8572 5.59549 20.6014 5.14002 20.1459C4.68457 19.6905 4.42871 19.0726 4.42871 18.4286C4.42871 18.4168 4.4288 18.4051 4.42897 18.3933C4.4288 18.388 4.42871 18.3826 4.42871 18.3772V5.50668C4.4456 4.87388 4.70906 4.27269 5.1627 3.83115C5.61629 3.38966 6.22449 3.1427 6.85746 3.14288ZM5.42871 16.4646C5.84123 16.1645 6.3408 16 6.85728 16H17.7859C17.9942 16 18.1941 15.9172 18.3414 15.7699C18.4888 15.6226 18.5716 15.4227 18.5716 15.2143V4.9286C18.5716 4.72026 18.4888 4.52038 18.3414 4.37298C18.1941 4.22568 17.9942 4.14288 17.7859 4.14288H6.85728C6.48491 4.14275 6.12703 4.28802 5.86019 4.54774C5.59482 4.80604 5.44018 5.15722 5.42871 5.5272V16.4646Z" fill="#607093"/>
</svg>
