<svg width="24" height="24" viewBox="0 0 24 24" fill="none" xmlns="http://www.w3.org/2000/svg">
<path d="M18.25 12.7812C18.25 16.6875 15.5156 18.6406 12.2656 19.7734C12.0954 19.8311 11.9106 19.8283 11.7422 19.7656C8.48437 18.6406 5.75 16.6875 5.75 12.7812V7.31248C5.75 7.10528 5.83231 6.90657 5.97882 6.76006C6.12534 6.61354 6.32405 6.53124 6.53125 6.53124C8.09375 6.53124 10.0469 5.59373 11.4063 4.40623C11.5718 4.26483 11.7823 4.18713 12 4.18713C12.2177 4.18713 12.4282 4.26483 12.5937 4.40623C13.9609 5.60155 15.9062 6.53124 17.4688 6.53124C17.676 6.53124 17.8747 6.61354 18.0212 6.76006C18.1677 6.90657 18.25 7.10528 18.25 7.31248V12.7812Z" stroke="#607093" stroke-width="1.2" stroke-linecap="round" stroke-linejoin="round"/>
<path d="M9.65625 12L11.2188 13.5625L14.3438 10.4375" stroke="#607093" stroke-width="1.2" stroke-linecap="round" stroke-linejoin="round"/>
</svg>
