<svg width="97" height="96" viewBox="0 0 97 96" fill="none" xmlns="http://www.w3.org/2000/svg">
<path fill-rule="evenodd" clip-rule="evenodd" d="M62.4129 38.873C66.0423 38.9754 69.4178 42.2973 69.4386 48.3161C69.4386 54.9999 65.9976 58.0359 62.2187 58.0359C60.361 58.0359 59.2422 57.2559 58.4822 56.7077L58.461 62.6746L53.1833 63.7922V39.2075H57.8277L58.1019 40.515C58.8408 39.8403 60.171 38.8706 62.2399 38.8706L62.4129 38.873ZM60.9733 43.5512C59.7701 43.5512 59.0099 43.9726 58.461 44.584L58.4822 52.4063C58.9889 52.9545 59.7278 53.3977 60.9733 53.3977C62.9155 53.3976 64.224 51.2888 64.224 48.4636C64.224 45.7017 62.8943 43.5513 60.9733 43.5512Z" fill="#635BFF"/>
<path d="M17.2098 38.8706C18.962 38.8706 20.693 39.1445 22.4451 39.8402V44.7951C20.8407 43.9307 18.8142 43.4456 17.2098 43.4456C16.091 43.4456 15.4157 43.7619 15.4156 44.584C15.4156 46.9454 23.4587 45.8283 23.4799 52.1114C23.4798 55.8855 20.4606 58.0571 16.0696 58.0571C14.2541 58.0571 12.2698 57.6985 10.3065 56.8551V51.8372C12.0798 52.807 14.3174 53.5239 16.0696 53.524C17.2518 53.524 18.0966 53.2076 18.0966 52.2377C18.0962 49.7288 10.0742 50.6562 10.0742 44.837C10.0743 41.1052 12.9244 38.8706 17.2098 38.8706Z" fill="#635BFF"/>
<path d="M29.6863 34.6536L29.6656 39.2291H33.6763V43.7199H29.6656V51.2049C29.6656 54.325 33.0002 53.3558 33.6763 53.0815V57.3617C32.9796 57.7411 31.713 58.0571 29.9822 58.0571C26.8578 58.0571 24.5141 55.7591 24.5141 52.6386L24.5353 35.75L29.6863 34.6536Z" fill="#635BFF"/>
<path fill-rule="evenodd" clip-rule="evenodd" d="M78.4533 38.8706C83.4565 38.8707 86.0742 43.1297 86.0742 48.5272C86.0742 49.0333 86.0318 50.1292 86.0318 50.4034H75.7087C75.9409 52.8914 77.7564 53.6083 79.8042 53.6083C81.8941 53.6083 83.5408 53.1656 84.9764 52.4488V56.6657C83.5408 57.4669 81.6407 58.0359 79.1285 58.0359C73.9775 58.0358 70.3885 54.8311 70.3885 48.4848C70.3885 43.1294 73.4289 38.8706 78.4533 38.8706ZM78.4321 43.1507C77.1021 43.1507 75.6456 44.1414 75.6455 46.5238H81.0919C81.0919 44.1415 79.7198 43.1508 78.4321 43.1507Z" fill="#635BFF"/>
<path d="M40.2422 40.7892C41.4878 38.5121 43.9576 38.9757 44.6332 39.2287V44.0779C43.9787 43.846 41.8675 43.551 40.622 45.1744V57.6778H35.3443V39.2287H39.9044L40.2422 40.7892Z" fill="#635BFF"/>
<path d="M51.2198 57.6778H45.9209V39.2291H51.2198V57.6778Z" fill="#635BFF"/>
<path d="M51.2198 32.2078V36.4879L45.9209 37.6262V33.3254L51.2198 32.2078Z" fill="#635BFF"/>
</svg>
