<svg width="97" height="96" viewBox="0 0 97 96" fill="none" xmlns="http://www.w3.org/2000/svg">
<path fill-rule="evenodd" clip-rule="evenodd" d="M41.2979 27.5445C43.7251 25.0248 47.1034 23.4645 50.8355 23.4645C55.8117 23.4645 60.1244 26.2213 62.4466 30.3289C64.5079 29.41 66.7407 28.9356 68.9986 28.9367C77.9557 28.9367 85.2264 36.2422 85.2264 45.257C85.2264 54.2717 77.9557 61.5772 68.9986 61.5772C67.9038 61.5772 66.8367 61.4675 65.7917 61.2602C63.7598 64.8716 59.8756 67.3251 55.4523 67.3251C53.6515 67.3287 51.8737 66.9213 50.255 66.1342C48.1954 70.9586 43.3989 74.3495 37.8145 74.3495C31.9814 74.3495 27.0328 70.6829 25.1253 65.5277C24.2763 65.7064 23.4109 65.7962 22.5432 65.7957C15.6042 65.7957 9.99219 60.1167 9.99219 53.142C9.99219 48.4554 12.519 44.3753 16.2677 42.1699C15.4724 40.343 15.063 38.3722 15.0651 36.3806C15.0651 28.3308 21.6171 21.8247 29.6896 21.8247C34.4169 21.8247 38.6467 24.0715 41.3006 27.5589" fill="#00A1E0"/>
<path d="M54.1727 40.1562C54.2717 40.1638 54.3706 40.1755 54.4686 40.1918C54.6141 40.2171 54.7577 40.2521 54.8991 40.2947C54.9301 40.3069 55.0135 40.348 54.9792 40.4461L54.6458 41.3585C54.6178 41.4272 54.5988 41.4691 54.4567 41.4258C54.4214 41.4154 54.3688 41.4 54.2341 41.3714C54.1849 41.3612 54.1279 41.3531 54.0669 41.3467L53.8759 41.3358C53.7173 41.3336 53.5593 41.3564 53.4078 41.4031C53.2696 41.4482 53.1443 41.526 53.0426 41.6297C52.9337 41.7386 52.8051 41.8972 52.7369 42.0938C52.5768 42.5542 52.5132 43.0431 52.5063 43.0745H53.9006L53.9738 43.0844C54.0327 43.1035 54.0516 43.1502 54.0431 43.215L53.8808 44.1185C53.8562 44.2464 53.7398 44.2453 53.7344 44.2452H52.2975L51.3148 49.7888C51.2117 50.3619 51.0831 50.8543 50.9319 51.2504C50.779 51.65 50.6188 51.9425 50.3648 52.2222C50.1298 52.4816 49.8645 52.6733 49.5593 52.7833C49.256 52.8924 48.89 52.9495 48.4886 52.9495C48.2971 52.9495 48.0928 52.9452 47.8503 52.8882C47.6756 52.8471 47.5798 52.8182 47.4515 52.7724C47.3969 52.7527 47.3535 52.685 47.3842 52.5992C47.4146 52.5122 47.671 51.8095 47.7078 51.7155C47.7509 51.6061 47.8582 51.6428 47.8651 51.6453C47.9428 51.6778 47.9971 51.7011 48.1007 51.7215C48.2043 51.7421 48.3454 51.7591 48.451 51.7591C48.6404 51.759 48.8133 51.7362 48.9636 51.6858C49.1458 51.6249 49.251 51.52 49.3624 51.3781C49.4773 51.2315 49.5716 51.03 49.6672 50.7606C49.7642 50.4874 49.8518 50.1262 49.9284 49.6879L50.9061 44.2452H49.9423C49.8264 44.2457 49.7886 44.1919 49.7998 44.1056L49.9631 43.2011C49.9875 43.0745 50.1001 43.0743 50.1085 43.0745H51.0991L51.1525 42.7796C51.3004 41.9067 51.5949 41.2429 52.0283 40.8073C52.4648 40.3685 53.0871 40.1463 53.8759 40.1463L54.1727 40.1562Z" fill="#FFFFFE"/>
<path d="M23.6866 42.9201C24.5159 42.9202 25.3179 43.1601 25.8984 43.5129C25.9511 43.5443 26.0018 43.6054 25.9726 43.686C25.9449 43.7632 25.6875 44.4521 25.6579 44.5302C25.6034 44.6739 25.4531 44.5777 25.4531 44.5777C25.0103 44.3338 24.3497 44.1347 23.747 44.0888L23.4937 44.0789C22.8965 44.0789 22.509 44.396 22.509 44.826V44.8508C22.509 45.3525 23.1702 45.5681 23.936 45.8156L24.0676 45.8592C25.0795 46.1762 26.1636 46.6198 26.1636 47.8383V47.8641C26.1636 49.1817 25.2044 50.0005 23.6619 50.0006C22.9045 50.0006 22.18 49.8822 21.4116 49.4771C21.2679 49.3941 21.1243 49.3198 20.9831 49.2178C20.9717 49.2015 20.9323 49.1831 20.9336 49.1228L20.9495 49.0456L21.2533 48.2015C21.3014 48.0572 21.4129 48.1055 21.4571 48.1322C21.5407 48.1832 21.6029 48.2285 21.7114 48.2916C22.6097 48.8576 23.4382 48.8625 23.6985 48.8626C24.3674 48.8626 24.7849 48.5071 24.7851 48.0303V48.0046C24.7851 47.4863 24.1435 47.2887 23.4026 47.0615L23.2394 47.011C22.222 46.7216 21.1325 46.3017 21.1325 45.017V44.9913C21.1325 43.7728 22.1196 42.9211 23.5323 42.9211L23.6866 42.9201Z" fill="#FFFFFE"/>
<path d="M46.5787 42.929C47.2958 42.9797 47.9736 43.2021 48.4816 43.5109C48.5341 43.5423 48.5854 43.6034 48.5559 43.6841C48.5308 43.7618 48.2743 44.447 48.2441 44.5272C48.191 44.6673 48.0473 44.5807 48.0393 44.5757C47.5943 44.3318 46.9354 44.1319 46.3333 44.0858L46.0789 44.0759C45.482 44.076 45.0955 44.3932 45.0953 44.8231V44.8488C45.0953 45.3505 45.7556 45.5661 46.5213 45.8136L46.6539 45.8562C47.6685 46.1732 48.7488 46.6178 48.7488 47.8364V47.8621C48.7487 49.1797 47.7897 49.9986 46.2472 49.9986C45.4898 49.9986 44.7653 49.8803 43.9969 49.4751C43.8531 49.3921 43.7091 49.3178 43.5684 49.2158C43.5565 49.1995 43.5177 49.1809 43.5189 49.1208L43.5327 49.0436L43.8365 48.1995C43.8811 48.0617 44.0115 48.1126 44.0394 48.1303C44.1217 48.1831 44.1853 48.2266 44.2937 48.2896C45.1894 48.8558 46.0211 48.8606 46.2818 48.8606C46.9505 48.8605 47.3681 48.505 47.3684 48.0283V48.0016C47.3681 47.4836 46.7294 47.2866 45.9859 47.0595L45.8226 47.0081C44.8053 46.7186 43.7158 46.2997 43.7158 45.0151V44.9893C43.7158 43.7708 44.7029 42.9191 46.1156 42.9191L46.2699 42.9181L46.5787 42.929Z" fill="#FFFFFE"/>
<path fill-rule="evenodd" clip-rule="evenodd" d="M57.2889 42.9429C57.8142 42.9429 58.2788 43.0346 58.6714 43.218C59.0667 43.3999 59.3981 43.6538 59.661 43.9681C59.8908 44.2431 60.0701 44.5646 60.1963 44.927L60.2438 45.0843C60.3693 45.5089 60.4338 45.9751 60.4338 46.4658C60.4338 46.959 60.3693 47.4219 60.2438 47.8462C60.1167 48.2736 59.9204 48.6492 59.658 48.9635C59.3954 49.2777 59.0609 49.5291 58.6684 49.7077C58.2759 49.8863 57.8114 49.9768 57.2889 49.9768C56.7665 49.9768 56.3018 49.8863 55.9065 49.7077C55.514 49.5285 55.1798 49.2777 54.9169 48.9635C54.6543 48.6492 54.4574 48.2736 54.3311 47.8462C54.2054 47.4219 54.1411 46.959 54.1411 46.4658C54.1411 45.9723 54.2053 45.5089 54.3311 45.0843C54.4582 44.6571 54.6549 44.2823 54.9169 43.9681C55.1795 43.6538 55.514 43.401 55.9065 43.218C56.3018 43.0352 56.7637 42.9429 57.2889 42.9429ZM57.2919 44.1224C56.7169 44.1224 56.3097 44.3181 56.0421 44.7261C55.7728 45.1369 55.6353 45.7215 55.6353 46.4658C55.6354 47.21 55.772 47.7999 56.0421 48.2134C56.3102 48.623 56.7196 48.823 57.2919 48.823C57.8641 48.8229 58.2747 48.6211 58.5467 48.2104C58.7851 47.8463 58.922 47.3515 58.9524 46.7349L58.9584 46.4658C58.9584 45.7214 58.8209 45.1369 58.5467 44.7261C58.2758 44.3201 57.8668 44.1225 57.2919 44.1224Z" fill="#FFFFFE"/>
<path fill-rule="evenodd" clip-rule="evenodd" d="M39.8733 42.9379C40.3026 42.9372 40.728 43.0227 41.1231 43.1903C41.3967 43.306 41.6705 43.5183 41.9524 43.8186C42.1292 44.0088 42.4009 44.4253 42.5105 44.8359L42.5135 44.8369C42.7935 45.8156 42.6488 46.6629 42.6441 46.7092C42.6321 46.8209 42.5174 46.822 42.5174 46.822L38.1494 46.8191C38.1743 47.4803 38.3346 47.9461 38.6551 48.2658C38.9702 48.5782 39.4738 48.7773 40.1484 48.7784C41.185 48.7812 41.6271 48.5722 41.9395 48.4558C41.9395 48.4558 42.0598 48.4134 42.1038 48.532L42.3888 49.3286C42.446 49.4628 42.4002 49.5094 42.3522 49.5365C42.0813 49.6881 41.4178 49.9677 40.1573 49.9719C39.5435 49.9738 39.0125 49.8861 38.5729 49.7166C38.1307 49.5456 37.763 49.3027 37.4755 48.9912C37.1909 48.6825 36.9772 48.3103 36.8451 47.8858C36.7133 47.4641 36.6472 46.9981 36.6472 46.4965C36.6472 46.0058 36.7113 45.5373 36.8382 45.1101C36.9654 44.6773 37.1654 44.2997 37.43 43.9799C37.6954 43.6602 38.0326 43.404 38.4334 43.216C38.8342 43.0295 39.3289 42.9379 39.8733 42.9379ZM39.7713 44.0888C39.1992 44.0888 38.7921 44.3123 38.5245 44.7202C38.3462 44.9874 38.2319 45.3321 38.1702 45.7454L41.2804 45.7464C41.2509 45.3466 41.1729 44.9889 40.9935 44.7202C40.7226 44.3133 40.3435 44.0888 39.7713 44.0888Z" fill="#FFFFFE"/>
<path fill-rule="evenodd" clip-rule="evenodd" d="M74.7897 42.9379C75.2191 42.9372 75.6445 43.0227 76.0396 43.1903C76.3132 43.3061 76.587 43.5183 76.8688 43.8186C77.0457 44.0088 77.3171 44.4253 77.427 44.8359L77.4329 44.8369C77.7127 45.8156 77.5672 46.6629 77.5625 46.7092C77.5505 46.8209 77.4359 46.822 77.4359 46.822L73.0678 46.8191C73.0928 47.4805 73.2539 47.9461 73.5745 48.2658C73.8897 48.5781 74.3896 48.7773 75.0668 48.7784C76.1033 48.7812 76.5456 48.5722 76.8579 48.4558C76.8579 48.4558 76.9785 48.4134 77.0222 48.532L77.3072 49.3286C77.364 49.4626 77.3189 49.5094 77.2706 49.5365C76.9997 49.6881 76.3354 49.9677 75.0747 49.9719C74.464 49.9738 73.9308 49.886 73.4914 49.7166C73.0491 49.5456 72.6814 49.3027 72.3939 48.9912C72.1065 48.6824 71.893 48.3104 71.7606 47.8858C71.6296 47.4641 71.5627 46.9981 71.5627 46.4965C71.5627 46.0059 71.6266 45.5372 71.7537 45.1101C71.8808 44.6774 72.0804 44.2997 72.3454 43.9799C72.6108 43.6602 72.9482 43.404 73.3489 43.216C73.7497 43.0294 74.2451 42.9379 74.7897 42.9379ZM74.6878 44.0888C74.1157 44.0888 73.7083 44.3124 73.4409 44.7202C73.2624 44.9874 73.1483 45.3321 73.0866 45.7454L76.1969 45.7464C76.1676 45.3466 76.0886 44.9889 75.9089 44.7202C75.6718 44.3643 75.3522 44.1481 74.8926 44.0997L74.6878 44.0888Z" fill="#FFFFFE"/>
<path d="M69.4489 42.929C69.7069 42.9372 69.9412 42.9575 70.1506 42.9894C70.4491 43.0343 70.8435 43.141 71.0105 43.2061C71.0413 43.218 71.1248 43.2589 71.0907 43.3565C70.9693 43.6983 70.8861 43.9218 70.773 44.2333C70.7246 44.3659 70.6236 44.3223 70.6236 44.3223C70.1979 44.1895 69.7916 44.1274 69.2609 44.1274C68.6251 44.1274 68.1444 44.3432 67.832 44.7568C67.5155 45.1758 67.3391 45.7212 67.3372 46.449C67.3344 47.2484 67.5327 47.8388 67.8894 48.2055C68.2432 48.5718 68.741 48.7566 69.3628 48.7567C69.6144 48.7567 69.8539 48.7398 70.0684 48.7062C70.2812 48.6731 70.481 48.6064 70.6681 48.535C70.6733 48.5331 70.7634 48.5012 70.8136 48.5736L70.8334 48.6132L71.151 49.484C71.1914 49.5921 71.0986 49.6374 71.0986 49.6374C70.6121 49.8294 69.9352 49.9619 69.2748 49.962C68.1579 49.962 67.3 49.6421 66.7306 49.008C66.1613 48.3768 65.8736 47.5138 65.8736 46.4499C65.8736 45.9566 65.9448 45.491 66.0844 45.0665C66.2253 44.6392 66.4353 44.2635 66.7118 43.9493C66.9882 43.6351 67.3371 43.3829 67.7488 43.2002C68.1606 43.0172 68.6412 42.9241 69.1827 42.9241L69.4489 42.929Z" fill="#FFFFFE"/>
<path fill-rule="evenodd" clip-rule="evenodd" d="M30.211 42.9369C30.9291 42.9809 31.4937 43.179 31.8952 43.5287C32.3557 43.9284 32.5889 44.5764 32.5889 45.4475L32.5909 49.4177C32.5913 49.4251 32.5959 49.5328 32.492 49.5592C32.492 49.5592 32.3305 49.6031 32.1852 49.6364C31.821 49.7151 31.4549 49.786 31.0877 49.8492C30.6566 49.9216 30.2114 49.96 29.7637 49.96C29.338 49.96 28.9506 49.9202 28.6078 49.8422C28.2623 49.7651 27.9626 49.6351 27.7202 49.4593C27.4766 49.2832 27.2812 49.0489 27.1512 48.7784C27.0185 48.5056 26.9513 48.1717 26.9513 47.7859C26.9513 47.4057 27.0295 47.0691 27.1838 46.7824C27.3369 46.4983 27.5538 46.2524 27.8172 46.065C28.0797 45.8765 28.3867 45.735 28.7266 45.6434C29.0638 45.5525 29.4261 45.5059 29.7993 45.5059L30.1753 45.5108C30.2891 45.514 30.3907 45.5192 30.4791 45.5257L30.4841 45.5356C30.4971 45.5367 30.8365 45.5677 31.2025 45.6207V45.4366C31.2025 44.8581 31.0812 44.5827 30.8433 44.4005C30.6 44.2144 30.2346 44.1195 29.7647 44.1195C29.7464 44.1193 28.696 44.1099 27.8657 44.5608C27.8288 44.5826 27.7972 44.5954 27.7944 44.5965C27.7944 44.5965 27.6893 44.6324 27.6509 44.5252L27.3412 43.6989C27.2942 43.579 27.3808 43.5257 27.3808 43.5257C27.7688 43.2229 28.7015 43.0392 28.7236 43.0349C29.0387 42.9718 29.5671 42.928 29.8933 42.928L30.211 42.9369ZM30.017 46.6073C29.1268 46.5963 28.7486 46.9225 28.7513 46.922C28.4888 47.1066 28.3615 47.3818 28.3614 47.7621C28.3614 48.0047 28.4056 48.194 28.4921 48.3272C28.5487 48.4157 28.5723 48.4493 28.7434 48.5855L28.7464 48.5865C28.7436 48.5856 29.1356 48.8939 30.0229 48.8408C30.6477 48.8033 31.2006 48.6844 31.2006 48.6844V46.7082C30.8088 46.6483 30.4132 46.6144 30.017 46.6073Z" fill="#FFFFFE"/>
<path d="M35.2915 40.2868C35.3645 40.2868 35.4162 40.3459 35.4162 40.4184V49.6997C35.4161 49.7725 35.3644 49.8314 35.2915 49.8314H34.1357C34.0624 49.8314 34.01 49.7725 34.01 49.6997V40.4184C34.01 40.3459 34.0624 40.2868 34.1357 40.2868H35.2915Z" fill="#FFFFFE"/>
<path d="M64.7939 43.0042C65.0783 43.0218 65.4482 43.0997 65.5233 43.1279C65.538 43.1337 65.5515 43.1426 65.5628 43.1536C65.5742 43.1647 65.5835 43.1776 65.5896 43.1922C65.5956 43.2067 65.5985 43.2221 65.5985 43.2378L65.5915 43.2665C65.5498 43.3856 65.3379 43.9802 65.263 44.1789C65.2345 44.2544 65.1877 44.306 65.1037 44.2966C65.102 44.2962 64.9623 44.2635 64.7969 44.2471L64.6257 44.2382C64.4276 44.2382 64.2303 44.2659 64.0399 44.3204C63.8368 44.3832 63.6517 44.4939 63.5005 44.643C63.3422 44.7973 63.2131 45.0124 63.1186 45.2822C63.0227 45.5551 62.9751 45.9878 62.9751 46.4232V49.676C62.9751 49.7109 62.9612 49.7452 62.9365 49.77C62.9117 49.7948 62.8776 49.8085 62.8425 49.8086H61.6985C61.6635 49.8085 61.6293 49.7947 61.6045 49.77C61.5797 49.7453 61.566 49.711 61.5659 49.676V43.1982C61.5659 43.1254 61.6182 43.0666 61.6906 43.0666H62.8078C62.8812 43.0667 62.9325 43.1255 62.9325 43.1982L62.9335 43.7276C63.0994 43.5015 63.3984 43.3059 63.6688 43.1843C63.9425 43.0619 64.2466 42.97 64.7939 43.0042Z" fill="#FFFFFE"/>
</svg>
