<svg width="24" height="24" viewBox="0 0 24 24" fill="none" xmlns="http://www.w3.org/2000/svg">
<path fill-rule="evenodd" clip-rule="evenodd" d="M7.75 7.28976V6C7.75 3.65279 9.65279 1.75 12 1.75C14.3472 1.75 16.25 3.65279 16.25 6V7.28976H19.5V8.03976C19.5 7.28976 19.5015 7.28977 19.5015 7.28977L19.5031 7.28977L19.5068 7.28979L19.5159 7.2899L19.5408 7.2905C19.5603 7.29112 19.5856 7.29226 19.6158 7.29433C19.6759 7.29846 19.7572 7.30638 19.8529 7.32168C20.0405 7.35171 20.3028 7.41318 20.5745 7.54362C20.8485 7.67514 21.1498 7.88563 21.3817 8.21947C21.6178 8.55954 21.75 8.98208 21.75 9.47976V19.5598H21C21.75 19.5598 21.75 19.5614 21.75 19.5614L21.75 19.5631L21.75 19.567L21.7498 19.5765L21.7492 19.602C21.7485 19.6217 21.7472 19.6471 21.745 19.6773C21.7405 19.7374 21.732 19.8182 21.7155 19.9131C21.6832 20.0993 21.6171 20.3585 21.4777 20.6262C21.3364 20.8975 21.1143 21.187 20.7715 21.4065C20.4254 21.628 20.0001 21.7498 19.5 21.7498H4.5V20.9998C4.5 21.7498 4.49852 21.7498 4.49852 21.7498L4.49689 21.7498L4.4932 21.7497L4.48409 21.7496L4.45917 21.749C4.43969 21.7484 4.41444 21.7473 4.38424 21.7452C4.32408 21.7411 4.2428 21.7332 4.14713 21.7178C3.95946 21.6878 3.69722 21.6264 3.42545 21.4959C3.15146 21.3644 2.85018 21.1539 2.61835 20.8201C2.38219 20.48 2.25 20.0574 2.25 19.5598V9.47976H3C2.25 9.47976 2.25 9.47817 2.25 9.47817L2.25001 9.47643L2.25003 9.47252L2.25015 9.46303L2.25082 9.43757C2.2515 9.41781 2.25275 9.39244 2.255 9.36224C2.25947 9.3021 2.26802 9.22132 2.28449 9.12648C2.31683 8.94019 2.38288 8.68103 2.52231 8.41331C2.6636 8.14204 2.88567 7.85248 3.22852 7.63306C3.5746 7.41157 3.99988 7.28976 4.5 7.28976H7.75ZM9.25 6C9.25 4.48122 10.4812 3.25 12 3.25C13.5188 3.25 14.75 4.48122 14.75 6V7.28976H9.25V6ZM3.75 9.48752V12.6901H20.25V9.47976C20.25 9.25745 20.1947 9.13999 20.1496 9.07506C20.1002 9.0039 20.0265 8.94439 19.9255 8.89591C19.8222 8.84635 19.7095 8.81782 19.6159 8.80285C19.5709 8.79565 19.535 8.79232 19.5131 8.79082C19.5035 8.79016 19.4969 8.78987 19.4938 8.78976H4.5C4.25012 8.78976 4.1129 8.84796 4.0371 8.89647C3.95808 8.94704 3.8989 9.01749 3.85269 9.10622C3.80462 9.1985 3.77692 9.29934 3.76238 9.38305C3.75541 9.42321 3.75225 9.45493 3.75086 9.47354L3.75 9.48752ZM20.25 19.552V14.1901H3.75V19.5598C3.75 19.7821 3.80531 19.8995 3.8504 19.9645C3.89982 20.0356 3.97354 20.0951 4.07455 20.1436C4.17778 20.1932 4.29054 20.2217 4.38412 20.2367C4.42907 20.2439 4.46499 20.2472 4.48686 20.2487C4.49653 20.2494 4.50314 20.2497 4.50621 20.2498H19.5C19.7499 20.2498 19.8871 20.1916 19.9629 20.1431C20.0419 20.0925 20.1011 20.022 20.1473 19.9333C20.1954 19.841 20.2231 19.7402 20.2376 19.6565C20.2446 19.6163 20.2478 19.5846 20.2491 19.566L20.25 19.552Z" fill="#607093"/>
</svg>
