<svg width="24" height="24" viewBox="0 0 24 24" fill="none" xmlns="http://www.w3.org/2000/svg">
<path d="M12.026 14.2269C12.0174 14.2266 12.0088 14.2264 12.0002 14.2264C11.4926 14.2264 11.0813 14.6378 11.0813 15.1453C11.0813 15.6448 11.48 16.0515 11.9768 16.0638C11.9845 16.0641 11.9922 16.0643 11.9999 16.0643C12.5073 16.0643 12.9188 15.653 12.9188 15.1454C12.9188 14.6466 12.5214 14.2407 12.026 14.2269Z" fill="#607093"/>
<path d="M10.75 9C10.75 8.30964 11.3096 7.75 12 7.75C12.6904 7.75 13.25 8.30964 13.25 9C13.25 9.69036 12.6904 10.25 12 10.25C11.5858 10.25 11.25 10.5858 11.25 11V12.5C11.25 12.9142 11.5858 13.25 12 13.25C12.4142 13.25 12.75 12.9142 12.75 12.5V11.6465C13.9043 11.32 14.75 10.2588 14.75 9C14.75 7.48122 13.5188 6.25 12 6.25C10.4812 6.25 9.25 7.48122 9.25 9C9.25 9.41421 9.58579 9.75 10 9.75C10.4142 9.75 10.75 9.41421 10.75 9Z" fill="#607093"/>
<path fill-rule="evenodd" clip-rule="evenodd" d="M3.25002 11C3.25002 6.16751 7.16754 2.25 12 2.25C16.8325 2.25 20.75 6.16751 20.75 11C20.75 15.8325 16.8325 19.75 12 19.75C10.8009 19.75 9.65659 19.5084 8.6143 19.0707L4.26336 20.7022C3.99268 20.8038 3.68776 20.7407 3.4796 20.5401C3.27144 20.3395 3.19709 20.0371 3.28851 19.7628L4.6344 15.7252C3.75828 14.3621 3.25002 12.7394 3.25002 11ZM12 3.75C7.99596 3.75 4.75002 6.99594 4.75002 11C4.75002 12.5575 5.2403 13.9984 6.07506 15.1793C6.21281 15.3742 6.24959 15.623 6.17412 15.8494L5.20867 18.7458L8.37395 17.5588C8.56207 17.4883 8.77064 17.4961 8.9529 17.5807C9.87838 18.01 10.9101 18.25 12 18.25C16.0041 18.25 19.25 15.0041 19.25 11C19.25 6.99594 16.0041 3.75 12 3.75Z" fill="#607093"/>
</svg>
