<svg width="24" height="24" viewBox="0 0 24 24" fill="none" xmlns="http://www.w3.org/2000/svg">
<rect x="3" y="3" width="18" height="18" rx="3" fill="#1AB4D7"/>
<path d="M16.4908 12.0106C16.4908 12.2854 16.7142 12.5089 16.9894 12.5089C17.2638 12.5089 17.4873 12.2854 17.4873 12.0106C17.4873 11.7358 17.2638 11.5123 16.9894 11.5123C16.7142 11.5123 16.4908 11.7358 16.4908 12.0106Z" fill="white"/>
<path fill-rule="evenodd" clip-rule="evenodd" d="M16.9888 14.0213C15.8801 14.0213 14.978 13.1194 14.978 12.0109C14.978 10.9022 15.8801 10 16.9888 10C18.0975 10 19 10.9022 19 12.0109C19 13.1194 18.0975 14.0213 16.9888 14.0213ZM16.9888 10.5677C16.193 10.5677 15.5457 11.2152 15.5457 12.0109C15.5457 12.8064 16.193 13.4535 16.9888 13.4535C17.7842 13.4535 18.4317 12.8064 18.4317 12.0109C18.4317 11.2152 17.7842 10.5677 16.9888 10.5677Z" fill="white"/>
<path d="M7.39254 12.0111L8.92298 10.4768C8.97372 10.4251 9.00203 10.3567 9.00203 10.284C9.00203 10.1327 8.87902 10.0098 8.72769 10.0098C8.65397 10.0098 8.58487 10.0387 8.53276 10.0915L7.00369 11.6198L5.46778 10.0892C5.41588 10.038 5.34711 10.0098 5.27419 10.0098C5.12305 10.0098 5 10.1327 5 10.2838C5 10.3576 5.02944 10.4268 5.08229 10.4789L6.61252 12.0089L5.08308 13.5412C5.02932 13.5942 5 13.6635 5 13.7376C5 13.8889 5.12305 14.0116 5.27419 14.0116C5.34723 14.0116 5.41607 13.9833 5.46778 13.9315L7.00131 12.4001L8.52901 13.926C8.58319 13.982 8.65309 14.0118 8.72769 14.0118C8.87886 14.0118 9.00188 13.8889 9.00188 13.7376C9.00188 13.6646 8.9736 13.596 8.92213 13.5443L7.39254 12.0111Z" fill="white"/>
<path d="M14.8353 10.0344L14.7509 10.0341C14.4976 10.0341 14.2534 10.114 14.0494 10.2712C14.0225 10.1482 13.9125 10.0557 13.7815 10.0557C13.6308 10.0557 13.51 10.1764 13.5096 10.3275L13.5105 13.7141C13.5109 13.8649 13.6339 13.9875 13.7848 13.9875C13.9356 13.9875 14.0585 13.8649 14.0589 13.7138L14.0591 11.6314C14.0591 10.9374 14.1225 10.6571 14.717 10.5828C14.772 10.576 14.832 10.577 14.832 10.577C14.9947 10.5715 15.1103 10.4597 15.1103 10.3086C15.1103 10.1574 14.9869 10.0344 14.8353 10.0344Z" fill="white"/>
<path fill-rule="evenodd" clip-rule="evenodd" d="M12.0628 10.3139C12.5292 10.609 12.8355 11.0686 12.9537 11.6281C13.012 11.9448 12.8008 12.2217 12.4085 12.23L9.54625 12.2304C9.5468 12.2436 9.54817 12.2579 9.55003 12.2728C9.56428 12.352 9.58472 12.429 9.61123 12.5032C9.76305 12.9006 10.1899 13.4573 10.9875 13.4662C11.2311 13.4648 11.4604 13.4034 11.6615 13.296C11.8196 13.2077 11.9515 13.0938 12.0578 12.9764C12.0931 12.9342 12.1252 12.8921 12.1539 12.8511C12.2877 12.6799 12.4576 12.7113 12.5588 12.7889C12.6789 12.8809 12.6991 13.0735 12.5899 13.209C12.588 13.2112 12.5862 13.2132 12.5843 13.2152C12.583 13.2167 12.5817 13.2181 12.5803 13.2196C12.423 13.417 12.2605 13.5819 12.066 13.7069C11.8786 13.827 11.6752 13.9122 11.465 13.9634C11.2204 14.0267 10.9842 14.0408 10.7415 14.0114C9.92375 13.9113 9.23782 13.3073 9.03499 12.5094C8.99447 12.349 8.97501 12.186 8.97501 12.0245C8.97501 11.3806 9.28508 10.7555 9.82224 10.3733C10.4808 9.90503 11.3811 9.88108 12.0628 10.3139ZM9.57066 11.6631C9.57035 11.6687 9.57004 11.6744 9.57004 11.6798H12.3922C12.2411 11.0389 11.6659 10.5618 10.9789 10.5618C10.3002 10.5618 9.73019 11.0275 9.57099 11.6568C9.57089 11.6589 9.57078 11.661 9.57066 11.6631Z" fill="white"/>
</svg>
