<svg width="97" height="96" viewBox="0 0 97 96" fill="none" xmlns="http://www.w3.org/2000/svg">
<path d="M48.0019 85.5551C68.9888 85.5551 86.0034 68.5405 86.0034 47.5536C86.0034 26.5667 68.9888 9.55565 48.0019 9.55565C27.015 9.55565 10.0039 26.5667 10.0039 47.5536C10.0039 68.5405 27.015 85.5551 48.0019 85.5551Z" fill="#FFD100"/>
<path d="M27.4314 51.8293C26.7047 52.4043 25.7663 52.736 24.8596 52.736C23.0428 52.736 21.8645 51.4942 21.8645 49.5892C21.8645 47.6206 23.0146 46.3824 24.8596 46.3824C25.798 46.3824 26.8564 46.7775 27.4314 47.289V51.8293ZM35.6935 57.1245L35.5736 52.5243C35.0903 52.736 34.6352 52.8877 34.1201 52.8877C33.3934 52.8877 33.2417 52.2809 33.2417 51.5541V41.6304H27.4314V43.0521C26.4613 42.022 25.0713 41.3588 23.1628 41.3588C18.8941 41.3588 15.959 44.7772 15.959 49.5892C15.959 54.3411 18.8941 57.7313 23.1628 57.7313C25.2195 57.7313 26.8564 56.7647 27.8547 55.5229C28.4615 57.1281 29.7915 57.7631 31.7 57.7631C33.3334 57.7596 34.8186 57.4562 35.6935 57.1245ZM39.2566 57.4562H45.0669V49.374C45.1586 47.9805 45.7619 46.6822 47.4587 46.6822C49.0321 46.6822 50.4856 47.2255 50.5456 47.3173L51.2405 41.9903C51.2088 41.8985 49.907 41.3553 48.4254 41.3553C46.4886 41.3553 45.4303 42.2937 44.7035 43.7154C44.0967 42.022 42.735 41.3553 40.83 41.3553C38.7133 41.3553 36.8647 41.9303 36.8048 41.9903L36.9565 46.5588C37.0164 46.527 37.8031 46.2272 38.4382 46.2272C39.1331 46.2272 39.2566 46.8022 39.2566 47.5607V57.4562ZM52.9163 35.9683V52.9794C52.9163 56.5213 54.5814 57.7631 57.2131 57.7631C58.9382 57.7631 60.5116 57.368 61.2983 57.1281L61.1184 52.5278C60.6033 52.7395 60.12 52.8912 59.6367 52.8912C58.91 52.8912 58.7301 52.2844 58.7301 51.5295V35.9718H52.9163V35.9683ZM74.4464 49.5892C74.4464 51.2543 73.2646 52.6478 71.4513 52.6478C69.6945 52.6478 68.4845 51.2543 68.4845 49.5892C68.4845 47.8641 69.6945 46.5023 71.4513 46.5023C73.2646 46.5023 74.4464 47.8641 74.4464 49.5892ZM80.0451 49.5892C80.0451 44.7772 76.415 41.2071 71.4513 41.2071C66.5477 41.2071 62.9176 44.7772 62.9176 49.5892C62.9176 54.3411 66.5477 57.883 71.4513 57.883C76.4114 57.8795 80.0451 54.3411 80.0451 49.5892Z" fill="white"/>
</svg>
