<svg width="24" height="24" viewBox="0 0 24 24" fill="none" xmlns="http://www.w3.org/2000/svg">
<path d="M14 17.25C14.7293 17.25 15.4286 17.5399 15.9443 18.0557C16.4601 18.5714 16.75 19.2707 16.75 20V21C16.75 21.4142 16.4142 21.75 16 21.75C15.5858 21.75 15.25 21.4142 15.25 21V20C15.25 19.6685 15.1182 19.3506 14.8838 19.1162C14.6494 18.8818 14.3315 18.75 14 18.75H10C9.66848 18.75 9.35063 18.8818 9.11621 19.1162C8.88179 19.3506 8.75 19.6685 8.75 20V21C8.75 21.4142 8.41421 21.75 8 21.75C7.58579 21.75 7.25 21.4142 7.25 21V20C7.25 19.2707 7.53994 18.5714 8.05566 18.0557C8.57139 17.5399 9.27065 17.25 10 17.25H14Z" fill="#607093"/>
<path fill-rule="evenodd" clip-rule="evenodd" d="M12 10.25C12.7293 10.25 13.4286 10.5399 13.9443 11.0557C14.4601 11.5714 14.75 12.2707 14.75 13C14.75 13.7293 14.4601 14.4286 13.9443 14.9443C13.4286 15.4601 12.7293 15.75 12 15.75C11.2707 15.75 10.5714 15.4601 10.0557 14.9443C9.53994 14.4286 9.25 13.7293 9.25 13C9.25 12.2707 9.53994 11.5714 10.0557 11.0557C10.5714 10.5399 11.2707 10.25 12 10.25ZM12 11.75C11.6685 11.75 11.3506 11.8818 11.1162 12.1162C10.8818 12.3506 10.75 12.6685 10.75 13C10.75 13.3315 10.8818 13.6494 11.1162 13.8838C11.3506 14.1182 11.6685 14.25 12 14.25C12.3315 14.25 12.6494 14.1182 12.8838 13.8838C13.1182 13.6494 13.25 13.3315 13.25 13C13.25 12.6685 13.1182 12.3506 12.8838 12.1162C12.6494 11.8818 12.3315 11.75 12 11.75Z" fill="#607093"/>
<path d="M7 9.25C7.41421 9.25 7.75 9.58579 7.75 10C7.75 10.4142 7.41421 10.75 7 10.75H5C4.66848 10.75 4.35063 10.8818 4.11621 11.1162C3.88179 11.3506 3.75 11.6685 3.75 12V13C3.75 13.4142 3.41421 13.75 3 13.75C2.58579 13.75 2.25 13.4142 2.25 13V12C2.25 11.2707 2.53994 10.5714 3.05566 10.0557C3.57139 9.53994 4.27065 9.25 5 9.25H7Z" fill="#607093"/>
<path d="M19 9.25C19.7293 9.25 20.4286 9.53994 20.9443 10.0557C21.4601 10.5714 21.75 11.2707 21.75 12V13C21.75 13.4142 21.4142 13.75 21 13.75C20.5858 13.75 20.25 13.4142 20.25 13V12C20.25 11.6685 20.1182 11.3506 19.8838 11.1162C19.6494 10.8818 19.3315 10.75 19 10.75H17C16.5858 10.75 16.25 10.4142 16.25 10C16.25 9.58579 16.5858 9.25 17 9.25H19Z" fill="#607093"/>
<path fill-rule="evenodd" clip-rule="evenodd" d="M7 2.25L7.27148 2.26367C7.90113 2.32612 8.49301 2.60433 8.94434 3.05566C9.46006 3.57139 9.75 4.27065 9.75 5C9.75 5.72935 9.46006 6.42861 8.94434 6.94434C8.49301 7.39567 7.90113 7.67388 7.27148 7.73633L7 7.75C6.27065 7.75 5.57139 7.46006 5.05566 6.94434C4.60433 6.49301 4.32612 5.90113 4.26367 5.27148L4.25 5C4.25 4.27065 4.53994 3.57139 5.05566 3.05566C5.57139 2.53994 6.27065 2.25 7 2.25ZM7 3.75C6.66848 3.75 6.35063 3.88179 6.11621 4.11621C5.88179 4.35063 5.75 4.66848 5.75 5L5.75586 5.12402C5.78436 5.41001 5.9112 5.67878 6.11621 5.88379C6.35063 6.11821 6.66848 6.25 7 6.25L7.12402 6.24414C7.41001 6.21564 7.67878 6.0888 7.88379 5.88379C8.11821 5.64937 8.25 5.33152 8.25 5C8.25 4.66848 8.11821 4.35063 7.88379 4.11621C7.67878 3.9112 7.41001 3.78436 7.12402 3.75586L7 3.75Z" fill="#607093"/>
<path fill-rule="evenodd" clip-rule="evenodd" d="M17 2.25L17.2715 2.26367C17.9011 2.32612 18.493 2.60433 18.9443 3.05566C19.4601 3.57139 19.75 4.27065 19.75 5C19.75 5.72935 19.4601 6.42861 18.9443 6.94434C18.493 7.39567 17.9011 7.67388 17.2715 7.73633L17 7.75C16.2707 7.75 15.5714 7.46006 15.0557 6.94434C14.5399 6.42861 14.25 5.72935 14.25 5C14.25 4.27065 14.5399 3.57139 15.0557 3.05566C15.5714 2.53994 16.2707 2.25 17 2.25ZM17 3.75C16.6685 3.75 16.3506 3.88179 16.1162 4.11621C15.8818 4.35063 15.75 4.66848 15.75 5C15.75 5.33152 15.8818 5.64937 16.1162 5.88379C16.3506 6.11821 16.6685 6.25 17 6.25L17.124 6.24414C17.41 6.21564 17.6788 6.0888 17.8838 5.88379C18.1182 5.64937 18.25 5.33152 18.25 5C18.25 4.66848 18.1182 4.35063 17.8838 4.11621C17.6788 3.9112 17.41 3.78436 17.124 3.75586L17 3.75Z" fill="#607093"/>
</svg>
