<svg width="24" height="24" viewBox="0 0 24 24" fill="none" xmlns="http://www.w3.org/2000/svg">
<path d="M8 13.25C8.41421 13.25 8.75 13.5858 8.75 14V17C8.75 17.4142 8.41421 17.75 8 17.75C7.58579 17.75 7.25 17.4142 7.25 17V14C7.25 13.5858 7.58579 13.25 8 13.25Z" fill="#607093"/>
<path d="M12 13.25C12.4142 13.25 12.75 13.5858 12.75 14V17C12.75 17.4142 12.4142 17.75 12 17.75C11.5858 17.75 11.25 17.4142 11.25 17V14C11.25 13.5858 11.5858 13.25 12 13.25Z" fill="#607093"/>
<path d="M16 13.25C16.4142 13.25 16.75 13.5858 16.75 14V17C16.75 17.4142 16.4142 17.75 16 17.75C15.5858 17.75 15.25 17.4142 15.25 17V14C15.25 13.5858 15.5858 13.25 16 13.25Z" fill="#607093"/>
<path fill-rule="evenodd" clip-rule="evenodd" d="M21 9.25C21.4142 9.25 21.75 9.58579 21.75 10C21.75 10.4142 21.4142 10.75 21 10.75H20.75V20.25H21C21.4142 20.25 21.75 20.5858 21.75 21C21.75 21.4142 21.4142 21.75 21 21.75H3C2.58579 21.75 2.25 21.4142 2.25 21C2.25 20.5858 2.58579 20.25 3 20.25H3.25V10.75H3C2.58579 10.75 2.25 10.4142 2.25 10C2.25 9.58579 2.58579 9.25 3 9.25H21ZM4.75 20.25H19.25V10.75H4.75V20.25Z" fill="#607093"/>
<path d="M11.7764 2.28418C11.9462 2.23111 12.1308 2.2398 12.2959 2.31055L19.2959 5.31055C19.6764 5.47384 19.8526 5.9153 19.6895 6.2959C19.5262 6.67638 19.0847 6.85257 18.7041 6.68945L12 3.81543L5.2959 6.68945C4.91529 6.85257 4.47383 6.67638 4.31055 6.2959C4.14743 5.9153 4.32362 5.47384 4.7041 5.31055L11.7041 2.31055L11.7764 2.28418Z" fill="#607093"/>
</svg>
