<svg width="24" height="24" viewBox="0 0 24 24" fill="none" xmlns="http://www.w3.org/2000/svg">
<path d="M9 11.25C9.41421 11.25 9.75 11.5858 9.75 12V17C9.75 17.4142 9.41421 17.75 9 17.75C8.58579 17.75 8.25 17.4142 8.25 17V12C8.25 11.5858 8.58579 11.25 9 11.25Z" fill="#607093"/>
<path d="M12 15.25C12.4142 15.25 12.75 15.5858 12.75 16V17C12.75 17.4142 12.4142 17.75 12 17.75C11.5858 17.75 11.25 17.4142 11.25 17V16C11.25 15.5858 11.5858 15.25 12 15.25Z" fill="#607093"/>
<path d="M15 13.25C15.4142 13.25 15.75 13.5858 15.75 14V17C15.75 17.4142 15.4142 17.75 15 17.75C14.5858 17.75 14.25 17.4142 14.25 17V14C14.25 13.5858 14.5858 13.25 15 13.25Z" fill="#607093"/>
<path fill-rule="evenodd" clip-rule="evenodd" d="M14 2.25C14.0481 2.25 14.095 2.25502 14.1406 2.26367C14.1435 2.26422 14.1465 2.26406 14.1494 2.26465C14.1638 2.26756 14.1773 2.27363 14.1914 2.27734C14.2245 2.2861 14.2576 2.29447 14.2891 2.30762C14.3186 2.31994 14.3456 2.3367 14.373 2.35254C14.3876 2.3609 14.403 2.36761 14.417 2.37695C14.4531 2.40116 14.4863 2.42904 14.5176 2.45898C14.5216 2.46281 14.5264 2.46581 14.5303 2.46973L19.5303 7.46973C19.666 7.60545 19.75 7.79289 19.75 8V19C19.75 19.7293 19.4601 20.4286 18.9443 20.9443C18.4286 21.4601 17.7293 21.75 17 21.75H7C6.27065 21.75 5.57139 21.4601 5.05566 20.9443C4.53994 20.4286 4.25 19.7293 4.25 19V5C4.25 4.27065 4.53994 3.57139 5.05566 3.05566C5.57139 2.53994 6.27065 2.25 7 2.25H14ZM7 3.75C6.66848 3.75 6.35063 3.88179 6.11621 4.11621C5.88179 4.35063 5.75 4.66848 5.75 5V19L5.75586 19.124C5.78436 19.41 5.9112 19.6788 6.11621 19.8838C6.35063 20.1182 6.66848 20.25 7 20.25H17C17.3315 20.25 17.6494 20.1182 17.8838 19.8838C18.1182 19.6494 18.25 19.3315 18.25 19V8.75H15C14.5359 8.75 14.0909 8.56549 13.7627 8.2373C13.4345 7.90912 13.25 7.46413 13.25 7V3.75H7ZM14.75 7C14.75 7.0663 14.7764 7.12987 14.8232 7.17676C14.8701 7.22364 14.9337 7.25 15 7.25H17.1895L14.75 4.81055V7Z" fill="#607093"/>
</svg>
