<svg width="24" height="24" viewBox="0 0 24 24" fill="none" xmlns="http://www.w3.org/2000/svg">
<path d="M3 2.25C3.41421 2.25 3.75 2.58579 3.75 3V10.2158C4.73666 10.1321 5.4494 9.88694 6 9.56934C6.68946 9.17157 7.18148 8.63448 7.66406 8.03125C8.12019 7.4611 8.63052 6.73765 9.26953 6.20508C9.95932 5.63026 10.815 5.25 12 5.25C13.185 5.25 14.0407 5.63026 14.7305 6.20508C15.3695 6.73765 15.8798 7.4611 16.3359 8.03125C16.8185 8.63448 17.3105 9.17157 18 9.56934C18.6813 9.96231 19.6103 10.25 21 10.25C21.4142 10.25 21.75 10.5858 21.75 11C21.75 11.4142 21.4142 11.75 21 11.75C19.3899 11.75 18.1937 11.4126 17.25 10.8682C16.3146 10.3284 15.6814 9.61546 15.1641 8.96875C14.6202 8.28896 14.2554 7.76234 13.7695 7.35742C13.3344 6.99483 12.8149 6.75 12 6.75C11.1851 6.75 10.6656 6.99483 10.2305 7.35742C9.74457 7.76234 9.37977 8.28896 8.83594 8.96875C8.31857 9.61546 7.6854 10.3284 6.75 10.8682C5.95906 11.3245 4.99069 11.634 3.75 11.7227V20.25H7.25V16C7.25 15.5858 7.58579 15.25 8 15.25C8.41421 15.25 8.75 15.5858 8.75 16V20.25H11.25V13C11.25 12.5858 11.5858 12.25 12 12.25C12.4142 12.25 12.75 12.5858 12.75 13V20.25H15.25V16C15.25 15.5858 15.5858 15.25 16 15.25C16.4142 15.25 16.75 15.5858 16.75 16V20.25H19.25V18C19.25 17.5858 19.5858 17.25 20 17.25C20.4142 17.25 20.75 17.5858 20.75 18V20.25H21C21.4142 20.25 21.75 20.5858 21.75 21C21.75 21.4142 21.4142 21.75 21 21.75H3C2.58579 21.75 2.25 21.4142 2.25 21V3C2.25 2.58579 2.58579 2.25 3 2.25Z" fill="#607093"/>
</svg>
