<svg xmlns="http://www.w3.org/2000/svg" width="24" height="24" fill="none" viewBox="0 0 24 24">
  <path fill="#607093" fill-rule="evenodd" d="M8.5 5.25a.75.75 0 0 1 0 1.5H4a.25.25 0 0 0-.25.25v13c0 .138.112.25.25.25h1.762c.083 0 .213-.055.312-.219a5.774 5.774 0 0 1 2.447-2.218 3.75 3.75 0 1 1 4.958 0 5.774 5.774 0 0 1 2.447 2.218c.099.164.23.219.312.219H20a.25.25 0 0 0 .25-.25v-7.5a.75.75 0 0 1 1.5 0V20A1.75 1.75 0 0 1 20 21.75h-3.762c-.712 0-1.284-.427-1.596-.943A4.248 4.248 0 0 0 11 18.75a4.248 4.248 0 0 0-3.642 2.057c-.312.516-.884.943-1.596.943H4A1.75 1.75 0 0 1 2.25 20V7c0-.966.784-1.75 1.75-1.75h4.5Zm2.5 7.5a2.25 2.25 0 0 0-.23 4.488l.23.012.23-.012A2.25 2.25 0 0 0 11 12.75Z" clip-rule="evenodd"/>
  <path fill="#607093" fill-rule="evenodd" d="M16.934 2.25c1.019 0 1.816.84 1.816 1.84v.558c.054-.044.112-.086.173-.125l2.675-1.7a.75.75 0 0 1 1.152.631v5.092a.75.75 0 0 1-1.152.632l-2.675-1.701a1.8 1.8 0 0 1-.173-.126v.558c0 1-.797 1.84-1.816 1.841h-3.868c-1.019 0-1.816-.84-1.816-1.84V4.09c0-1 .797-1.84 1.816-1.84h3.868Zm-3.868 1.5a.33.33 0 0 0-.316.34v3.82c0 .203.157.34.316.34h3.868a.33.33 0 0 0 .316-.34V4.09a.33.33 0 0 0-.316-.34h-3.868Zm6.662 2.04a.25.25 0 0 0 0 .42l1.522.969V4.82l-1.521.97Z" clip-rule="evenodd"/>
</svg>
