<svg xmlns="http://www.w3.org/2000/svg" width="24" height="24" fill="none" viewBox="0 0 24 24">
  <path fill="#607093" d="M15 15.25a.75.75 0 0 1 0 1.5H9a.75.75 0 0 1 0-1.5h6Zm0-4a.75.75 0 0 1 0 1.5H9a.75.75 0 0 1 0-1.5h6Zm-5-4a.75.75 0 0 1 0 1.5H9a.75.75 0 0 1 0-1.5h1Z"/>
  <path fill="#607093" fill-rule="evenodd" d="M14 2.25c.199 0 .39.08.53.22l5 5c.14.14.22.331.22.53v11A2.75 2.75 0 0 1 17 21.75H7A2.75 2.75 0 0 1 4.25 19V5A2.75 2.75 0 0 1 7 2.25h7Zm-7 1.5A1.25 1.25 0 0 0 5.75 5v14A1.25 1.25 0 0 0 7 20.25h10A1.25 1.25 0 0 0 18.25 19V8.75H14a.75.75 0 0 1-.75-.75V3.75H7Zm7.75 3.5h2.44l-2.44-2.44v2.44Z" clip-rule="evenodd"/>
</svg>
