<svg xmlns="http://www.w3.org/2000/svg" width="24" height="24" fill="none" viewBox="0 0 24 24">
  <path fill="#607093" d="M17.25 15.5a.75.75 0 0 1 0 1.5H6a.75.75 0 0 1 0-1.5h11.25Z"/>
  <path fill="#607093" fill-rule="evenodd" d="M11 6.25a.75.75 0 0 1 .75.75v6.25A.75.75 0 0 1 11 14H6a.75.75 0 0 1-.75-.75V7A.75.75 0 0 1 6 6.25h5ZM6.75 12.5h3.5V7.75h-3.5v4.75Z" clip-rule="evenodd"/>
  <path fill="#607093" d="M17.25 12.5a.75.75 0 0 1 0 1.5h-2.5a.75.75 0 0 1 0-1.5h2.5Zm0-3a.75.75 0 0 1 0 1.5h-2.5a.75.75 0 0 1 0-1.5h2.5Zm0-3a.75.75 0 0 1 0 1.5h-2.5a.75.75 0 0 1 0-1.5h2.5Z"/>
  <path fill="#607093" fill-rule="evenodd" d="M19 3.25A2.75 2.75 0 0 1 21.75 6v12A2.75 2.75 0 0 1 19 20.75H5A2.75 2.75 0 0 1 2.25 18V6A2.75 2.75 0 0 1 5 3.25h14ZM5 4.75c-.69 0-1.25.56-1.25 1.25v12c0 .69.56 1.25 1.25 1.25h14c.69 0 1.25-.56 1.25-1.25V6c0-.69-.56-1.25-1.25-1.25H5Z" clip-rule="evenodd"/>
</svg>
