<svg xmlns="http://www.w3.org/2000/svg" width="24" height="24" fill="none" viewBox="0 0 24 24">
  <path fill="#607093" fill-rule="evenodd" d="M8.5 5.25a.75.75 0 0 1 .67.415l2.5 5a.75.75 0 0 1-1.34.67l-.294-.585H6.964l-.293.585a.75.75 0 0 1-1.342-.67l2.5-5A.75.75 0 0 1 8.5 5.25Zm-.786 4h1.572L8.5 7.677 7.714 9.25Z" clip-rule="evenodd"/>
  <path fill="#607093" fill-rule="evenodd" d="M12 2.25A2.75 2.75 0 0 1 14.75 5v4.45H19l.281.015A2.75 2.75 0 0 1 21.75 12.2V19a2.75 2.75 0 0 1-2.469 2.735L19 21.75h-6.8A2.75 2.75 0 0 1 9.45 19v-4.25H5A2.75 2.75 0 0 1 2.25 12V5A2.75 2.75 0 0 1 5 2.25h7ZM14.75 12c0 .084-.005.168-.013.25H17a.75.75 0 0 1 .644 1.136l-2.319 3.864H17a.75.75 0 0 1 0 1.5h-3a.75.75 0 0 1-.644-1.136l2.319-3.864H14.12c-.504.61-1.267 1-2.121 1h-1.05V19c0 .69.56 1.25 1.25 1.25H19l.128-.007A1.25 1.25 0 0 0 20.25 19v-6.8a1.25 1.25 0 0 0-1.122-1.243L19 10.95h-4.25V12ZM5 3.75c-.69 0-1.25.56-1.25 1.25v7c0 .69.56 1.25 1.25 1.25h7c.69 0 1.25-.56 1.25-1.25V5c0-.69-.56-1.25-1.25-1.25H5Z" clip-rule="evenodd"/>
</svg>
