<svg width="101" height="76" viewBox="0 0 101 76" fill="none" xmlns="http://www.w3.org/2000/svg">
<g clip-path="url(#clip0_7798_65231)">
<path d="M100.095 32.7041H64.1523V23.5044H100.095V32.7041Z" fill="#E669A2"/>
<path d="M95.4264 32.704H64.1523V9.69482H95.4264V32.704Z" fill="#F3BE26"/>
<path d="M82.5056 32.7041H64.1523V0.5H82.5056V32.7041Z" fill="#EE9C34"/>
<path d="M86.1163 32.7041H64.1523V4.09351H86.1163V32.7041Z" fill="#F3BC87"/>
<path d="M64.1475 4.09888V32.7011H82.5038V4.09888H64.1475Z" fill="#E3721C"/>
<path d="M45.749 32.7041H64.1531V37.3044H45.749V32.7041Z" fill="#AD1B02"/>
<path d="M64.1475 9.6897V32.7011H86.127V9.6897H64.1475Z" fill="#E88D14"/>
<path d="M64.1475 9.6897V32.7011H82.5038V9.6897H64.1475Z" fill="#D85604"/>
<path d="M75.6296 32.7041H64.1523V18.8936H75.6296V32.7041Z" fill="#C14303"/>
<path d="M64.1475 23.511V32.7011H95.4372V23.511H64.1475Z" fill="#DB4E18"/>
<path d="M64.1475 23.511V32.7011H86.127V23.511H64.1475Z" fill="#D1390D"/>
<path d="M64.1475 23.511V32.7011H82.5038V23.511H64.1475Z" fill="#C22303"/>
<path d="M64.1475 23.511V32.7011H75.6411V23.511H64.1475Z" fill="#AD1B02"/>
<path d="M68.1546 50.031C65.0232 50.5877 63.3531 52.9537 63.3531 57.0594C63.3531 61.2347 65.5799 64.0182 68.8505 64.0182C70.451 64.0182 71.8428 63.4615 74.7655 62.0001C74.7655 65.4099 74.7655 65.4099 74.7655 65.4099C71.2165 67.0801 69.1289 67.4976 66.3454 67.4976C63.2139 67.4976 60.9871 66.7321 59.2474 64.8532C57.4381 63.0439 56.4639 60.678 56.4639 57.964C56.4639 52.0491 60.9175 47.9434 67.3892 47.9434C71.634 47.9434 74.6263 49.9614 74.6263 52.8145C74.6263 54.6934 73.2346 56.0156 71.2165 56.0156C70.1727 56.0156 69.3376 55.6676 68.1546 55.0413" fill="black"/>
<path d="M52.4973 57.964C55.3504 54.415 56.3942 52.9537 56.3942 51.214C56.3942 49.4743 55.0025 47.9434 53.054 47.9434C51.9406 47.9434 50.8968 48.5697 50.4097 49.1264C50.4097 56.4331 50.4097 56.4331 50.4097 56.4331C45.7473 62.696 45.7473 62.696 45.7473 62.696C45.7473 48.5001 45.7473 48.5001 45.7473 48.5001C41.2936 48.5001 41.2936 48.5001 41.2936 48.5001C33.9173 60.678 33.9173 60.678 33.9173 60.678C33.9173 48.5001 33.9173 48.5001 33.9173 48.5001C31.4121 48.5001 31.4121 48.5001 31.4121 48.5001C24.6621 50.031 24.6621 50.031 24.6621 50.031C24.6621 51.7707 24.6621 51.7707 24.6621 51.7707C28.3503 52.1186 28.3503 52.1186 28.3503 52.1186C28.3503 67.2192 28.3503 67.2192 28.3503 67.2192C33.0127 67.2192 33.0127 67.2192 33.0127 67.2192C40.1106 55.5284 40.1106 55.5284 40.1106 55.5284C40.1106 67.2192 40.1106 67.2192 40.1106 67.2192C45.3297 67.2192 45.3297 67.2192 45.3297 67.2192" fill="black"/>
<path d="M10.5355 64.8532C11.0922 64.8532 11.2314 64.8532 11.5793 64.8532C15.337 64.8532 17.4247 62.5568 17.4247 57.964C17.4247 54.1367 15.7546 52.049 12.6231 52.049C12.2056 52.049 11.5793 52.1186 10.5355 52.3274V64.8532ZM10.5355 73.0646C13.5973 73.7605 13.5973 73.7605 13.5973 73.7605C13.5973 75.5002 13.5973 75.5002 13.5973 75.5002C1.55862 75.5002 1.55863 75.5002 1.55863 75.5002C1.55863 73.7605 1.55863 73.7605 1.55863 73.7605C4.34215 73.0646 4.34214 73.0646 4.34214 73.0646C4.34214 52.049 4.34214 52.049 4.34214 52.049C1.28027 52.049 1.28027 52.049 1.28027 52.049C1.28027 50.3093 1.28027 50.3093 1.28027 50.3093C8.58701 48.0825 8.58701 48.0825 8.58701 48.0825C10.5355 48.0825 10.5355 48.0825 10.5355 48.0825C10.5355 50.5877 10.5355 50.5877 10.5355 50.5877C13.9453 48.5 15.1283 48.1521 16.9376 48.1521C20.9737 48.1521 24.0355 51.9099 24.0355 57.129C24.0355 63.1135 19.9298 67.2192 13.6669 67.2192C12.9711 67.2192 11.7881 67.1496 10.5355 67.08" fill="black"/>
</g>
<defs>
<clipPath id="clip0_7798_65231">
<rect width="100" height="75" fill="white" transform="translate(0.28125 0.5)"/>
</clipPath>
</defs>
</svg>
