<svg width="103" height="86" viewBox="0 0 103 86" fill="none" xmlns="http://www.w3.org/2000/svg">
<g clip-path="url(#clip0_7798_65266)">
<mask id="mask0_7798_65266" style="mask-type:luminance" maskUnits="userSpaceOnUse" x="0" y="27" width="103" height="32">
<path d="M0.327148 27.5H102.327V58.3969H0.327148V27.5Z" fill="white"/>
</mask>
<g mask="url(#mask0_7798_65266)">
<path d="M38.235 38.4549C38.235 40.9007 36.7756 42.1977 34.7371 42.1977C33.8327 42.1977 32.8073 41.9928 32.0115 41.6289L31.8668 38.7052L32.0115 38.6483C32.9764 41.0031 34.0377 41.8562 35.0749 41.8562C36.1605 41.8562 36.8118 40.8553 36.8118 39.5016C36.8118 37.5904 35.5332 36.4528 34.2669 35.2355C33.0606 34.0752 31.8787 32.6873 31.8787 30.8331C31.8668 28.6376 33.4587 27.5 35.2799 27.5C35.9553 27.5 36.7152 27.6821 37.2941 28.0233L37.4389 30.9128L37.3063 30.947C36.45 28.6376 35.7865 27.8527 34.7011 27.8527C33.9291 27.8527 33.1813 28.4328 33.1813 29.6842C33.1813 31.5158 34.4719 32.5737 35.7384 33.7909C37.0047 34.9513 38.235 36.2822 38.235 38.4549ZM68.5443 30.8331C68.5443 28.6376 70.1364 27.5 71.9576 27.5C72.633 27.5 73.3929 27.6821 73.9716 28.0233L74.1164 30.9128L73.9838 30.947C73.1275 28.6376 72.464 27.8527 71.3665 27.8527C70.5947 27.8527 69.8469 28.4328 69.8469 29.6842C69.8469 31.5158 71.1375 32.5737 72.4037 33.7909C73.6702 34.9513 74.9003 36.2822 74.9003 38.4549C74.9003 40.9007 73.441 42.1977 71.3905 42.1977C70.4862 42.1977 69.4608 41.9928 68.665 41.6289L68.5202 38.7052L68.665 38.6483C69.6298 41.0031 70.6911 41.8562 71.7405 41.8562C72.8258 41.8562 73.4772 40.8553 73.4772 39.5016C73.4772 37.5904 72.2109 36.4528 70.9444 35.2355C69.7262 34.0752 68.5443 32.6873 68.5443 30.8331ZM81.9801 41.8679C82.3662 40.7301 82.4867 40.0704 82.4867 38.5346V30.3782L79.7368 41.4923H79.4473L76.6853 30.3212L76.7215 38.3298C76.7215 39.9452 76.9508 40.6277 77.6623 41.8792V41.9132H75.6602V41.8792C76.1668 40.6277 76.3116 39.968 76.3116 38.3298V31.1631C76.2875 29.4794 76.1668 28.8651 75.6843 27.83V27.7843H77.9156L80.3398 37.7383L82.7762 27.7843H85.1402V27.8187C84.6457 28.8651 84.3441 29.5134 84.3441 31.1973V38.5346C84.3441 40.0816 84.4648 40.7301 84.8749 41.8677V41.9019H81.9801V41.8679ZM87.5284 37.6131C86.9735 39.8086 87.3715 41.1852 87.6731 41.8792V41.9132H85.5865V41.8792C86.1774 40.9919 86.5031 39.968 86.889 38.4437L89.4339 27.6821H89.9405L92.5215 38.6028C92.9317 40.2183 93.2572 41.1283 93.7276 41.8792V41.9132H90.5435V41.8792C90.8934 41.208 90.9777 39.9452 90.5797 38.3865L88.9634 31.2313L87.5284 37.6131ZM95.2714 30.1051L95.3316 38.3185C95.3559 39.9338 95.5126 40.6164 96.2122 41.8677V41.9019H94.2704V41.8677C94.777 40.6162 94.9217 39.9565 94.9217 38.3185V30.1959C94.8615 29.1719 94.6925 28.6941 94.2825 27.8183V27.7841H96.1639L101.302 37.6244L101.266 31.3789C101.242 29.7635 101.085 29.081 100.385 27.8297V27.7841H102.327V27.8185C101.821 29.0697 101.676 29.7295 101.676 31.3677V41.9017L101.435 41.9584L95.2714 30.1049V30.1051ZM1.32821 30.1051L1.38843 38.3185C1.41272 39.9338 1.56936 40.6164 2.26903 41.8677V41.9019H0.327148V41.8677C0.833748 40.6162 0.978491 39.9565 0.978491 38.3185V30.1959C0.91802 29.1722 0.749234 28.6943 0.339291 27.8185V27.7843H2.22071L7.35859 37.6246L7.32265 31.3791C7.29836 29.7637 7.14172 29.0812 6.44205 27.83V27.7843H8.38393V27.8187C7.87733 29.07 7.73259 29.7297 7.73259 31.3679V41.9019L7.49143 41.9586L1.32821 30.1051Z" fill="black"/>
<path d="M91.1583 37.2265H87.516V36.8735H91.1583V37.2265ZM46.8823 37.6132C46.3276 39.8086 46.7135 41.1853 47.0271 41.8792V41.9132H44.9404V41.8792C45.5315 40.9919 45.8572 39.968 46.2553 38.4437L48.8002 27.6821H49.3065L51.8876 38.6029C52.2978 40.2183 52.6235 41.1283 53.0939 41.8792V41.9132H49.8976V41.8792C50.2473 41.208 50.3319 39.9453 49.9338 38.3865L48.3176 31.2313L46.8823 37.6132Z" fill="black"/>
<path d="M50.3444 37.2263H46.6901V36.8734H50.3444V37.2263ZM9.30102 41.8678C9.67478 40.7527 9.83142 40.0588 9.83142 38.6824V30.9921C9.83142 29.6387 9.66264 28.9447 9.30078 27.8299V27.7842H15.6811L15.9828 30.5599L15.8621 30.6054C15.1626 29.4111 14.258 28.1484 13.6428 28.1484H11.689V34.4049H12.6658C13.3172 34.4049 14.1132 33.4266 14.3787 32.8009H14.5232V36.3728H14.3784C14.0892 35.6788 13.3172 34.7803 12.6658 34.7803H11.689V41.5489H13.8359C14.8729 41.5489 15.5364 40.1155 16.2722 38.648L16.417 38.7049L16.2601 41.9128H9.30078V41.8674L9.30102 41.8678ZM23.3882 30.8899L20.7588 42.027H20.2643L17.9125 31.106C17.5868 29.5475 17.2731 28.5805 16.7665 27.8299V27.7842H19.9144V27.8186C19.4078 28.5351 19.444 29.7636 19.7937 31.3108L21.3135 38.1706L23.1827 30.0823L23.3882 30.8899Z" fill="black"/>
<path d="M22.8693 31.106C22.4834 29.5475 22.1577 28.5805 21.6994 27.8299V27.7842H24.7871V27.8186C24.2805 28.5351 24.3769 29.7521 24.7628 31.3108L26.3912 38.1818L27.5972 32.0275C28.0676 29.8093 27.7782 28.5123 27.3077 27.8184V27.7842H29.3341V27.8186C28.7671 28.6717 28.4776 29.7636 28.1279 31.3905L25.9691 42.0155H25.4744L22.8693 31.106ZM54.4451 41.9131V41.8791C54.8553 40.7415 54.9757 40.0815 54.9757 38.5458V28.1596H54.252C53.5526 28.1596 52.841 29.7636 52.1775 30.9469L52.0571 30.9127L52.1897 27.7842H59.6192L59.776 30.9127L59.6553 30.9469C58.9921 29.7523 58.2684 28.1596 57.5808 28.1596H56.8574V38.5343C56.8574 40.0815 56.9778 40.73 57.388 41.8676V41.9018H54.4451V41.9133V41.9131ZM40.7557 41.9131V41.8791C41.1659 40.7415 41.2864 40.0815 41.2864 38.5458V28.1596H40.5629C39.8632 28.1596 39.1516 29.7636 38.4884 30.9469L38.3677 30.9127L38.5246 27.7842H45.9541L46.111 30.9127L45.9902 30.9469C45.327 29.7523 44.6033 28.1596 43.9158 28.1596H43.1921V38.5343C43.1921 40.0815 43.3127 40.73 43.7227 41.8676V41.9018H40.7557V41.9133V41.9131ZM60.5721 41.8678C60.9459 40.7527 61.1028 40.0588 61.1028 38.6824V30.9921C61.1028 29.6387 60.934 28.9447 60.5721 27.8299V27.7842H66.9525L67.2538 30.5599L67.1332 30.6054C66.4459 29.3999 65.5412 28.1369 64.9261 28.1369H62.9723V34.3936H63.949C64.6004 34.3936 65.3965 33.4154 65.6619 32.7896H65.8067V36.373H65.6619C65.3724 35.6791 64.6004 34.7805 63.949 34.7805H62.9723V41.5491H65.1191C66.1564 41.5491 66.8196 40.1158 67.5555 38.6482L67.7002 38.7051L67.5312 41.9131H60.584V41.8676L60.5721 41.8678ZM6.98496 58.101H9.89172V58.0668C9.48153 56.9292 9.36108 56.2695 9.36108 54.7337V47.4076C9.36108 45.7355 9.50582 45.0755 10.0003 44.0403V43.9949H7.78105L5.18782 53.9374L2.59483 43.9949H0.363463V44.0291C0.85792 45.0643 0.97862 45.69 1.00266 47.3622V54.5177C1.00266 56.1558 0.85792 56.8156 0.351562 58.0668V58.101H2.35368V58.0668C1.64211 56.8156 1.41285 56.1444 1.41285 54.5177L1.37642 46.5204L4.29556 57.6801H4.59671L7.50371 46.5773V54.7337C7.50371 56.2808 7.38301 56.9292 6.99711 58.0668V58.101H6.98496ZM11.2425 58.101H18.1897L18.7203 54.5973L18.5756 54.5404C17.8761 55.8371 16.7544 57.6574 15.7774 57.7256L13.6305 57.8053V50.9798H14.6075C15.2589 50.9798 15.9826 52.0377 16.3201 52.5837H16.4649V49.0231H16.3201C15.9583 49.6261 15.2589 50.6385 14.6075 50.6385H13.6305V44.3134L15.6086 44.3931C16.2237 44.45 17.2008 46.0312 17.8761 46.8388L17.9966 46.7819L17.6107 44.0064H11.2425V44.0403C11.6165 45.1552 11.7731 45.8491 11.7731 47.2028V54.8931C11.7731 56.258 11.6043 56.952 11.2425 58.0783V58.101ZM19.4559 58.101H22.7488C26.1017 58.101 28.3933 55.5528 28.3933 50.991C28.3933 46.4294 26.0053 43.9152 22.7488 43.9152C21.0362 43.9152 20.9879 43.9949 19.4562 43.9949V44.0291C19.8661 45.0528 19.9868 45.6331 19.9868 47.0209V55.075C19.9868 56.4629 19.8661 57.0431 19.4562 58.0668L19.4559 58.101ZM26.355 51.264C26.355 55.4277 25.149 57.7598 22.7126 57.7598H21.832V44.3021C22.0975 44.2679 22.3386 44.2679 22.6643 44.2679C24.9438 44.2679 26.355 46.5203 26.355 51.264ZM29.322 58.101H32.2409V58.0668C31.8307 56.9292 31.71 56.2695 31.71 54.7337V47.3734C31.71 45.8152 31.8307 45.1782 32.2409 44.0403V43.9949H29.322V44.0291C29.7322 45.1667 29.8526 45.8037 29.8526 47.3622V54.7223C29.8526 56.2695 29.7322 56.918 29.322 58.0556V58.101ZM34.9786 58.101V58.0668C34.677 57.3729 34.2792 56.0077 34.8339 53.8122L35.0388 52.9592H37.8009L38.2111 54.5744C38.597 56.1329 38.5124 57.3844 38.1749 58.0668V58.101H41.359V58.0668C40.8885 57.3162 40.5629 56.4059 40.1527 54.7907L37.415 43.881H36.9084L34.2068 54.6313C33.8207 56.1558 33.495 57.1795 32.9041 58.0668V58.101H34.9786ZM35.1474 52.6179L36.4379 47.4306L37.7285 52.6179H35.1474ZM52.1775 56.4856V54.8134C52.1775 53.3913 52.2982 52.7658 52.7084 51.6964V51.6622H49.8497V51.6964C50.3201 52.868 50.5011 53.6189 50.5011 54.8019C50.477 57.0998 49.7414 58.0556 48.5835 58.0556C46.6175 58.0556 45.93 55.2571 45.93 51.1389C45.93 47.0322 46.8104 44.0631 48.8125 44.0631C49.8497 44.0631 50.5734 44.9164 51.8761 46.9755L51.9968 46.9185L51.8159 44.3703C51.1765 44.0858 50.4408 43.7106 49.1986 43.7106C45.906 43.7106 43.9039 46.9867 43.9039 51.1276C43.9039 55.2683 45.5198 58.3968 48.5232 58.3968C50.6701 58.3968 51.7074 57.0431 52.1775 56.4856ZM56.4712 58.0668C56.0613 56.9292 55.9406 56.2695 55.9406 54.7337V51.0365H57.0021L59.2694 58.1123H61.6577V58.0783C61.1511 57.464 60.8616 56.861 60.4152 55.4619L58.8474 50.6043C60.1379 49.9673 60.7047 48.7955 60.7047 47.3622C60.7047 45.3373 59.5589 44.0064 57.0502 44.0064H53.5526V44.0403C53.9628 45.1779 54.0832 45.8152 54.0832 47.3734V54.734C54.0832 56.281 53.9628 56.9295 53.5526 58.067V58.1013H56.4712V58.067V58.0668ZM56.7367 44.3476C58.3529 44.3476 58.799 45.5991 58.799 47.3964C58.799 49.0686 58.4131 50.6952 56.8212 50.6952H55.9406V44.3703C56.2544 44.3474 56.5317 44.3474 56.7367 44.3474V44.3476ZM66.3252 58.3968C69.027 58.3968 71.041 55.1774 71.041 51.0707C71.041 46.964 69.0148 43.7106 66.3252 43.7106C63.6236 43.7106 61.6696 46.964 61.6696 51.0707C61.6696 55.1774 63.6236 58.3968 66.3252 58.3968ZM66.3252 58.0441C64.4678 58.0441 63.7079 55.075 63.7079 51.0707C63.7079 47.0664 64.4678 44.0518 66.3252 44.0518C68.2068 44.0518 69.0027 47.0437 69.0027 51.0707C69.0027 55.0977 68.2068 58.0441 66.3252 58.0441ZM75.962 58.3968C78.4586 58.3968 79.2668 56.7928 79.2668 54.7565V47.6012C79.2668 45.963 79.5079 45.2918 80.2678 44.0403L80.2317 44.0064H77.8796V44.0403C78.6757 45.2689 78.9049 45.963 78.9049 47.5897V54.8362C78.9049 56.4743 78.3138 57.9189 76.5167 57.9189C75.1899 57.9189 74.2734 57.1683 74.2734 55.0522V47.3849C74.2734 45.8264 74.4422 45.0528 74.804 44.0518V43.9949H71.8854V44.0291C72.2953 45.1667 72.416 45.8037 72.416 47.3622V54.9953C72.416 57.4071 74.0201 58.3968 75.962 58.3968ZM83.874 58.0668C83.4519 56.9292 83.3434 56.2695 83.3434 54.7337V51.9352H84.1392C86.6722 51.9352 88.1435 50.024 88.1435 47.6352C88.1435 45.5876 87.0581 43.9949 84.3806 43.9949H80.9432V44.0291C81.3532 45.1667 81.4739 45.8037 81.4739 47.3622V54.7223C81.4739 56.2695 81.3532 56.918 80.9432 58.0556V58.0895H83.8619V58.0668H83.874ZM83.9945 44.3476C85.3574 44.3476 86.238 45.3715 86.238 47.6807C86.238 49.6031 85.6228 51.594 83.9464 51.594H83.3312V44.3703C83.5484 44.3474 83.7533 44.3474 83.9945 44.3474V44.3476Z" fill="black"/>
</g>
</g>
<defs>
<clipPath id="clip0_7798_65266">
<rect width="102" height="31" fill="white" transform="translate(0.327148 27.5)"/>
</clipPath>
</defs>
</svg>
