<svg width="161" height="82" viewBox="0 0 161 82" fill="none" xmlns="http://www.w3.org/2000/svg">
<g clip-path="url(#clip0_7798_65268)">
<path d="M18.4116 34.7984L15.9041 37.2707C14.5026 35.6759 12.4848 34.7646 10.3656 34.7562C8.6433 34.714 6.97162 35.3721 5.74741 36.5788C4.53164 37.7348 3.86466 39.3464 3.88998 41.0171C3.85621 42.7469 4.55697 44.4176 5.81495 45.6074C7.08137 46.8562 8.80371 47.5313 10.5851 47.4891C11.6743 47.5228 12.7465 47.2612 13.6921 46.7128C14.5955 46.1221 15.3047 45.2783 15.7353 44.2911H10.3234V40.9496H19.7203L19.7456 41.7344C19.7456 43.3629 19.3066 44.9661 18.4792 46.3753C17.7024 47.7675 16.5711 48.9235 15.1949 49.7251C13.7428 50.5183 12.1133 50.9233 10.4585 50.8811C8.65174 50.9149 6.86186 50.4761 5.27461 49.6154C3.7549 48.7801 2.50536 47.5313 1.66952 46.0209C0.783024 44.4936 0.327111 42.7554 0.327111 40.9918C0.29334 38.6123 1.17139 36.3088 2.77553 34.5452C4.68361 32.3851 7.4613 31.1869 10.3487 31.2882C11.9107 31.2797 13.4641 31.5835 14.9079 32.191C16.2503 32.807 17.4407 33.7014 18.4116 34.8068" fill="black"/>
<path d="M22.9879 31.7523H26.7619C28.2563 31.6764 29.7506 31.862 31.169 32.3177C32.0555 32.6805 32.8069 33.3218 33.3051 34.1487C33.8454 35.06 34.1156 36.1148 34.0818 37.178C34.124 38.3424 33.761 39.49 33.0602 40.4266C32.351 41.3041 31.3801 41.937 30.2825 42.2323C29.0499 42.477 27.7919 42.5783 26.5339 42.5276V50.434H22.9795V31.7523H22.9879ZM26.5424 39.0512H27.6737C28.2985 39.0849 28.9232 39.0174 29.5227 38.8571C29.8604 38.739 30.1475 38.5196 30.3416 38.2243C30.5443 37.9121 30.654 37.5408 30.6371 37.1611C30.6794 36.5198 30.3501 35.9038 29.8013 35.5832C29.0921 35.2794 28.3154 35.1529 27.5386 35.2119H26.5339V39.0428L26.5424 39.0512Z" fill="black"/>
<path d="M35.1373 46.8054C35.6692 46.797 36.1758 47.0079 36.5472 47.3792C36.9272 47.742 37.1382 48.2568 37.1298 48.7799C37.1298 49.8768 36.2349 50.7713 35.1373 50.7713C34.0397 50.7713 33.1448 49.8768 33.1448 48.7799C33.1363 48.2483 33.3474 47.742 33.7273 47.3792C34.0988 46.9995 34.6054 46.797 35.1373 46.8054Z" fill="black"/>
<path d="M42.2373 50.4167V31.752H45.1754C46.4334 31.7098 47.6829 31.8195 48.9156 32.081C49.9625 32.3342 50.8912 32.908 51.5835 33.7264C52.2421 34.528 52.5967 35.5322 52.5798 36.57C52.5882 37.2451 52.4362 37.9032 52.1323 38.5023C51.7693 39.1521 51.2711 39.709 50.6632 40.1309C51.6595 40.5528 52.5207 41.2447 53.1539 42.1307C53.6942 42.9745 53.9644 43.9617 53.9391 44.9658C53.9475 45.9784 53.6689 46.974 53.1286 47.8347C52.622 48.6616 51.8959 49.3367 51.0347 49.767C49.9203 50.248 48.7045 50.4674 47.4887 50.4083H42.2542L42.2373 50.4167ZM45.7917 35.144V39.0761H46.5685C47.2608 39.1267 47.9447 38.9327 48.5019 38.5276C48.924 38.1564 49.1604 37.6079 49.1351 37.0426C49.1604 36.511 48.9409 35.9963 48.5357 35.6503C48.0122 35.2706 47.3621 35.085 46.712 35.1356H45.7917V35.144ZM45.7917 42.2572V47.0415H46.6782C47.7083 47.1428 48.7383 46.9487 49.667 46.4846C50.182 46.1049 50.4691 45.4974 50.4353 44.8646C50.4606 44.122 50.1229 43.4132 49.5319 42.9576C48.6285 42.4175 47.5816 42.1728 46.5263 42.2572H45.7917Z" fill="black"/>
<path d="M56.3372 36.6123H59.841V43.2614C59.7988 44.1727 59.8832 45.0756 60.1111 45.9616C60.2631 46.4341 60.5671 46.8476 60.9723 47.1344C61.4029 47.4213 61.9095 47.5732 62.4329 47.5563C62.9564 47.5732 63.4629 47.4298 63.902 47.1429C64.3241 46.8476 64.6365 46.4172 64.7969 45.9278C64.9827 45.0925 65.0586 44.2318 65.0164 43.3796V36.6123H68.478V42.4598C68.5793 44.1305 68.3851 45.8013 67.9039 47.4045C67.4902 48.4255 66.7725 49.2946 65.8438 49.8937C64.7969 50.5096 63.598 50.8134 62.3907 50.7628C61.0905 50.8218 59.7988 50.4674 58.7181 49.7502C57.764 49.0499 57.0717 48.0542 56.7425 46.9235C56.4047 45.43 56.2697 43.8858 56.3372 42.3586V36.6123Z" fill="black"/>
<path d="M75.097 31.2881H71.627V50.4254H75.097V31.2881Z" fill="black"/>
<path d="M81.345 31.2881H77.875V50.4254H81.345V31.2881Z" fill="black"/>
<path d="M84.9665 31.2456H88.4111V37.9707C89.019 37.4306 89.7113 36.9834 90.4543 36.6543C91.1128 36.3675 91.822 36.2156 92.5397 36.2156C93.8399 36.1903 95.0978 36.705 96.0012 37.6331C96.8708 38.6288 97.3014 39.9283 97.2086 41.253V50.3745H93.7892V44.3245C93.8314 43.236 93.7554 42.1475 93.5612 41.0758C93.4515 40.578 93.1729 40.1308 92.7761 39.8101C92.3793 39.5233 91.898 39.3714 91.4083 39.3882C90.7413 39.3798 90.0912 39.6245 89.6016 40.0886C89.0697 40.6033 88.7066 41.2699 88.5547 41.9956C88.4196 42.9406 88.3689 43.8857 88.4027 44.8392V50.3829H84.958V31.2456H84.9665Z" fill="black"/>
<path d="M106.639 36.2241C107.931 36.2241 109.197 36.5616 110.312 37.2029C112.574 38.4771 113.976 40.8734 113.959 43.4723C113.959 44.7549 113.63 46.0122 112.988 47.126C112.363 48.2398 111.452 49.1511 110.346 49.7839C109.223 50.4252 107.948 50.7543 106.648 50.7459C104.74 50.7796 102.899 50.0118 101.573 48.6364C100.197 47.2863 99.4374 45.4299 99.4712 43.5061C99.429 41.4472 100.299 39.4727 101.844 38.1142C103.135 36.8992 104.849 36.2241 106.631 36.2326M106.69 39.4896C105.677 39.4643 104.697 39.8693 103.997 40.6119C103.27 41.3882 102.882 42.426 102.924 43.4892C102.874 44.5608 103.262 45.6156 103.988 46.4087C104.68 47.1513 105.66 47.5563 106.681 47.5226C107.703 47.5479 108.691 47.1344 109.392 46.3919C110.126 45.6071 110.514 44.5608 110.472 43.4892C110.514 42.426 110.134 41.3882 109.408 40.6034C108.699 39.8609 107.711 39.4643 106.69 39.4896Z" fill="black"/>
<path d="M116.331 36.5703H119.835V43.2194C119.793 44.1307 119.877 45.0336 120.105 45.9196C120.257 46.3921 120.561 46.8056 120.966 47.0925C121.397 47.3793 121.904 47.5312 122.427 47.5144C122.951 47.5312 123.457 47.3878 123.896 47.1009C124.318 46.8056 124.631 46.3752 124.791 45.8858C124.977 45.0505 125.053 44.1898 125.011 43.3376V36.5703H128.472V42.4178C128.573 44.0885 128.379 45.7593 127.898 47.3625C127.484 48.3835 126.767 49.2526 125.838 49.8517C124.791 50.4676 123.592 50.7714 122.385 50.7208C121.085 50.7799 119.793 50.4255 118.712 49.7082C117.758 49.0079 117.066 48.0122 116.737 46.8815C116.399 45.388 116.264 43.8438 116.331 42.3166V36.5703Z" fill="black"/>
<path d="M131.352 36.5701H134.813V37.9877C135.446 37.4224 136.172 36.9583 136.949 36.6039C137.574 36.3507 138.232 36.2157 138.908 36.2157C140.217 36.1904 141.483 36.7136 142.395 37.6502C143.264 38.6459 143.695 39.9369 143.602 41.2532V50.3746H140.174V44.333C140.217 43.2361 140.141 42.1307 139.955 41.0507C139.845 40.5613 139.566 40.1309 139.187 39.8187C138.79 39.5318 138.317 39.38 137.827 39.3968C137.16 39.3884 136.51 39.6415 136.02 40.0972C135.489 40.6288 135.117 41.3038 134.974 42.0464C134.838 42.9745 134.788 43.9111 134.822 44.8478V50.3831H131.36V36.5701H131.352Z" fill="black"/>
<path d="M156.866 31.1108H160.336V50.2481H156.866V48.7884C156.275 49.3706 155.591 49.8431 154.831 50.1806C154.13 50.4675 153.379 50.611 152.619 50.6025C150.846 50.6025 149.166 49.8516 147.992 48.5268C146.684 47.1345 145.983 45.2782 146.042 43.3712C145.966 41.4473 146.641 39.5657 147.933 38.1312C149.09 36.8149 150.77 36.0639 152.526 36.0892C153.328 36.0892 154.122 36.2411 154.856 36.5618C155.616 36.8993 156.3 37.3718 156.874 37.9709V31.1108H156.866ZM153.218 39.2788C152.205 39.2535 151.234 39.6669 150.542 40.4179C149.816 41.2111 149.436 42.2574 149.478 43.329C149.436 44.4175 149.824 45.4723 150.559 46.2739C151.234 47.0248 152.214 47.4467 153.218 47.4299C154.24 47.4552 155.228 47.0417 155.928 46.2907C156.663 45.4807 157.051 44.4091 157.001 43.3121C157.043 42.2321 156.663 41.1858 155.928 40.3926C155.219 39.6501 154.231 39.245 153.21 39.2788" fill="black"/>
</g>
<defs>
<clipPath id="clip0_7798_65268">
<rect width="160" height="19.7786" fill="white" transform="translate(0.327148 31.1108)"/>
</clipPath>
</defs>
</svg>
