<svg width="136" height="82" viewBox="0 0 136 82" fill="none" xmlns="http://www.w3.org/2000/svg">
<path fill-rule="evenodd" clip-rule="evenodd" d="M20.0721 22.7332H15.7901L15.5961 23.1932L0.764148 58.5082L0.327148 59.5502H5.16015L5.35215 59.0882L9.44815 49.2342H26.8111L30.9081 59.0882L31.1001 59.5492H36.0351L35.5971 58.5102L20.7631 23.1922L20.5711 22.7332H20.0721ZM18.1301 28.4342L24.9511 44.8052H11.3091L18.1301 28.4342ZM53.0591 26.8502H62.6771C65.4221 26.8502 67.5272 27.3902 68.9342 28.4542C70.2962 29.4812 70.9581 30.9732 70.9581 33.0132C70.9581 35.0762 70.2971 36.5932 68.9371 37.6572C67.5411 38.7472 65.4352 39.3012 62.6771 39.3012H53.0591V26.8502ZM62.9651 43.6002C64.8212 43.5802 66.5191 43.3422 68.0152 42.8882C69.5992 42.4072 70.9701 41.7042 72.0911 40.7982C73.2169 39.8933 74.1172 38.7393 74.7211 37.4272C75.3291 36.1142 75.6361 34.6292 75.6361 33.0132C75.6361 31.3522 75.3432 29.8452 74.7652 28.5362C74.1911 27.2247 73.3079 26.0719 72.1911 25.1762C71.0841 24.2862 69.7101 23.6002 68.1071 23.1352C66.5322 22.6802 64.7141 22.4502 62.7021 22.4502H48.4811V59.2652H53.0591V43.6002H57.3581L70.3011 58.9982L70.5261 59.2652H76.3352L75.2802 58.0292L62.9651 43.6002Z" fill="#17184B"/>
<path fill-rule="evenodd" clip-rule="evenodd" d="M94.1815 22.4502H90.3535V59.2662H94.9315V22.4502H94.1815Z" fill="#17184B"/>
<path fill-rule="evenodd" clip-rule="evenodd" d="M122.148 42.2644L121.566 41.5444L120.983 42.2624L108.144 58.0424L107.148 59.2664H112.61L112.835 58.9944L121.522 48.4714L130.152 58.9934L130.377 59.2664H135.915L134.925 58.0444L122.148 42.2644Z" fill="#2687F2"/>
<path fill-rule="evenodd" clip-rule="evenodd" d="M120.942 38.7832L121.512 39.4582L122.086 38.7852L134.946 23.6872L136.001 22.4502H130.505L130.282 22.7042L121.56 32.6042L112.935 22.7072L112.71 22.4502H107.143L108.185 23.6832L120.942 38.7832Z" fill="#2687F2"/>
</svg>
