<svg width="87" height="86" viewBox="0 0 87 86" fill="none" xmlns="http://www.w3.org/2000/svg">
<g clip-path="url(#clip0_7798_65235)">
<path fill-rule="evenodd" clip-rule="evenodd" d="M37.1963 24.7021L38.842 24.7248L40.4878 24.7474L40.5094 28.7608L40.531 32.774L41.1617 32.4657C42.0206 32.0457 42.7357 31.8741 43.821 31.8276C44.564 31.7957 44.8774 31.8217 45.4762 31.9649C48.1982 32.616 49.9035 34.8757 50.0846 38.0712C50.2619 41.2001 48.8573 43.8662 46.4099 45.0462C44.7369 45.8529 42.4919 45.9213 40.5755 45.224L40.0051 45.0164L38.6215 45.261C37.8606 45.3956 37.2285 45.5057 37.2171 45.5057C37.2063 45.5058 37.1972 41.2813 37.1963 35.9538V24.7021ZM42.0711 34.7974C41.7961 34.8795 41.3368 35.0723 41.0503 35.2258L40.5295 35.5049V42.3109L40.9427 42.4891C42.093 42.9851 43.6263 43.1031 44.5487 42.7664C46.1522 42.1811 47.1146 40.67 47.1113 38.7428C47.1082 36.9542 46.4051 35.6751 45.0583 35.0077C44.4667 34.7147 44.3844 34.697 43.5023 34.6733C42.7927 34.6541 42.452 34.6837 42.0711 34.7974ZM27.1965 31.9301C29.7445 31.4206 32.3402 32.4096 33.6495 34.3892C34.4746 35.6364 34.882 37.3594 34.738 38.9912L34.6791 39.6583H25.0926L25.1448 39.9298C25.2554 40.5057 25.7695 41.3848 26.2634 41.8424C27.1887 42.6997 28.271 43.0476 29.7799 42.9727C31.133 42.9058 32.4271 42.4853 33.6756 41.7074L34.0297 41.4867V44.5005L33.5923 44.7228C31.1674 45.9549 27.7606 46.0375 25.6157 44.9164C24.0134 44.0788 23.0386 42.8724 22.4783 41.0336C22.2684 40.3442 22.2498 40.1691 22.2446 38.823C22.2384 37.2117 22.3603 36.5391 22.8584 35.4378C23.679 33.6236 25.3057 32.3083 27.1965 31.9301ZM27.3835 34.6317C26.4373 34.9695 25.7059 35.6763 25.3141 36.6311C25.0215 37.3443 24.7564 37.4039 26.9031 37.4047L27.0606 37.4047C27.4377 37.4044 27.8834 37.4029 28.4087 37.4029H31.7041L31.6506 37.0897C31.5684 36.6074 31.1656 35.7909 30.8219 35.4094C30.6515 35.2203 30.2658 34.9441 29.965 34.7956C29.4834 34.558 29.3228 34.5227 28.6199 34.5005C28.0028 34.481 27.7223 34.5108 27.3835 34.6317ZM0.28125 32.1298C0.28125 32.17 1.2937 35.161 2.53115 38.7766C3.76859 42.3922 4.78105 45.3674 4.78105 45.3881C4.78105 45.4088 5.51668 45.4156 6.41589 45.4031L8.05074 45.3805L8.59138 43.8351C8.88878 42.9851 9.53525 41.1089 10.0281 39.6659L10.924 37.042L11.3927 38.4546C11.6504 39.2315 12.3025 41.1165 12.8418 42.6435L13.8223 45.4198L15.4472 45.4193L17.0722 45.4189L19.3155 38.8422C20.5493 35.2251 21.5751 32.2186 21.5951 32.1611C21.6234 32.0799 21.2695 32.0567 20.0025 32.0567C19.1067 32.0567 18.3552 32.0866 18.3326 32.1232C18.2621 32.2376 15.8967 39.4902 15.6501 40.3484C15.5212 40.7968 15.3899 41.1352 15.3585 41.1002C15.3271 41.0652 15.1417 40.548 14.9465 39.9507C14.7514 39.3534 14.1053 37.4927 13.5108 35.8158C12.9163 34.1388 12.374 32.607 12.3058 32.4117L12.1817 32.0567H11.0259C10.0101 32.0567 9.86057 32.0744 9.79241 32.2029C9.70183 32.3735 7.55059 38.5318 7.03312 40.1022C6.83904 40.6908 6.66505 41.1572 6.64647 41.1385C6.6278 41.1198 6.42348 40.4878 6.1924 39.734C5.96133 38.9803 5.30286 36.9445 4.72905 35.2101L3.68593 32.0567H1.98359C1.0473 32.0567 0.28125 32.0896 0.28125 32.1298ZM79.0277 48.7219V50.3508H77.8195H76.6112V51.8126V53.2745H77.814H79.0169L79.0475 57.0127C79.0764 60.5435 79.0882 60.7871 79.2594 61.4045C79.504 62.2859 79.7941 62.7915 80.3728 63.3449C81.2598 64.193 82.3038 64.521 83.8849 64.4481C84.6133 64.4145 84.9752 64.3521 85.5275 64.1651L86.2357 63.9251L86.2585 62.4397L86.2812 60.9543L85.9478 61.1248C85.4484 61.3803 84.5497 61.5671 84.0578 61.5178C83.2411 61.436 82.7979 61.0325 82.5727 60.1662C82.4678 59.7621 82.4443 59.0856 82.4443 56.473V53.2745H84.3608H86.2774V51.8126V50.3508H84.3608H82.4443V48.7219V47.0929H80.736H79.0277V48.7219ZM5.18361 50.1805C2.40441 50.6878 0.803977 52.4414 0.968136 54.7994C1.05722 56.0787 1.66777 56.9907 2.84339 57.6003C3.73943 58.0649 4.60731 58.3201 6.46922 58.6665C8.23581 58.9951 8.63563 59.1336 8.97111 59.5333C9.15652 59.7541 9.19752 59.8851 9.19752 60.2558C9.19752 60.6574 9.16402 60.7458 8.90062 61.038C8.45105 61.5369 7.97466 61.6703 6.65597 61.6669C4.84571 61.6621 3.50569 61.2928 1.42703 60.226C1.3927 60.2084 1.36453 60.9078 1.36453 61.7802V63.3666L1.98301 63.6247C2.70831 63.9274 4.029 64.2612 5.02871 64.3946C6.08182 64.535 8.15557 64.4421 8.9862 64.2171C10.9342 63.6895 12.2038 62.5242 12.5394 60.9557C12.6863 60.2689 12.6005 58.9109 12.379 58.4185C11.7319 56.9796 10.3837 56.2964 6.9997 55.6929C4.93146 55.324 4.45556 55.0701 4.38948 54.3005C4.34149 53.7425 4.56306 53.4122 5.17903 53.1227C5.63368 52.9091 5.71459 52.899 6.90595 52.9075C8.02174 52.9155 8.25973 52.9442 9.12327 53.1746C9.65542 53.3165 10.4429 53.5873 10.8732 53.7764C11.3036 53.9655 11.7027 54.1407 11.7599 54.1657C11.8412 54.2012 11.8641 53.8702 11.8641 52.663V51.1147L11.1766 50.849C9.85491 50.338 8.91712 50.1724 7.15594 50.1393C6.28515 50.1228 5.39761 50.1414 5.18361 50.1805ZM36.1546 50.157C35.1882 50.3737 34.1903 50.8394 33.4148 51.4352L32.8631 51.8591V51.1032V50.3473L31.1757 50.3699L29.4883 50.3925V57.2841V64.1758L31.1757 64.1984L32.8631 64.2209V59.4619V54.7029L33.2398 54.3855C35.1968 52.7361 37.5735 52.6575 38.373 54.2158C38.6447 54.7454 38.691 55.577 38.6936 59.9781L38.6962 64.2175H40.3628H42.0294V59.4638V54.71L42.4401 54.3399C43.3407 53.5282 44.5645 53.0664 45.6622 53.1241C46.2447 53.1548 46.4145 53.1991 46.7532 53.4084C47.2637 53.7241 47.6472 54.3466 47.7713 55.0605C47.8294 55.3949 47.8625 57.1516 47.8625 59.9015V64.2175H49.5707H51.279V59.4602V54.7029L51.6556 54.3855C52.6652 53.5345 53.7095 53.1063 54.7667 53.1093C55.8289 53.1123 56.5267 53.5515 56.8805 54.4397C57.0621 54.8956 57.0657 54.9819 57.0948 59.5605L57.1244 64.2175H58.7848H60.4452V59.473V54.7285L60.7577 54.4323C61.3626 53.8589 62.2492 53.3717 63.0157 53.1916C63.7252 53.0249 64.675 53.1144 65.1487 53.3927C65.5561 53.6319 65.9492 54.1529 66.1289 54.6917C66.1983 54.8999 66.2362 56.3478 66.2574 59.604L66.2874 64.2209L67.9702 64.1984L69.6532 64.1758L69.6504 59.2054C69.6477 54.3691 69.6427 54.2154 69.4646 53.5048C69.2284 52.5624 68.9738 52.069 68.4065 51.4549C67.8741 50.8782 67.0726 50.4184 66.2697 50.2286C65.5844 50.0667 64.1429 50.0664 63.4451 50.2281C62.3423 50.4838 61.0997 51.116 60.2697 51.844L59.8363 52.224L59.704 52.0183C59.1659 51.1819 58.176 50.5077 57.0737 50.2267C56.3472 50.0416 55.1191 50.0626 54.3605 50.2732C53.2749 50.5745 51.7967 51.3587 51.0824 52.0123L50.8441 52.2303L50.6658 51.9833C49.7027 50.6495 48.496 50.1002 46.5292 50.1002C45.8348 50.1002 45.367 50.1477 44.8968 50.2662C44.0076 50.49 42.6968 51.154 41.9973 51.7346C41.4697 52.1726 41.4165 52.1982 41.3364 52.0535C41.2885 51.967 41.0428 51.6786 40.7903 51.4126C40.283 50.8781 39.4953 50.4402 38.6579 50.2267C38.1921 50.108 36.5737 50.0629 36.1546 50.157ZM14.2187 55.509C14.2513 61.1614 14.2326 60.9396 14.7739 62.0993C15.274 63.1706 16.4182 64.037 17.7442 64.3485C18.6304 64.5567 20.1179 64.4815 20.9887 64.1846C21.7398 63.9285 22.5488 63.4755 23.1598 62.9689L23.5719 62.6273L23.5957 63.4224L23.6195 64.2175H25.2831H26.9467V57.2824V50.3473L25.2593 50.3699L23.5719 50.3925L23.5535 55.0705L23.5351 59.7484L23.0535 60.1871C22.1033 61.0529 20.9438 61.5047 19.8296 61.4433C18.4962 61.3699 17.8282 60.7042 17.6168 59.2382C17.5706 58.9183 17.5331 56.8158 17.5321 54.5066L17.5305 50.3508H15.8598H14.189L14.2187 55.509ZM71.7781 57.2841V64.2209L73.4655 64.1984L75.1529 64.1758V57.2841V50.3925L73.4655 50.3699L71.7781 50.3473V57.2841Z" fill="#0C1439"/>
<path d="M72.3989 22.4988C72.2581 22.745 69.2156 27.9872 65.6379 34.1481L59.1328 45.3498L65.8855 45.3709C69.5995 45.3826 75.6834 45.3826 79.4053 45.3709L86.1725 45.3498L79.6721 34.1481C76.0969 27.9872 73.0554 22.745 72.9133 22.4988L72.6549 22.0513L72.3989 22.4988Z" fill="#CB1977"/>
<path d="M54.215 37.4253C51.8418 41.5077 49.8302 44.9676 49.7446 45.1139L49.5889 45.3797H53.4112H57.2336L59.8072 40.9552C61.7919 37.543 62.3646 36.4972 62.3099 36.3848C62.1262 36.0067 58.6123 30.0055 58.5737 30.0042C58.5496 30.0033 56.5881 33.3428 54.215 37.4253Z" fill="#00ACA8"/>
</g>
<defs>
<clipPath id="clip0_7798_65235">
<rect width="86" height="86" fill="white" transform="translate(0.28125)"/>
</clipPath>
</defs>
</svg>
