<svg width="103" height="86" viewBox="0 0 103 86" fill="none" xmlns="http://www.w3.org/2000/svg">
<g clip-path="url(#clip0_7798_65238)">
<path d="M26.6121 26L16.5163 50.9634H10.8921L19.0363 30.8338H7.50391V26H26.6121Z" fill="#812C30"/>
<path d="M5.48713 26H0.28125V50.9634H5.48713V26Z" fill="#812C30"/>
<path d="M30.7843 49.1828C29.7882 49.918 28.5756 50.3037 27.3361 50.2796C24.0608 50.2796 21.8655 48.2582 21.5531 45.1365L19.1973 50.9599C21.0502 53.2713 23.9302 54.7091 27.3361 54.7091C29.273 54.7216 31.1745 54.1924 32.8243 53.1817L30.7843 49.1828Z" fill="#010101"/>
<path d="M43.2856 40.1042V41.4418C42.345 40.3608 40.9456 39.7104 39.0344 39.7104C35.2968 39.7104 32.2227 42.9763 32.2227 47.209C32.2227 51.4416 35.3038 54.7128 39.0415 54.7128C40.9527 54.7128 42.3521 54.0589 43.2927 52.9796V54.3138H47.5756V40.1042H43.2856ZM39.8903 50.677C37.9209 50.677 36.495 49.3411 36.495 47.209C36.495 45.0768 37.9209 43.7427 39.8903 43.7427C41.8597 43.7427 43.2856 45.0786 43.2856 47.209C43.2856 49.3394 41.8597 50.677 39.8903 50.677Z" fill="#010101"/>
<path d="M57.6429 39.7104C55.73 39.7104 54.3323 40.3643 53.3917 41.4453V40.1042H49.1123V60.0001H53.3988V52.9796C54.3394 54.0589 55.737 54.7128 57.65 54.7128C61.3876 54.7128 64.4688 51.4451 64.4688 47.209C64.4688 42.9728 61.3805 39.7104 57.6429 39.7104ZM56.7852 50.6805C54.8176 50.6805 53.3917 49.3446 53.3917 47.2125C53.3917 45.0804 54.8105 43.7533 56.7852 43.7533C58.76 43.7533 60.1823 45.0891 60.1823 47.2195C60.1823 49.3499 58.7547 50.684 56.7852 50.684V50.6805Z" fill="#010101"/>
<path d="M67.668 33.7341C67.1603 33.7338 66.6638 33.8834 66.2414 34.1641C65.819 34.4447 65.4896 34.8438 65.2949 35.3109C65.1002 35.778 65.0489 36.2921 65.1475 36.7882C65.2461 37.2844 65.4901 37.7402 65.8488 38.0982C66.2075 38.4562 66.6647 38.7002 67.1625 38.7995C67.6604 38.8987 68.1767 38.8486 68.646 38.6557C69.1154 38.4627 69.5167 38.1354 69.7994 37.7153C70.082 37.2951 70.2332 36.8009 70.2339 36.2952C70.228 35.6187 69.9559 34.9715 69.4761 34.4927C68.9964 34.0138 68.3472 33.7415 67.668 33.7341ZM65.5275 40.1042V54.3138H69.8104V40.1042H65.5275Z" fill="#010101"/>
<path d="M80.5186 44.1962V40.1042H77.575V36.2952H73.2974V40.1042H71.0156V44.1962H73.2974V49.2269C73.2974 53.2064 74.9245 54.8833 80.5186 54.3138V50.4467C78.6339 50.561 77.5786 50.4467 77.5786 49.2163V44.1962H80.5186Z" fill="#010101"/>
<path d="M92.2223 40.0725V41.4084C91.2818 40.3292 89.8841 39.6753 87.9729 39.6753C84.2335 39.6753 81.1523 42.9447 81.1523 47.1773C81.1523 51.41 84.2335 54.6811 87.9729 54.6811C89.8841 54.6811 91.2818 54.0273 92.2223 52.948V54.2821H96.5035V40.0725H92.2223ZM88.8288 50.6454C86.8594 50.6454 85.4335 49.3095 85.4335 47.1773C85.4335 45.0452 86.8594 43.7111 88.8288 43.7111C90.7982 43.7111 92.2223 45.047 92.2223 47.1773C92.2223 49.3077 90.7982 50.6454 88.8306 50.6454H88.8288Z" fill="#010101"/>
<path d="M98.002 33.5671V54.3085H102.281V33.5671H98.002Z" fill="#010101"/>
<path d="M27.3361 34.0242C26.895 34.0241 26.4543 34.0488 26.0161 34.098L23.8525 39.4486C24.7861 38.8087 25.9702 38.4554 27.3361 38.4554C27.4667 38.4554 27.5937 38.4554 27.7172 38.4677H27.7737C27.8694 38.4706 27.9648 38.4788 28.0596 38.4923L28.1337 38.5029C28.2519 38.517 28.3667 38.5345 28.4867 38.5539C28.5872 38.5714 28.6878 38.5925 28.7849 38.6154H28.8219C29.1411 38.6987 29.4523 38.8099 29.7519 38.9476L29.789 38.9652C30.6973 39.3809 31.4791 40.0286 32.0549 40.8425C32.1167 40.9286 32.1678 41.0059 32.2119 41.0762L32.2667 41.1641V41.1782C32.2825 41.2028 32.2949 41.2256 32.3072 41.2467V41.2626L32.3372 41.317V41.3276L32.3584 41.3698C32.3642 41.3786 32.3689 41.388 32.3725 41.3979V41.4084L35.7784 38.4976C34.0649 35.7678 30.9114 34.0242 27.3361 34.0242Z" fill="#010101"/>
</g>
<defs>
<clipPath id="clip0_7798_65238">
<rect width="102" height="34" fill="white" transform="translate(0.28125 26)"/>
</clipPath>
</defs>
</svg>
