<svg width="95" height="26" viewBox="0 0 95 26" fill="none" xmlns="http://www.w3.org/2000/svg">
<g clip-path="url(#clip0_7798_65233)">
<mask id="mask0_7798_65233" style="mask-type:luminance" maskUnits="userSpaceOnUse" x="0" y="0" width="13" height="17">
<path d="M0.298828 0.249756H12.779V16.0233H0.298828V0.249756Z" fill="white"/>
</mask>
<g mask="url(#mask0_7798_65233)">
<path fill-rule="evenodd" clip-rule="evenodd" d="M10.3163 11.9153V7.74039C9.56088 7.78537 8.67218 7.85227 7.64936 7.94196C6.62654 8.03135 5.81665 8.16135 5.21969 8.33108C4.50867 8.53704 3.93349 8.85692 3.49445 9.29104C3.0554 9.72515 2.83616 10.3226 2.83616 11.083C2.83616 11.9422 3.09065 12.5889 3.59991 13.0228C4.10888 13.4572 4.88582 13.6739 5.93071 13.6739C6.79992 13.6739 7.59462 13.5016 8.31452 13.1571C9.03414 12.8127 9.7016 12.3985 10.3163 11.9153ZM12.7787 15.607H10.3163V14.0096C10.0965 14.1618 9.80018 14.3742 9.42733 14.6473C9.05391 14.9202 8.69196 15.1369 8.34089 15.2982C7.92792 15.5042 7.45391 15.6762 6.91857 15.815C6.38294 15.9535 5.75503 16.0233 5.03541 16.0233C3.70967 16.0233 2.58597 15.5754 1.66402 14.6806C0.742079 13.7858 0.28125 12.6447 0.28125 11.2577C0.28125 10.1213 0.520262 9.20164 0.99886 8.49877C1.47746 7.79647 2.1601 7.24376 3.0468 6.84119C3.94238 6.43834 5.01765 6.16549 6.27318 6.02205C7.52871 5.87919 8.87623 5.77169 10.3163 5.69982V5.3107C10.3163 4.73812 10.2175 4.26369 10.0197 3.88771C9.82225 3.51203 9.5391 3.21638 9.17055 3.00167C8.8192 2.796 8.39763 2.65724 7.90614 2.58567C7.41436 2.51409 6.9008 2.47816 6.36546 2.47816C5.71548 2.47816 4.99128 2.56551 4.19257 2.73991C3.39357 2.91461 2.5682 3.16731 1.71676 3.49859H1.58493V0.93452C2.06782 0.800138 2.76566 0.652318 3.67901 0.491351C4.59207 0.330385 5.49166 0.249756 6.37864 0.249756C7.41436 0.249756 8.31653 0.337104 9.08487 0.511509C9.85291 0.686205 10.5181 0.983599 11.0801 1.40427C11.6329 1.81589 12.0545 2.34874 12.3442 3.00167C12.6339 3.65517 12.7787 4.46497 12.7787 5.43135V15.607Z" fill="#1C6088"/>
</g>
<path fill-rule="evenodd" clip-rule="evenodd" d="M26.9956 7.99546C26.9956 6.18802 26.693 4.83661 26.0871 3.94151C25.4813 3.0467 24.5508 2.59885 23.2952 2.59885C22.5842 2.59885 21.8683 2.75573 21.1487 3.0689C20.4288 3.38236 19.7396 3.79369 19.0813 4.30375V12.8014C19.7834 13.1236 20.387 13.343 20.8919 13.4593C21.3966 13.5755 21.9695 13.6337 22.6106 13.6337C23.9888 13.6337 25.0643 13.1592 25.837 12.2107C26.6093 11.2621 26.9956 9.85694 26.9956 7.99546ZM29.5505 7.92856C29.5505 9.1456 29.3794 10.2575 29.037 11.2644C28.6945 12.2711 28.2116 13.1236 27.5883 13.8218C27.0088 14.4841 26.3262 14.9962 25.5406 15.3584C24.7548 15.7213 23.9229 15.9024 23.045 15.9024C22.2813 15.9024 21.5898 15.8174 20.9707 15.6473C20.352 15.4776 19.7221 15.2132 19.0813 14.8554V21.1374H16.6055V0.612337H19.0813V2.18285C19.7396 1.61903 20.4792 1.14724 21.3 0.766584C22.1211 0.386225 22.9966 0.196045 23.9274 0.196045C25.7005 0.196045 27.0813 0.878764 28.0692 2.24333C29.0567 3.60818 29.5505 5.50326 29.5505 7.92856Z" fill="#1C6088"/>
<path fill-rule="evenodd" clip-rule="evenodd" d="M42.7434 6.43838C42.7345 5.11384 42.4075 4.08903 41.7621 3.36425C41.1167 2.63946 40.1354 2.27692 38.8191 2.27692C37.4931 2.27692 36.4373 2.6751 35.6515 3.47146C34.866 4.26811 34.4203 5.25699 34.3149 6.43838H42.7434ZM45.153 8.37144H34.3149C34.3149 9.29342 34.451 10.0965 34.7233 10.781C34.9952 11.4657 35.3687 12.0272 35.8427 12.4657C36.2992 12.8954 36.8414 13.2177 37.469 13.4324C38.0964 13.6471 38.7882 13.7543 39.5433 13.7543C40.5441 13.7543 41.5517 13.5513 42.5654 13.1438C43.5796 12.7365 44.3018 12.3363 44.7317 11.9422H44.8638V14.6941C44.029 15.052 43.1778 15.352 42.3086 15.5936C41.4397 15.8352 40.5263 15.9558 39.5697 15.9558C37.1286 15.9558 35.2236 15.2828 33.8543 13.9357C32.4845 12.589 31.7998 10.6758 31.7998 8.19703C31.7998 5.74485 32.4561 3.79836 33.7686 2.35726C35.0809 0.916742 36.8085 0.196045 38.9507 0.196045C40.9344 0.196045 42.4645 0.786741 43.5398 1.96813C44.615 3.14953 45.153 4.82726 45.153 7.0022V8.37144Z" fill="#1C6088"/>
<path fill-rule="evenodd" clip-rule="evenodd" d="M57.4913 3.36421H57.3597C56.9909 3.27482 56.6329 3.20968 56.2864 3.16965C55.9394 3.12934 55.529 3.10918 55.055 3.10918C54.2912 3.10918 53.5539 3.28154 52.8426 3.62597C52.1315 3.97069 51.4466 4.4159 50.788 4.96161V15.607H48.3125V0.612305H50.788V2.82727C51.7713 2.02186 52.6385 1.45132 53.3894 1.11565C54.1399 0.77999 54.9057 0.612305 55.6872 0.612305C56.1171 0.612305 56.4289 0.623698 56.6223 0.645608C56.8152 0.668395 57.1047 0.710754 57.4913 0.773271V3.36421Z" fill="#1C6088"/>
<path fill-rule="evenodd" clip-rule="evenodd" d="M68.3453 11.9153V7.74039C67.5902 7.78537 66.7015 7.85227 65.6787 7.94196C64.6558 8.03135 63.8459 8.16135 63.249 8.33108C62.5377 8.53704 61.9628 8.85692 61.5237 9.29104C61.0847 9.72515 60.8652 10.3226 60.8652 11.083C60.8652 11.9422 61.1199 12.5889 61.6289 13.0228C62.1382 13.4572 62.9154 13.6739 63.96 13.6739C64.8292 13.6739 65.6236 13.5016 66.3438 13.1571C67.0634 12.8127 67.7306 12.3985 68.3453 11.9153ZM70.808 15.607H68.3453V14.0096C68.1258 14.1618 67.8295 14.3742 67.4563 14.6473C67.0832 14.9202 66.721 15.1369 66.3699 15.2982C65.9572 15.5042 65.4832 15.6762 64.9479 15.815C64.412 15.9535 63.7843 16.0233 63.0644 16.0233C61.7387 16.0233 60.615 15.5754 59.6933 14.6806C58.7717 13.7858 58.3105 12.6447 58.3105 11.2577C58.3105 10.1213 58.5496 9.20164 59.0282 8.49877C59.5068 7.79647 60.1891 7.24376 61.0761 6.84119C61.9717 6.43834 63.0469 6.16549 64.3028 6.02205C65.5577 5.87919 66.9055 5.77169 68.3453 5.69982V5.3107C68.3453 4.73812 68.2465 4.26369 68.0493 3.88771C67.8515 3.51203 67.5684 3.21638 67.1999 3.00167C66.8482 2.796 66.4272 2.65724 65.9354 2.58567C65.4437 2.51409 64.9301 2.47816 64.3948 2.47816C63.7448 2.47816 63.0206 2.56551 62.2219 2.73991C61.4229 2.91461 60.5975 3.16731 59.7461 3.49859H59.6142V0.93452C60.0971 0.800138 60.795 0.652318 61.7083 0.491351C62.6211 0.330385 63.521 0.249756 64.4079 0.249756C65.4437 0.249756 66.3455 0.337104 67.1142 0.511509C67.8822 0.686205 68.5474 0.983599 69.1091 1.40427C69.6625 1.81589 70.0835 2.34874 70.3735 3.00167C70.6632 3.65517 70.808 4.46497 70.808 5.43135V15.607Z" fill="#1C6088"/>
<path fill-rule="evenodd" clip-rule="evenodd" d="M26.3546 23.3902V22.2275C26.1443 22.2401 25.8964 22.2588 25.6118 22.2836C25.3269 22.3085 25.1014 22.3447 24.9349 22.392C24.7372 22.4496 24.5767 22.5384 24.4546 22.6593C24.3322 22.7806 24.2712 22.9468 24.2712 23.1583C24.2712 23.3978 24.3419 23.5781 24.4838 23.6987C24.6257 23.8197 24.842 23.8801 25.1329 23.8801C25.3751 23.8801 25.5963 23.8322 25.7969 23.7361C25.9976 23.6403 26.1833 23.5249 26.3546 23.3902ZM27.0404 24.4186H26.3546V23.9736C26.2933 24.016 26.2108 24.0753 26.1067 24.1512C26.0027 24.2275 25.9021 24.2877 25.8044 24.3327C25.6892 24.3899 25.5574 24.4378 25.408 24.4764C25.259 24.515 25.0842 24.5342 24.8836 24.5342C24.5145 24.5342 24.2015 24.4098 23.9447 24.1606C23.688 23.9114 23.5596 23.5936 23.5596 23.2071C23.5596 22.8904 23.6263 22.6345 23.7593 22.439C23.8929 22.2433 24.0829 22.0891 24.3299 21.9772C24.5792 21.865 24.8787 21.789 25.2284 21.749C25.5783 21.7093 25.9534 21.6792 26.3546 21.6593V21.551C26.3546 21.3914 26.3268 21.2594 26.2721 21.1545C26.2171 21.0499 26.138 20.9679 26.0354 20.9077C25.9374 20.8504 25.8202 20.8119 25.6832 20.792C25.5462 20.7721 25.4032 20.7619 25.2542 20.7619C25.073 20.7619 24.8713 20.7861 24.6489 20.8346C24.4265 20.8834 24.1967 20.9541 23.9594 21.0461H23.9227V20.3322C24.0571 20.2948 24.2517 20.2536 24.5059 20.2086C24.7604 20.1639 25.0108 20.1411 25.2579 20.1411C25.5462 20.1411 25.7975 20.1657 26.0116 20.2141C26.2254 20.2626 26.4105 20.3459 26.5673 20.4628C26.7212 20.5776 26.8387 20.7257 26.9192 20.9077C27 21.0897 27.0404 21.3152 27.0404 21.5846V24.4186Z" fill="#95A1A7"/>
<path fill-rule="evenodd" clip-rule="evenodd" d="M31.2264 23.2147C31.2264 23.5962 31.072 23.9088 30.7625 24.1533C30.4532 24.3975 30.0308 24.5196 29.4955 24.5196C29.192 24.5196 28.914 24.4828 28.6609 24.4092C28.4079 24.3359 28.1955 24.2552 28.0244 24.1682V23.3791H28.0611C28.2786 23.5462 28.5208 23.6789 28.7873 23.7773C29.0538 23.8761 29.3095 23.9251 29.5539 23.9251C29.8571 23.9251 30.0944 23.8752 30.2655 23.7756C30.4366 23.6759 30.5223 23.5188 30.5223 23.3046C30.5223 23.1399 30.4759 23.0151 30.383 22.9304C30.2899 22.8457 30.1113 22.7735 29.8474 22.7137C29.7497 22.6912 29.6218 22.6652 29.4642 22.6354C29.3063 22.6053 29.1627 22.5728 29.0332 22.5381C28.6738 22.4405 28.4188 22.2979 28.2683 22.1098C28.1181 21.9217 28.0428 21.6906 28.0428 21.4163C28.0428 21.2442 28.0777 21.0824 28.1474 20.9305C28.217 20.7783 28.3227 20.6421 28.4646 20.5226C28.6016 20.4058 28.7758 20.3126 28.9873 20.2442C29.1988 20.1759 29.4353 20.1411 29.6969 20.1411C29.9414 20.1411 30.189 20.1718 30.4398 20.2328C30.6902 20.2942 30.8989 20.3681 31.0651 20.4554V21.2068H31.0284C30.8524 21.0748 30.6384 20.9635 30.3864 20.872C30.1345 20.7815 29.8878 20.7359 29.6456 20.7359C29.3937 20.7359 29.1811 20.7853 29.0074 20.8834C28.8337 20.9819 28.7472 21.1282 28.7472 21.3228C28.7472 21.4949 28.7996 21.6246 28.9048 21.7116C29.0074 21.799 29.1736 21.87 29.4037 21.9249C29.5307 21.9547 29.6731 21.9845 29.8308 22.0146C29.9887 22.0444 30.1199 22.0718 30.2251 22.097C30.5455 22.1717 30.7923 22.3 30.9659 22.4817C31.1396 22.6663 31.2264 22.9106 31.2264 23.2147Z" fill="#95A1A7"/>
<path fill-rule="evenodd" clip-rule="evenodd" d="M35.1324 23.2147C35.1324 23.5962 34.9779 23.9088 34.6687 24.1533C34.3592 24.3975 33.937 24.5196 33.4014 24.5196C33.0982 24.5196 32.8199 24.4828 32.5669 24.4092C32.3138 24.3359 32.1018 24.2552 31.9307 24.1682V23.3791H31.9673C32.1849 23.5462 32.427 23.6789 32.6936 23.7773C32.9598 23.8761 33.2154 23.9251 33.4602 23.9251C33.7634 23.9251 34.0004 23.8752 34.1715 23.7756C34.3429 23.6759 34.4283 23.5188 34.4283 23.3046C34.4283 23.1399 34.3818 23.0151 34.289 22.9304C34.1961 22.8457 34.0176 22.7735 33.7533 22.7137C33.6556 22.6912 33.5278 22.6652 33.3702 22.6354C33.2126 22.6053 33.0687 22.5728 32.9392 22.5381C32.5798 22.4405 32.325 22.2979 32.1745 22.1098C32.0241 21.9217 31.949 21.6906 31.949 21.4163C31.949 21.2442 31.9837 21.0824 32.0533 20.9305C32.123 20.7783 32.229 20.6421 32.3709 20.5226C32.5076 20.4058 32.6818 20.3126 32.8933 20.2442C33.1048 20.1759 33.3412 20.1411 33.6032 20.1411C33.8476 20.1411 34.0952 20.1718 34.3457 20.2328C34.5965 20.2942 34.8048 20.3681 34.971 20.4554V21.2068H34.9347C34.7584 21.0748 34.5446 20.9635 34.2927 20.872C34.0408 20.7815 33.7938 20.7359 33.5516 20.7359C33.2997 20.7359 33.087 20.7853 32.9137 20.8834C32.74 20.9819 32.6531 21.1282 32.6531 21.3228C32.6531 21.4949 32.7056 21.6246 32.8108 21.7116C32.9137 21.799 33.0799 21.87 33.3097 21.9249C33.4367 21.9547 33.5794 21.9845 33.737 22.0146C33.8946 22.0444 34.0262 22.0718 34.1314 22.097C34.4515 22.1717 34.6985 22.3 34.8722 22.4817C35.0458 22.6663 35.1324 22.9106 35.1324 23.2147Z" fill="#95A1A7"/>
<path fill-rule="evenodd" clip-rule="evenodd" d="M38.8548 21.865C38.8525 21.496 38.7613 21.2109 38.5816 21.0087C38.402 20.8068 38.1288 20.7058 37.7614 20.7058C37.3926 20.7058 37.0983 20.8168 36.8799 21.0388C36.6604 21.2602 36.5369 21.536 36.5071 21.865H38.8548ZM39.5259 22.4034H36.5071C36.5071 22.6599 36.5452 22.8836 36.6214 23.0744C36.6968 23.2652 36.8011 23.4215 36.9332 23.5436C37.0602 23.6633 37.2106 23.753 37.386 23.8129C37.5605 23.8728 37.7531 23.9023 37.9635 23.9023C38.2423 23.9023 38.5229 23.8459 38.8055 23.7323C39.0875 23.6192 39.2889 23.5076 39.4087 23.3978H39.4451V24.1644C39.213 24.264 38.9757 24.3475 38.7338 24.4147C38.4914 24.4822 38.2372 24.5158 37.9709 24.5158C37.2909 24.5158 36.7607 24.3279 36.379 23.9528C35.9975 23.578 35.8066 23.0452 35.8066 22.3546C35.8066 21.6719 35.9895 21.1297 36.3549 20.7283C36.7203 20.3269 37.2017 20.1265 37.7984 20.1265C38.3509 20.1265 38.7768 20.2909 39.0769 20.6199C39.3763 20.9488 39.5259 21.4162 39.5259 22.0218V22.4034Z" fill="#95A1A7"/>
<path fill-rule="evenodd" clip-rule="evenodd" d="M42.6422 24.381C42.5121 24.4158 42.3711 24.4447 42.2183 24.4669C42.0656 24.4894 41.9292 24.5005 41.8094 24.5005C41.3912 24.5005 41.0734 24.3863 40.8556 24.1567C40.6381 23.9274 40.5292 23.5596 40.5292 23.0539V20.8331H40.0635V20.2421H40.5292V19.042H41.219V20.2421H42.6422V20.8331H41.219V22.736C41.219 22.9551 41.2236 23.1266 41.2333 23.2502C41.2433 23.3735 41.2775 23.4886 41.3362 23.5961C41.3898 23.6954 41.464 23.7684 41.558 23.8146C41.652 23.8608 41.7959 23.8838 41.989 23.8838C42.1017 23.8838 42.2189 23.8669 42.3413 23.8333C42.4633 23.7997 42.5513 23.7717 42.6055 23.7492H42.6422V24.381Z" fill="#95A1A7"/>
<path fill-rule="evenodd" clip-rule="evenodd" d="M52.0944 24.4185H51.4051V22.0405C51.4051 21.8612 51.3968 21.6879 51.3811 21.5208C51.365 21.354 51.3315 21.2208 51.2802 21.1209C51.224 21.0137 51.1435 20.9325 51.038 20.8778C50.9328 20.8229 50.7815 20.7957 50.5835 20.7957C50.3903 20.7957 50.1969 20.8448 50.0037 20.9433C49.8106 21.0417 49.6174 21.167 49.4245 21.3193C49.4317 21.3765 49.4377 21.4428 49.4426 21.5191C49.4478 21.595 49.4498 21.6704 49.4498 21.7455V24.4185H48.7605V22.0405C48.7605 21.8562 48.7525 21.6812 48.7365 21.5156C48.7207 21.3496 48.6869 21.2167 48.6359 21.1171C48.5794 21.0099 48.4989 20.9298 48.3937 20.8761C48.2885 20.8223 48.1369 20.7957 47.9389 20.7957C47.7506 20.7957 47.5617 20.8431 47.372 20.9377C47.1826 21.0324 46.9937 21.1533 46.8054 21.3003V24.4185H46.1162V20.2422H46.8054V20.7058C47.0207 20.5241 47.2353 20.3821 47.4491 20.2795C47.6632 20.1773 47.8913 20.1265 48.1335 20.1265C48.412 20.1265 48.6488 20.1864 48.8428 20.3058C49.0374 20.4253 49.1824 20.5913 49.2775 20.803C49.5564 20.5638 49.8106 20.3911 50.0404 20.2854C50.2703 20.1793 50.5162 20.1265 50.7778 20.1265C51.2277 20.1265 51.5596 20.2652 51.7737 20.543C51.9875 20.8215 52.0944 21.2094 52.0944 21.7081V24.4185Z" fill="#95A1A7"/>
<path fill-rule="evenodd" clip-rule="evenodd" d="M55.784 23.3902V22.2275C55.574 22.2401 55.3261 22.2588 55.0412 22.2836C54.7566 22.3085 54.5311 22.3447 54.3649 22.392C54.1665 22.4496 54.0063 22.5384 53.8843 22.6593C53.7619 22.7806 53.7006 22.9468 53.7006 23.1583C53.7006 23.3978 53.7716 23.5781 53.9138 23.6987C54.0554 23.8197 54.2717 23.8801 54.5626 23.8801C54.8048 23.8801 55.026 23.8322 55.2266 23.7361C55.4272 23.6403 55.6129 23.5249 55.784 23.3902ZM56.4701 24.4186H55.784V23.9736C55.723 24.016 55.6405 24.0753 55.5367 24.1512C55.4324 24.2275 55.3318 24.2877 55.2341 24.3327C55.1192 24.3899 54.987 24.4378 54.8377 24.4764C54.6887 24.515 54.5136 24.5342 54.3133 24.5342C53.9442 24.5342 53.6309 24.4098 53.3744 24.1606C53.1176 23.9114 52.9893 23.5936 52.9893 23.2071C52.9893 22.8904 53.0557 22.6345 53.189 22.439C53.3223 22.2433 53.5126 22.0891 53.7593 21.9772C54.0089 21.865 54.3084 21.789 54.658 21.749C55.0077 21.7093 55.3831 21.6792 55.784 21.6593V21.551C55.784 21.3914 55.7565 21.2594 55.7015 21.1545C55.6465 21.0499 55.5677 20.9679 55.4651 20.9077C55.3673 20.8504 55.2498 20.8119 55.1129 20.792C54.9762 20.7721 54.8331 20.7619 54.6838 20.7619C54.5027 20.7619 54.301 20.7861 54.0786 20.8346C53.8559 20.8834 53.6263 20.9541 53.389 21.0461H53.3524V20.3322C53.4868 20.2948 53.6811 20.2536 53.9356 20.2086C54.1898 20.1639 54.4402 20.1411 54.6876 20.1411C54.9762 20.1411 55.2272 20.1657 55.4413 20.2141C55.6551 20.2626 55.8402 20.3459 55.9967 20.4628C56.1509 20.5776 56.2681 20.7257 56.3492 20.9077C56.4297 21.0897 56.4701 21.3152 56.4701 21.5846V24.4186Z" fill="#95A1A7"/>
<path fill-rule="evenodd" clip-rule="evenodd" d="M61.0857 24.4185H60.3962V22.0405C60.3962 21.8486 60.3853 21.6686 60.3632 21.5004C60.3412 21.3321 60.3008 21.2006 60.2423 21.106C60.181 21.0014 60.093 20.9234 59.9781 20.872C59.8629 20.8215 59.7141 20.7957 59.5304 20.7957C59.3421 20.7957 59.1452 20.8431 58.94 20.9377C58.7346 21.0324 58.5377 21.1533 58.3494 21.3003V24.4185H57.6602V20.2422H58.3494V20.7058C58.5646 20.5241 58.787 20.3821 59.0171 20.2795C59.247 20.1773 59.4828 20.1265 59.725 20.1265C60.1675 20.1265 60.5051 20.262 60.7372 20.5337C60.9696 20.8057 61.0857 21.1971 61.0857 21.7081V24.4185Z" fill="#95A1A7"/>
<mask id="mask1_7798_65233" style="mask-type:luminance" maskUnits="userSpaceOnUse" x="61" y="20" width="10" height="6">
<path d="M61.9805 20.1265H70.0117V25.9826H61.9805V20.1265Z" fill="white"/>
</mask>
<g mask="url(#mask1_7798_65233)">
<path fill-rule="evenodd" clip-rule="evenodd" d="M64.7752 23.3902V22.2275C64.5652 22.2401 64.3173 22.2588 64.0324 22.2836C63.7478 22.3085 63.5223 22.3447 63.3561 22.392C63.1578 22.4496 62.9976 22.5384 62.8755 22.6593C62.7531 22.7806 62.6918 22.9468 62.6918 23.1583C62.6918 23.3978 62.7631 23.5781 62.905 23.6987C63.0466 23.8197 63.2629 23.8801 63.5538 23.8801C63.796 23.8801 64.0172 23.8322 64.2178 23.7361C64.4185 23.6403 64.6042 23.5249 64.7752 23.3902ZM65.4613 24.4186H64.7752V23.9736C64.7142 24.016 64.6317 24.0753 64.5279 24.1512C64.4236 24.2275 64.323 24.2877 64.2253 24.3327C64.1104 24.3899 63.9783 24.4378 63.8289 24.4764C63.6799 24.515 63.5048 24.5342 63.3045 24.5342C62.9354 24.5342 62.6221 24.4098 62.3656 24.1606C62.1089 23.9114 61.9805 23.5936 61.9805 23.2071C61.9805 22.8904 62.047 22.6345 62.1802 22.439C62.3135 22.2433 62.5038 22.0891 62.7508 21.9772C63.0001 21.865 63.2996 21.789 63.6493 21.749C63.9989 21.7093 64.3743 21.6792 64.7752 21.6593V21.551C64.7752 21.3915 64.7477 21.2594 64.6927 21.1545C64.638 21.0499 64.5589 20.9679 64.4563 20.9077C64.3586 20.8504 64.2411 20.8119 64.1041 20.792C63.9674 20.7721 63.8244 20.7619 63.675 20.7619C63.4939 20.7619 63.2922 20.7861 63.0698 20.8346C62.8471 20.8834 62.6175 20.9541 62.3803 21.0461H62.3436V20.3322C62.478 20.2948 62.6723 20.2536 62.9268 20.2086C63.1813 20.1639 63.4317 20.1411 63.6788 20.1411C63.9674 20.1411 64.2184 20.1657 64.4325 20.2141C64.6463 20.2626 64.8314 20.3459 64.9879 20.4628C65.1421 20.5776 65.2593 20.7257 65.3404 20.9077C65.4209 21.0897 65.4613 21.3152 65.4613 21.5846V24.4186Z" fill="#95A1A7"/>
</g>
<mask id="mask2_7798_65233" style="mask-type:luminance" maskUnits="userSpaceOnUse" x="61" y="20" width="10" height="6">
<path d="M61.9805 20.1265H70.0117V25.9826H61.9805V20.1265Z" fill="white"/>
</mask>
<g mask="url(#mask2_7798_65233)">
<path fill-rule="evenodd" clip-rule="evenodd" d="M69.3223 23.2707V20.9935C69.1391 20.9088 68.9686 20.8486 68.8107 20.8124C68.6528 20.7762 68.4957 20.7584 68.3396 20.7584C67.9604 20.7584 67.6621 20.8878 67.4443 21.1472C67.227 21.4063 67.1181 21.7829 67.1181 22.2763C67.1181 22.7449 67.1987 23.0998 67.3603 23.3417C67.5214 23.5836 67.7893 23.7045 68.1633 23.7045C68.3639 23.7045 68.5651 23.6651 68.7669 23.5865C68.9686 23.5082 69.1535 23.4028 69.3223 23.2707ZM70.0118 23.9438C70.0118 24.6516 69.8544 25.171 69.5386 25.5029C69.2234 25.8342 68.7379 26.0001 68.0828 26.0001C67.865 26.0001 67.6529 25.9844 67.4463 25.9534C67.2396 25.9218 67.0362 25.8777 66.8356 25.8208V25.1027H66.8722C66.9849 25.1477 67.1631 25.2029 67.4079 25.2689C67.6523 25.3352 67.8971 25.3682 68.1412 25.3682C68.376 25.3682 68.5705 25.3393 68.7244 25.2821C68.8783 25.2248 68.9981 25.145 69.0838 25.0431C69.1695 24.9458 69.2308 24.8284 69.2675 24.6917C69.3042 24.5544 69.3223 24.401 69.3223 24.2315V23.8503C69.1148 24.0197 68.9159 24.1462 68.7264 24.2298C68.5367 24.3133 68.2954 24.3548 68.002 24.3548C67.513 24.3548 67.1247 24.1749 66.8373 23.8147C66.5501 23.4545 66.4062 22.9467 66.4062 22.2912C66.4062 21.9322 66.4558 21.6225 66.555 21.3619C66.6541 21.1016 66.7891 20.8767 66.9602 20.6874C67.1193 20.51 67.3124 20.3724 67.54 20.274C67.7672 20.1758 67.9936 20.1265 68.2183 20.1265C68.4556 20.1265 68.6542 20.1507 68.8144 20.1992C68.9743 20.248 69.1437 20.3219 69.3223 20.4215L69.3664 20.2422H70.0118V23.9438Z" fill="#95A1A7"/>
</g>
<path fill-rule="evenodd" clip-rule="evenodd" d="M74.0276 21.865C74.025 21.496 73.9342 21.2109 73.7542 21.0087C73.5745 20.8068 73.3014 20.7058 72.9346 20.7058C72.5655 20.7058 72.2711 20.8168 72.0528 21.0388C71.8335 21.2602 71.7094 21.536 71.6802 21.865H74.0276ZM74.6988 22.4034H71.6802C71.6802 22.6599 71.7183 22.8836 71.794 23.0744C71.8696 23.2652 71.9737 23.4215 72.1058 23.5436C72.233 23.6633 72.3838 23.753 72.5586 23.8129C72.7337 23.8728 72.926 23.9023 73.1363 23.9023C73.4152 23.9023 73.6958 23.8459 73.978 23.7323C74.2606 23.6192 74.4618 23.5076 74.5816 23.3978H74.6183V24.1644C74.3858 24.264 74.1486 24.3475 73.9064 24.4147C73.6645 24.4822 73.4103 24.5158 73.1435 24.5158C72.4637 24.5158 71.9335 24.3279 71.5521 23.9528C71.1704 23.578 70.9795 23.0452 70.9795 22.3546C70.9795 21.6719 71.1623 21.1297 71.528 20.7283C71.8934 20.3269 72.3749 20.1265 72.9713 20.1265C73.5238 20.1265 73.95 20.2909 74.2497 20.6199C74.5492 20.9488 74.6988 21.4162 74.6988 22.0218V22.4034Z" fill="#95A1A7"/>
<path fill-rule="evenodd" clip-rule="evenodd" d="M81.6735 24.4185H80.9843V22.0405C80.9843 21.8612 80.9759 21.6879 80.9602 21.5208C80.9441 21.354 80.9106 21.2208 80.8593 21.1209C80.8031 21.0137 80.7226 20.9325 80.6171 20.8778C80.512 20.8229 80.3606 20.7957 80.1623 20.7957C79.9694 20.7957 79.776 20.8448 79.5828 20.9433C79.3897 21.0417 79.1965 21.167 79.0034 21.3193C79.0108 21.3765 79.0168 21.4428 79.0217 21.5191C79.0269 21.595 79.0289 21.6704 79.0289 21.7455V24.4185H78.3396V22.0405C78.3396 21.8562 78.3316 21.6812 78.3156 21.5156C78.2995 21.3496 78.266 21.2167 78.215 21.1171C78.1585 21.0099 78.078 20.9298 77.9728 20.8761C77.8676 20.8223 77.716 20.7957 77.518 20.7957C77.3297 20.7957 77.1406 20.8431 76.9511 20.9377C76.7617 21.0324 76.5728 21.1533 76.3845 21.3003V24.4185H75.6953V20.2422H76.3845V20.7058C76.5998 20.5241 76.8144 20.3821 77.0282 20.2795C77.2423 20.1773 77.4704 20.1265 77.7126 20.1265C77.9911 20.1265 78.2276 20.1864 78.4219 20.3058C78.6165 20.4253 78.7615 20.5913 78.8566 20.803C79.1352 20.5638 79.3897 20.3911 79.6195 20.2854C79.8494 20.1793 80.0953 20.1265 80.3569 20.1265C80.8066 20.1265 81.1387 20.2652 81.3528 20.543C81.5666 20.8215 81.6735 21.2094 81.6735 21.7081V24.4185Z" fill="#95A1A7"/>
<path fill-rule="evenodd" clip-rule="evenodd" d="M85.6634 21.865C85.6608 21.496 85.5699 21.2109 85.39 21.0087C85.2103 20.8068 84.9372 20.7058 84.57 20.7058C84.2009 20.7058 83.9069 20.8168 83.6882 21.0388C83.469 21.2602 83.3452 21.536 83.3156 21.865H85.6634ZM86.3345 22.4034H83.3156C83.3156 22.6599 83.3538 22.8836 83.4297 23.0744C83.5051 23.2652 83.6094 23.4215 83.7415 23.5436C83.8685 23.6633 84.0192 23.753 84.1943 23.8129C84.3691 23.8728 84.5617 23.9023 84.7718 23.9023C85.0506 23.9023 85.3315 23.8459 85.6138 23.7323C85.8961 23.6192 86.0972 23.5076 86.217 23.3978H86.2537V24.1644C86.0216 24.264 85.7843 24.3475 85.5421 24.4147C85.3 24.4822 85.0458 24.5158 84.7792 24.5158C84.0995 24.5158 83.569 24.3279 83.1875 23.9528C82.8061 23.578 82.6152 23.0452 82.6152 22.3546C82.6152 21.6719 82.7981 21.1297 83.1635 20.7283C83.5289 20.3269 84.0103 20.1265 84.6067 20.1265C85.1595 20.1265 85.5854 20.2909 85.8852 20.6199C86.1847 20.9488 86.3345 21.4162 86.3345 22.0218V22.4034Z" fill="#95A1A7"/>
<path fill-rule="evenodd" clip-rule="evenodd" d="M90.7566 24.4185H90.0671V22.0405C90.0671 21.8486 90.0562 21.6686 90.0341 21.5004C90.0123 21.3321 89.9716 21.2006 89.9132 21.106C89.8519 21.0014 89.7639 20.9234 89.649 20.872C89.534 20.8215 89.385 20.7957 89.2013 20.7957C89.013 20.7957 88.8164 20.8431 88.6109 20.9377C88.4055 21.0324 88.2089 21.1533 88.0203 21.3003V24.4185H87.3311V20.2422H88.0203V20.7058C88.2355 20.5241 88.4582 20.3821 88.688 20.2795C88.9179 20.1773 89.1537 20.1265 89.3959 20.1265C89.8384 20.1265 90.176 20.262 90.4081 20.5337C90.6405 20.8057 90.7566 21.1971 90.7566 21.7081V24.4185Z" fill="#95A1A7"/>
<path fill-rule="evenodd" clip-rule="evenodd" d="M94.0657 24.381C93.9359 24.4158 93.7949 24.4447 93.6421 24.4669C93.4891 24.4894 93.353 24.5005 93.2332 24.5005C92.815 24.5005 92.4969 24.3863 92.2794 24.1567C92.0619 23.9274 91.953 23.5596 91.953 23.0539V20.8331H91.4873V20.2421H91.953V19.042H92.6425V20.2421H94.0657V20.8331H92.6425V22.736C92.6425 22.9551 92.6474 23.1266 92.6571 23.2502C92.6669 23.3735 92.701 23.4886 92.7597 23.5961C92.8136 23.6954 92.8878 23.7684 92.9818 23.8146C93.0758 23.8608 93.2197 23.8838 93.4129 23.8838C93.5252 23.8838 93.6424 23.8669 93.7648 23.8333C93.8872 23.7997 93.9751 23.7717 94.029 23.7492H94.0657V24.381Z" fill="#95A1A7"/>
</g>
<defs>
<clipPath id="clip0_7798_65233">
<rect width="94" height="26" fill="white" transform="translate(0.28125)"/>
</clipPath>
</defs>
</svg>
