<svg width="16" height="16" viewBox="0 0 16 16" fill="none" xmlns="http://www.w3.org/2000/svg">
<path d="M7.20846 2.59692C7.67207 1.80103 8.82187 1.80103 9.28549 2.59692L10.467 4.62549C10.6368 4.91705 10.9214 5.12377 11.2511 5.1952L13.5455 5.69203C14.4457 5.88697 14.8011 6.98053 14.1873 7.66739L12.6232 9.41791C12.3984 9.66952 12.2897 10.0041 12.3237 10.3398L12.5602 12.6753C12.6529 13.5917 11.7227 14.2676 10.8798 13.8962L8.73159 12.9495C8.42282 12.8135 8.07112 12.8135 7.76235 12.9495L5.61412 13.8962C4.77126 14.2676 3.84101 13.5917 3.93379 12.6753L4.17026 10.3398C4.20425 10.0041 4.09555 9.66952 3.87077 9.41791L2.30662 7.66739C1.69288 6.98053 2.04823 5.88697 2.94844 5.69203L5.24281 5.1952C5.57259 5.12377 5.85713 4.91705 6.02697 4.62549L7.20846 2.59692Z" fill="white"/>
</svg>
