<svg width="161" height="86" viewBox="0 0 161 86" fill="none" xmlns="http://www.w3.org/2000/svg">
<g clip-path="url(#clip0_7798_65236)">
<path d="M7.74804 36.3897H9.70534V48.233H9.26112L2.91815 41.4009C2.67391 41.1381 2.38356 40.7937 2.16619 40.5311C2.19336 40.8572 2.22969 41.2922 2.22969 41.6638V48.1155H0.28125V36.2719H0.743478L7.08645 43.0862C7.32214 43.3399 7.60302 43.6843 7.81917 43.956C7.792 43.6116 7.75567 43.1677 7.75567 42.8233L7.74651 36.3897H7.74804ZM20.3616 43.8565C20.3616 45.5509 19.5642 46.3667 17.9332 46.3667C16.3112 46.3667 15.5214 45.5424 15.5214 43.8565V36.3897H13.4297V43.9469C13.4297 46.6109 15.1513 48.2693 17.9332 48.2693C20.7152 48.2693 22.4368 46.6109 22.4368 43.9469V36.3897H20.3607L20.3616 43.8565ZM37.9049 48.1246H39.981V36.3897H37.9049V48.1246ZM42.9702 38.2655H46.3591V48.1243H48.4351V38.2655H51.824V36.3897H42.9702V38.2655ZM57.804 36.2719L62.9419 48.1152H60.7489L59.9063 46.0309H55.2663L54.4236 48.1152H52.3757L57.3964 36.2719H57.804ZM57.9942 41.3554C57.8491 40.9931 57.6861 40.5217 57.5683 40.1593C57.4596 40.5128 57.3054 40.9836 57.1604 41.3554L56.0002 44.2461H59.1537L57.9942 41.3554ZM69.7016 41.2284L68.9585 40.8926C67.7532 40.3672 67.4091 40.0136 67.4091 39.2889C67.4091 38.5729 67.9257 38.1198 68.732 38.1198C69.5202 38.1198 70.0005 38.4099 70.4264 39.153L70.5079 39.2889L72.1663 38.274L72.094 38.147C71.378 36.8693 70.3088 36.2712 68.7323 36.2712C66.757 36.2712 65.3706 37.5309 65.3706 39.334C65.3706 41.2098 66.4761 42.0796 68.1345 42.8145L68.8864 43.1503C70.1461 43.7121 70.7079 44.1108 70.7079 44.9898C70.7079 45.8324 69.9752 46.3942 68.8864 46.3942C67.5092 46.3942 66.8748 45.6614 66.4037 44.8719L66.3222 44.7449L64.6006 45.6962L64.6641 45.8321C65.1172 46.748 66.2679 48.2877 68.9139 48.2877C71.2608 48.2877 72.7833 46.9919 72.7833 44.9803C72.7827 42.9775 71.6049 42.0622 69.7019 41.2284H69.7016ZM34.4342 40.1773C34.4342 37.8121 32.8213 36.3986 30.1295 36.3986H26.1428V48.1243H28.236V38.2655H30.0574C31.5797 38.2655 32.2861 38.8727 32.2861 40.1776C32.2861 41.4644 31.5613 42.0897 30.0574 42.0897H28.9971L31.9244 47.1101C32.1049 47.4186 32.363 47.6745 32.6729 47.8525C32.9829 48.0305 33.334 48.1244 33.6914 48.1249H34.9148L32.1872 43.5307C32.8725 43.2877 33.4612 42.8301 33.866 42.2261C34.2708 41.622 34.47 40.9035 34.4342 40.1773Z" fill="url(#paint0_linear_7798_65236)"/>
<path d="M85.5688 43.7563C85.5567 43.6289 85.5163 43.5057 85.4504 43.3959C85.3845 43.2861 85.2949 43.1925 85.188 43.1219C84.9373 42.9613 84.6429 42.8822 84.3454 42.8954C84.1318 42.8898 83.9193 42.9267 83.7201 43.0041C83.557 43.0647 83.4152 43.1718 83.3123 43.3121C83.2149 43.4428 83.1638 43.6023 83.1672 43.7652C83.1644 43.8931 83.1989 44.0191 83.2668 44.1276C83.3332 44.2317 83.4232 44.3186 83.5296 44.3813C83.6412 44.4481 83.7596 44.5028 83.8829 44.5443C84.0007 44.5895 84.1271 44.6167 84.2453 44.653L84.8253 44.8057C85.0233 44.8539 85.2173 44.9175 85.4054 44.9959C85.5999 45.0731 85.7829 45.1768 85.9492 45.3039C86.1177 45.4332 86.2567 45.5969 86.357 45.7842C86.4667 45.9934 86.5193 46.2278 86.5097 46.4638C86.5119 46.778 86.4238 47.0863 86.256 47.3519C86.0714 47.6233 85.8138 47.8369 85.5129 47.968C84.7637 48.2549 83.9355 48.2581 83.184 47.9772C82.8855 47.8511 82.626 47.6478 82.4321 47.3882C82.2444 47.1153 82.1376 46.795 82.124 46.4641H83.0121C83.0226 46.6572 83.0958 46.8417 83.2207 46.9895C83.3451 47.137 83.5083 47.2469 83.6918 47.3067C83.8936 47.3727 84.1046 47.4063 84.317 47.4062C84.5461 47.4073 84.7736 47.3674 84.9887 47.2884C85.1699 47.2243 85.3299 47.1114 85.4509 46.962C85.5609 46.8161 85.6184 46.6373 85.6139 46.4546C85.6218 46.2993 85.5699 46.1469 85.4689 46.0287C85.3601 45.9071 85.2232 45.8138 85.0702 45.757C84.8839 45.6795 84.6933 45.6129 84.4993 45.5576L83.8017 45.3674C83.3904 45.2674 83.0085 45.0718 82.687 44.7965C82.5509 44.6713 82.4433 44.5183 82.3714 44.3479C82.2995 44.1776 82.265 43.9937 82.2703 43.8089C82.2643 43.4915 82.3595 43.1805 82.542 42.9207C82.734 42.6629 82.9902 42.4599 83.2851 42.3318C83.6194 42.1871 83.9812 42.1167 84.3454 42.1254C84.707 42.1155 85.0662 42.1868 85.3966 42.3339C85.6853 42.4597 85.9356 42.6599 86.1217 42.914C86.2985 43.1594 86.3936 43.4542 86.3934 43.7567H85.5596L85.5688 43.7563Z" fill="#004C45"/>
<path d="M89.1658 48.1787C88.7757 48.1873 88.3906 48.0902 88.0511 47.8978C87.737 47.7123 87.4848 47.438 87.3263 47.1095C87.1526 46.735 87.0659 46.3261 87.0726 45.9133C87.0669 45.5006 87.1536 45.0919 87.3263 44.7171C87.4863 44.3809 87.7397 44.0979 88.0563 43.9018C88.3728 43.7058 88.7392 43.6051 89.1114 43.6116C89.3576 43.614 89.602 43.6537 89.8362 43.7295C90.0698 43.8153 90.2851 43.9444 90.4707 44.1102C90.6675 44.3026 90.8165 44.5385 90.9057 44.799C91.0214 45.1245 91.0766 45.4684 91.0687 45.8138V46.1218H87.5529V45.4786H90.2172C90.2231 45.2698 90.1731 45.0633 90.0722 44.8805C89.9855 44.7096 89.8539 44.5655 89.6915 44.4637C89.5159 44.3605 89.3152 44.3076 89.1114 44.3111C88.8876 44.3043 88.6667 44.3642 88.477 44.4833C88.3022 44.6007 88.1591 44.7595 88.0603 44.9455C87.9624 45.136 87.9126 45.3475 87.9153 45.5616V46.069C87.9085 46.328 87.9607 46.5851 88.0679 46.821C88.1656 47.0159 88.3164 47.1792 88.503 47.2921C88.7051 47.4042 88.9335 47.4604 89.1646 47.4551C89.318 47.4575 89.4708 47.4361 89.6176 47.3916C89.7488 47.3476 89.8692 47.2766 89.9712 47.1831C90.0723 47.0855 90.1471 46.9638 90.1885 46.8295L90.9951 46.9745C90.9325 47.2097 90.8109 47.4249 90.6416 47.5998C90.4664 47.7831 90.2529 47.9254 90.0163 48.0165C89.7498 48.1376 89.4582 48.1932 89.1658 48.1787Z" fill="#004C45"/>
<path d="M93.6784 48.1787C93.2883 48.1873 92.9031 48.0902 92.5637 47.8978C92.2495 47.7124 91.9972 47.4381 91.8386 47.1095C91.6607 46.7364 91.5738 46.3265 91.5849 45.9133C91.5792 45.5006 91.6659 45.0919 91.8386 44.7171C91.9986 44.3809 92.2521 44.0979 92.5686 43.9018C92.8852 43.7058 93.2515 43.6051 93.6237 43.6116C93.8699 43.6139 94.1143 43.6537 94.3485 43.7295C94.5821 43.8152 94.7974 43.9444 94.983 44.1102C95.1798 44.3026 95.3288 44.5385 95.418 44.799C95.5337 45.1245 95.5889 45.4684 95.581 45.8138V46.1218H92.0652V45.4786H94.7384C94.7443 45.2698 94.6942 45.0633 94.5934 44.8805C94.5067 44.7096 94.375 44.5655 94.2127 44.4637C94.037 44.3605 93.8363 44.3076 93.6326 44.3111C93.4088 44.3043 93.1879 44.3642 92.9982 44.4833C92.8234 44.6007 92.6802 44.7595 92.5814 44.9455C92.4836 45.136 92.4338 45.3475 92.4364 45.5616V46.069C92.4297 46.328 92.4819 46.5851 92.5891 46.821C92.6868 47.0159 92.8376 47.1792 93.0241 47.2921C93.2263 47.4042 93.4546 47.4604 93.6857 47.4551C93.8391 47.4575 93.992 47.4361 94.1388 47.3916C94.2699 47.3476 94.3904 47.2766 94.4923 47.1831C94.5935 47.0855 94.6683 46.9638 94.7097 46.8295L95.5163 46.9745C95.4537 47.2097 95.332 47.4249 95.1628 47.5998C94.9858 47.7852 94.7688 47.9277 94.5284 48.0165C94.2617 48.1366 93.9705 48.1922 93.6784 48.1787Z" fill="#004C45"/>
<path d="M99.1159 45.4782V48.0971H98.2549V43.684H99.0792V44.4088H99.1336C99.2336 44.1775 99.401 43.9818 99.6138 43.847C99.8615 43.6966 100.149 43.624 100.438 43.6385C100.713 43.6314 100.985 43.697 101.226 43.8287C101.458 43.9543 101.642 44.1514 101.752 44.3904C101.882 44.6809 101.947 44.9964 101.942 45.3146V48.1328H101.081V45.4239C101.094 45.1503 101.003 44.8819 100.827 44.6719C100.739 44.5797 100.632 44.5077 100.513 44.4608C100.394 44.4139 100.266 44.3932 100.139 44.4002C99.9543 44.3966 99.7724 44.4436 99.6129 44.5361C99.4576 44.625 99.3317 44.7573 99.2505 44.9168C99.1519 45.0869 99.1052 45.282 99.1159 45.4782ZM104.136 48.1954C103.877 48.1993 103.621 48.1472 103.384 48.0428C103.163 47.9453 102.977 47.7844 102.849 47.5806C102.716 47.3596 102.647 47.1059 102.65 46.8478C102.639 46.6329 102.69 46.4195 102.795 46.2317C102.89 46.0771 103.021 45.9467 103.175 45.851C103.345 45.7537 103.528 45.6833 103.719 45.6425C103.922 45.5924 104.128 45.556 104.335 45.5338C104.598 45.4975 104.816 45.4795 104.979 45.4614C105.105 45.4521 105.228 45.4183 105.341 45.3619C105.377 45.3389 105.406 45.3065 105.425 45.2682C105.444 45.2299 105.453 45.1872 105.45 45.1445V45.1174C105.459 45.0113 105.445 44.9046 105.409 44.8044C105.373 44.7042 105.316 44.6131 105.241 44.5373C105.156 44.4623 105.057 44.4052 104.95 44.3694C104.842 44.3336 104.729 44.3197 104.616 44.3288C104.375 44.3157 104.136 44.3826 103.936 44.519C103.788 44.6283 103.672 44.7754 103.6 44.9449L102.794 44.7547C102.88 44.5105 103.023 44.2902 103.211 44.1114C103.397 43.9512 103.612 43.8282 103.845 43.749C104.095 43.6749 104.355 43.6383 104.615 43.6403C104.804 43.6405 104.993 43.6618 105.177 43.7038C105.375 43.7484 105.565 43.8249 105.739 43.9304C105.921 44.0461 106.069 44.2088 106.166 44.4014C106.284 44.647 106.34 44.9176 106.329 45.1897V48.1237H105.487V47.5262H105.45C105.383 47.6476 105.298 47.7577 105.197 47.8526C105.075 47.97 104.929 48.0597 104.769 48.1154C104.564 48.1782 104.35 48.2056 104.136 48.1967V48.1954ZM104.317 47.5067C104.532 47.5136 104.744 47.4635 104.933 47.3616C105.093 47.277 105.226 47.148 105.314 46.9901C105.403 46.8426 105.45 46.6737 105.45 46.5016V45.9307C105.398 45.9706 105.34 46.0016 105.278 46.0223C105.186 46.0403 105.088 46.0675 104.979 46.0858C104.87 46.1041 104.762 46.1221 104.653 46.131C104.564 46.1354 104.476 46.1476 104.39 46.1673C104.232 46.1842 104.077 46.2207 103.928 46.276C103.802 46.3189 103.689 46.3939 103.601 46.4934C103.522 46.6009 103.481 46.7315 103.483 46.8649C103.477 46.9596 103.496 47.0542 103.539 47.1388C103.582 47.2234 103.647 47.2947 103.728 47.3452C103.904 47.4553 104.109 47.5118 104.317 47.5079L104.317 47.5067ZM109.274 43.6828V44.3715H106.862V43.684L109.274 43.6828ZM107.507 42.6142H108.359V46.7831C108.347 46.9114 108.372 47.0403 108.431 47.1547C108.45 47.1952 108.478 47.2309 108.512 47.2592C108.547 47.2874 108.587 47.3074 108.631 47.3177C108.714 47.3525 108.804 47.368 108.893 47.3629C108.957 47.3646 109.021 47.3615 109.084 47.3537C109.123 47.3453 109.162 47.3392 109.202 47.3357L109.354 48.0516C109.287 48.0785 109.217 48.0967 109.146 48.106C109.035 48.1291 108.923 48.1412 108.81 48.1423C108.593 48.1453 108.377 48.1052 108.175 48.0245C107.982 47.941 107.819 47.8022 107.704 47.6257C107.574 47.4263 107.508 47.1921 107.514 46.9541V42.6148L107.507 42.6142ZM112.781 46.2659V43.684H113.642V48.0968H112.799V47.3268H112.754C112.652 47.5667 112.482 47.7714 112.265 47.9158C112.017 48.0753 111.726 48.1544 111.431 48.1423C111.168 48.1473 110.908 48.0816 110.679 47.9521C110.457 47.8182 110.278 47.6232 110.163 47.3903C110.032 47.0999 109.968 46.7844 109.972 46.4662V43.684H110.833V46.3835C110.825 46.6481 110.916 46.9064 111.087 47.1083C111.17 47.1947 111.27 47.2627 111.381 47.308C111.492 47.3533 111.611 47.3748 111.73 47.3711C111.897 47.3665 112.061 47.3263 112.211 47.2533C112.377 47.1759 112.516 47.0495 112.609 46.8909C112.723 46.7027 112.783 46.4865 112.781 46.2665V46.2659ZM114.539 48.0977V43.684H115.372V44.3816H115.417C115.485 44.1479 115.637 43.9474 115.843 43.8189C116.047 43.6824 116.287 43.6098 116.532 43.6104C116.596 43.6093 116.659 43.6124 116.722 43.6196C116.795 43.6196 116.858 43.6287 116.895 43.6287V44.453C116.858 44.4439 116.795 44.435 116.704 44.4167C116.617 44.4062 116.529 44.4002 116.441 44.3987C116.26 44.394 116.08 44.4366 115.919 44.5222C115.759 44.6078 115.623 44.7335 115.526 44.8872C115.43 45.0426 115.38 45.2214 115.381 45.4037V48.095L114.539 48.0977ZM119.151 48.1793C118.758 48.1866 118.37 48.0897 118.027 47.8984C117.713 47.713 117.461 47.4387 117.302 47.1101C117.128 46.7356 117.042 46.3267 117.048 45.9139C117.043 45.5012 117.129 45.0925 117.302 44.7177C117.462 44.3883 117.71 44.1092 118.018 43.9111C118.339 43.7135 118.709 43.61 119.087 43.6122C119.333 43.6145 119.577 43.6543 119.812 43.7301C120.049 43.8088 120.265 43.9388 120.446 44.1108C120.643 44.3032 120.792 44.5391 120.881 44.7996C120.997 45.1251 121.052 45.469 121.044 45.8144V46.1224H117.528V45.4782H120.202C120.207 45.2695 120.157 45.063 120.057 44.8801C119.97 44.7093 119.838 44.5652 119.676 44.4634C119.5 44.3601 119.3 44.3073 119.096 44.3108C118.872 44.304 118.651 44.3639 118.461 44.483C118.287 44.6004 118.143 44.7592 118.045 44.9452C117.947 45.1356 117.897 45.3472 117.9 45.5613V46.0687C117.893 46.3277 117.945 46.5848 118.052 46.8207C118.15 47.0156 118.301 47.1789 118.487 47.2917C118.689 47.4038 118.918 47.4601 119.149 47.4548C119.302 47.4572 119.455 47.4358 119.602 47.3913C119.733 47.3473 119.854 47.2762 119.955 47.1827C120.057 47.0851 120.131 46.9635 120.173 46.8292L120.979 46.9742C120.917 47.2094 120.795 47.4246 120.626 47.5995C120.451 47.7828 120.238 47.9251 120.001 48.0162C119.731 48.1245 119.442 48.1797 119.151 48.1786V48.1793ZM125.394 48.1793C125.057 48.1865 124.725 48.0918 124.443 47.9075C124.161 47.7034 123.933 47.4325 123.781 47.1192C123.612 46.7339 123.529 46.3165 123.537 45.8959C123.52 45.4745 123.604 45.0552 123.781 44.6725C123.925 44.3564 124.154 44.0865 124.443 43.8931C124.728 43.7152 125.058 43.621 125.394 43.6214C125.622 43.6123 125.85 43.6589 126.056 43.7572C126.207 43.8383 126.342 43.9457 126.454 44.0745C126.536 44.1737 126.609 44.2799 126.672 44.3917H126.726V42.1889H127.587V48.0788H126.745V47.391H126.672C126.611 47.5041 126.538 47.6104 126.455 47.7082C126.344 47.8389 126.208 47.9467 126.056 48.0254C125.856 48.1426 125.625 48.1961 125.394 48.1786V48.1793ZM125.576 47.4465C125.801 47.4572 126.023 47.3865 126.201 47.2472C126.38 47.1044 126.517 46.9168 126.6 46.7034C126.696 46.4396 126.742 46.16 126.735 45.8791C126.741 45.6041 126.695 45.3304 126.6 45.0725C126.523 44.8636 126.391 44.679 126.219 44.5379C126.031 44.4081 125.809 44.3385 125.58 44.3385C125.352 44.3385 125.129 44.4081 124.941 44.5379C124.763 44.6806 124.625 44.8683 124.543 45.0817C124.448 45.3334 124.402 45.6009 124.407 45.8699C124.402 46.1419 124.448 46.4123 124.543 46.6674C124.617 46.8901 124.756 47.0857 124.941 47.2291C125.119 47.3769 125.345 47.4536 125.576 47.4444V47.4465ZM129.082 43.0065C129.012 43.0074 128.942 42.9944 128.877 42.9682C128.811 42.942 128.752 42.9031 128.702 42.8539C128.65 42.8084 128.609 42.7526 128.581 42.6902C128.553 42.6277 128.538 42.56 128.538 42.4915C128.538 42.423 128.553 42.3552 128.581 42.2928C128.609 42.2303 128.65 42.1745 128.702 42.1291C128.804 42.0303 128.94 41.975 129.082 41.975C129.224 41.975 129.361 42.0303 129.463 42.1291C129.514 42.1745 129.555 42.2303 129.583 42.2928C129.611 42.3552 129.626 42.423 129.626 42.4915C129.626 42.56 129.611 42.6277 129.583 42.6902C129.555 42.7526 129.514 42.8084 129.463 42.8539C129.36 42.9511 129.224 43.005 129.082 43.0044V43.0065ZM128.647 48.099V43.684H129.499V48.0968L128.647 48.099ZM132.598 43.6861V44.3749H130.098V43.684L132.598 43.6861ZM130.795 48.099V43.1674C130.786 42.9237 130.852 42.6832 130.985 42.4786C131.102 42.2966 131.269 42.152 131.465 42.0619C131.668 41.971 131.887 41.9247 132.109 41.926C132.255 41.9201 132.402 41.9354 132.544 41.9712C132.662 42.0076 132.761 42.0256 132.815 42.0436L132.616 42.7412C132.564 42.732 132.512 42.7169 132.463 42.696C132.388 42.6848 132.313 42.6788 132.237 42.678C132.155 42.6707 132.072 42.6804 131.994 42.7067C131.916 42.733 131.845 42.7752 131.784 42.8307C131.684 42.9597 131.636 43.1211 131.648 43.2837V48.0953L130.795 48.099ZM135.081 43.6861V44.3749H132.589V43.684L135.081 43.6861ZM133.278 48.099V43.1674C133.269 42.9237 133.335 42.6832 133.468 42.4786C133.59 42.3008 133.755 42.1573 133.948 42.0619C134.151 41.971 134.37 41.9247 134.592 41.926C134.738 41.9201 134.885 41.9354 135.027 41.9712C135.145 42.0076 135.244 42.0256 135.298 42.0436L135.099 42.7412C135.047 42.732 134.995 42.7169 134.946 42.696C134.871 42.6848 134.796 42.6788 134.72 42.678C134.638 42.6706 134.555 42.6804 134.477 42.7067C134.399 42.733 134.328 42.7752 134.267 42.8307C134.167 42.9597 134.119 43.1211 134.131 43.2837V48.0953L133.278 48.099ZM137.446 48.1805C137.056 48.1891 136.671 48.092 136.332 47.8996C136.017 47.7142 135.765 47.4399 135.607 47.1113C135.429 46.7382 135.342 46.3283 135.353 45.9151C135.347 45.5025 135.434 45.0938 135.607 44.719C135.767 44.3827 136.02 44.0997 136.337 43.9037C136.653 43.7076 137.019 43.6069 137.392 43.6135C137.638 43.6158 137.882 43.6555 138.116 43.7313C138.35 43.8171 138.565 43.9462 138.751 44.112C138.948 44.3044 139.097 44.5403 139.186 44.8008C139.302 45.1263 139.357 45.4702 139.349 45.8156V46.1236H135.833V45.4782H138.506C138.512 45.2695 138.462 45.063 138.361 44.8801C138.275 44.7093 138.143 44.5652 137.981 44.4634C137.805 44.3601 137.604 44.3073 137.4 44.3108C137.177 44.304 136.956 44.3639 136.766 44.483C136.591 44.6004 136.448 44.7592 136.349 44.9452C136.251 45.1356 136.202 45.3472 136.204 45.5613V46.0687C136.198 46.3277 136.25 46.5848 136.357 46.8207C136.455 47.0156 136.606 47.1789 136.792 47.2917C136.994 47.4038 137.223 47.4601 137.454 47.4548C137.607 47.4572 137.76 47.4358 137.907 47.3913C138.038 47.3472 138.158 47.2762 138.26 47.1827C138.361 47.0851 138.436 46.9635 138.477 46.8292L139.284 46.9742C139.221 47.2094 139.1 47.4246 138.93 47.5995C138.753 47.7849 138.536 47.9274 138.296 48.0162C138.031 48.1398 137.739 48.1956 137.446 48.1786V48.1805ZM140.056 48.099V43.684H140.89V44.3816H140.935C141.003 44.148 141.155 43.9478 141.362 43.8198C141.566 43.6833 141.806 43.6107 142.051 43.6113C142.115 43.6103 142.178 43.6133 142.241 43.6205C142.314 43.6205 142.377 43.6296 142.414 43.6296V44.4539C142.377 44.4448 142.314 44.4359 142.223 44.4176C142.136 44.4071 142.048 44.4011 141.961 44.3996C141.779 44.3949 141.599 44.4375 141.438 44.5231C141.278 44.6087 141.142 44.7345 141.045 44.8881C140.949 45.0435 140.899 45.2223 140.9 45.4047V48.0959L140.056 48.099ZM144.668 48.1805C144.275 48.1878 143.888 48.0909 143.545 47.8996C143.231 47.7142 142.978 47.4399 142.82 47.1113C142.642 46.7382 142.555 46.3283 142.566 45.9151C142.56 45.5025 142.647 45.0937 142.82 44.719C142.98 44.3895 143.228 44.1104 143.536 43.9123C143.855 43.7107 144.227 43.6068 144.604 43.6135C144.851 43.6157 145.095 43.6555 145.33 43.7313C145.564 43.8142 145.78 43.9437 145.964 44.112C146.161 44.3045 146.31 44.5404 146.399 44.8008C146.515 45.1263 146.57 45.4702 146.562 45.8156V46.1236H143.046V45.4782H145.719C145.725 45.2695 145.675 45.063 145.574 44.8801C145.488 44.7093 145.356 44.5653 145.194 44.4634C145.018 44.3601 144.818 44.3073 144.614 44.3108C144.39 44.304 144.169 44.3639 143.979 44.483C143.805 44.6004 143.662 44.7592 143.563 44.9452C143.465 45.1356 143.415 45.3472 143.418 45.5613V46.0687C143.411 46.3277 143.463 46.5848 143.57 46.8207C143.668 47.0156 143.819 47.1789 144.005 47.2917C144.208 47.4038 144.436 47.4601 144.667 47.4548C144.82 47.4572 144.973 47.4358 145.12 47.3913C145.251 47.3473 145.372 47.2762 145.474 47.1827C145.575 47.0851 145.65 46.9635 145.691 46.8292L146.498 46.9742C146.435 47.2094 146.313 47.4246 146.144 47.5995C145.967 47.7849 145.75 47.9274 145.51 48.0162C145.247 48.1391 144.958 48.1949 144.668 48.1786V48.1805ZM148.139 45.4801V48.099H147.278V43.684H148.102V44.4088H148.157C148.257 44.1775 148.424 43.9818 148.637 43.847C148.885 43.6966 149.172 43.624 149.461 43.6385C149.736 43.6314 150.008 43.697 150.249 43.8287C150.481 43.9543 150.665 44.1514 150.775 44.3904C150.905 44.6809 150.97 44.9964 150.965 45.3146V48.1328H150.104V45.4239C150.117 45.1503 150.027 44.8819 149.851 44.6719C149.762 44.5797 149.655 44.5077 149.536 44.4608C149.417 44.4139 149.29 44.3932 149.162 44.4002C148.978 44.3967 148.796 44.4437 148.637 44.5361C148.481 44.625 148.355 44.7573 148.274 44.9168C148.175 45.0868 148.128 45.2819 148.139 45.4782V45.4801ZM153.92 43.6858V44.3746H151.508V43.684L153.92 43.6858ZM152.162 42.6172H153.023V46.7831C153.011 46.9114 153.036 47.0403 153.096 47.1547C153.114 47.1952 153.142 47.2309 153.176 47.2592C153.211 47.2874 153.251 47.3074 153.295 47.3177C153.378 47.3525 153.468 47.368 153.558 47.3629C153.621 47.3646 153.685 47.3615 153.748 47.3537C153.787 47.3453 153.826 47.3392 153.866 47.3357L154.018 48.0516C153.951 48.0785 153.881 48.0967 153.81 48.106C153.694 48.1299 153.575 48.1421 153.456 48.1423C153.239 48.1453 153.024 48.1052 152.822 48.0245C152.629 47.941 152.465 47.8022 152.351 47.6257C152.221 47.4263 152.155 47.1921 152.161 46.9541V42.6148L152.162 42.6172ZM155.578 42.2185V48.1084H154.726V42.2161L155.578 42.2185ZM157.028 49.7397C156.909 49.7425 156.79 49.7303 156.675 49.7033C156.592 49.6889 156.51 49.6677 156.43 49.6398L156.639 48.9422C156.83 49.0041 157.035 49.0073 157.228 48.9514C157.391 48.897 157.527 48.7248 157.636 48.4348L157.744 48.1359L156.149 43.6867H157.074L158.188 47.1119H158.234L159.348 43.6867L160.282 43.6959L158.45 48.6888C158.368 48.8945 158.262 49.0893 158.133 49.2689C158.003 49.4214 157.842 49.5449 157.662 49.6313C157.459 49.7068 157.244 49.7427 157.028 49.7372V49.7397Z" fill="url(#paint1_linear_7798_65236)"/>
<path d="M77.5488 48.0971V36.2627" stroke="#004C45" stroke-width="2"/>
</g>
<defs>
<linearGradient id="paint0_linear_7798_65236" x1="0.28125" y1="54.1036" x2="72.7833" y2="54.1036" gradientUnits="userSpaceOnUse">
<stop stop-color="#4DAA50"/>
<stop offset="1" stop-color="#00AAA1"/>
</linearGradient>
<linearGradient id="paint1_linear_7798_65236" x1="98.2549" y1="50.5528" x2="160.282" y2="50.5528" gradientUnits="userSpaceOnUse">
<stop stop-color="#4DAA50"/>
<stop offset="1" stop-color="#00AAA1"/>
</linearGradient>
<clipPath id="clip0_7798_65236">
<rect width="160" height="13.4745" fill="white" transform="translate(0.28125 36.2627)"/>
</clipPath>
</defs>
</svg>
