<svg width="160" height="26" viewBox="0 0 160 26" fill="none" xmlns="http://www.w3.org/2000/svg">
<path fill-rule="evenodd" clip-rule="evenodd" d="M160.001 22.33V25.8468H149.284C148.119 25.8468 147.51 25.2369 147.51 24.0884C147.51 22.9319 148.119 22.33 149.284 22.33H160.001ZM148.88 0.650769C151.735 0.663348 154.469 1.80927 156.48 3.83667C158.491 5.86406 159.615 8.60702 159.605 11.4626C159.613 14.3169 158.488 17.0578 156.477 19.0835C154.467 21.1092 151.734 22.254 148.88 22.2666C146.027 22.2519 143.296 21.1062 141.287 19.0807C139.278 17.0552 138.155 14.3155 138.163 11.4626C138.152 8.60838 139.275 5.86662 141.285 3.83945C143.294 1.81229 146.026 0.66544 148.88 0.650769ZM133.981 0.587402C135.121 0.587402 135.723 1.20522 135.723 2.3775V21.7597H132.238V2.3775C132.238 1.20522 132.832 0.587402 133.981 0.587402ZM148.88 4.12799C146.944 4.13847 145.091 4.91661 143.727 6.29167C142.364 7.66673 141.602 9.5264 141.609 11.4626C141.609 15.5022 144.872 18.7894 148.88 18.7894C150.816 18.781 152.67 18.0048 154.035 16.6313C155.399 15.2577 156.163 13.3989 156.159 11.4626C156.159 7.42304 152.896 4.12799 148.88 4.12799Z" fill="#426EFF"/>
<path fill-rule="evenodd" clip-rule="evenodd" d="M62.1782 5.68811C63.4692 5.68811 64.6178 5.9099 65.6237 6.36138C67.032 6.9722 68.2288 7.98488 69.0643 9.27264C69.8998 10.5604 70.3368 12.066 70.3207 13.601V14.1158C70.3124 16.1125 69.5678 18.0359 68.2296 19.5178C67.463 20.3496 66.5248 21.005 65.4799 21.4385C64.4351 21.872 63.3085 22.0734 62.1782 22.0287C60.8554 22.0287 59.691 21.799 58.6851 21.3396C57.2897 20.7215 56.1062 19.7076 55.2812 18.4237C54.4562 17.1397 54.0258 15.6419 54.0435 14.1158V13.601C54.0502 11.5857 54.8134 9.64648 56.1821 8.16732C56.9038 7.39828 57.7742 6.78388 58.7405 6.36138C59.7465 5.9099 60.895 5.68811 62.1782 5.68811ZM28.594 5.68811C29.8614 5.68811 31.0019 5.92574 32.0158 6.40098C33.0141 6.84241 33.8692 7.55381 34.485 8.45504C35.1007 9.35628 35.4526 10.4115 35.501 11.502H32.8871C32.7626 10.5707 32.2934 9.72002 31.5722 9.11781C30.7293 8.4399 29.6664 8.09593 28.5861 8.15148C27.5089 8.15148 26.6059 8.40494 25.8851 8.89603C25.1567 9.40141 24.5922 10.1091 24.2614 10.9317C23.8878 11.8628 23.7047 12.8593 23.7227 13.8624C23.7227 14.9079 23.9049 15.8742 24.2614 16.7376C24.5945 17.5698 25.1646 18.2859 25.901 18.797C26.6297 19.3119 27.5406 19.5653 28.6416 19.5653C29.497 19.5653 30.2336 19.4069 30.8594 19.1059C31.4543 18.8229 31.9709 18.3987 32.3643 17.8703C32.7524 17.3554 32.9742 16.7772 33.0534 16.1277H35.6673C35.6401 17.2469 35.2817 18.3329 34.6376 19.2485C33.9911 20.137 33.1263 20.8436 32.1267 21.3C31.097 21.7831 29.9326 22.0287 28.6416 22.0287C27.4715 22.057 26.3101 21.8215 25.2435 21.3396C24.3228 20.9108 23.5106 20.28 22.8673 19.494C22.2464 18.7306 21.7688 17.8612 21.4574 16.9277C21.1406 15.9931 20.9901 15.0505 20.9901 14.1158V13.601C20.9901 12.6267 21.1485 11.6683 21.4653 10.7337C21.7725 9.80632 22.2537 8.94607 22.8831 8.199C23.5801 7.3742 24.456 6.7193 25.4443 6.28418C26.4326 5.84907 27.5071 5.6452 28.5861 5.68811H28.594ZM45.1168 5.68811C46.3841 5.68811 47.5247 5.92574 48.5386 6.40098C49.5368 6.84241 50.392 7.55381 51.0077 8.45504C51.6235 9.35628 51.9754 10.4115 52.0237 11.502H49.4099C49.2874 10.5719 48.8211 9.72134 48.1029 9.11781C47.26 8.4399 46.1971 8.09593 45.1168 8.15148C44.0316 8.15148 43.1366 8.40494 42.4079 8.89603C41.6823 9.40256 41.1207 10.1101 40.792 10.9317C40.4158 11.8622 40.23 12.8588 40.2455 13.8624C40.2455 14.9079 40.4277 15.8742 40.792 16.7376C41.123 17.5688 41.6903 18.2847 42.4237 18.797C43.1524 19.3119 44.0712 19.5653 45.1722 19.5653C46.0198 19.5653 46.7564 19.4069 47.3901 19.1059C48.0158 18.797 48.5148 18.3931 48.895 17.8703C49.2752 17.3554 49.5049 16.7772 49.5762 16.1277H52.19C52.1628 17.2469 51.8045 18.3329 51.1603 19.2485C50.5158 20.1357 49.6539 20.8422 48.6574 21.3C47.6277 21.7831 46.4633 22.0287 45.1722 22.0287C43.9995 22.0585 42.8352 21.8229 41.7663 21.3396C40.8456 20.9108 40.0334 20.28 39.3901 19.494C38.7724 18.7297 38.2975 17.8604 37.9881 16.9277C37.6712 15.9931 37.5128 15.0505 37.5128 14.1158V13.601C37.5128 12.6267 37.6712 11.6683 37.9881 10.7337C38.3049 9.799 38.7802 8.95148 39.4138 8.199C40.1104 7.37374 40.9863 6.71852 41.9746 6.28336C42.963 5.84821 44.0377 5.64461 45.1168 5.68811ZM75.8098 6.17128V15.6049C75.8098 16.8089 76.1267 17.7515 76.7762 18.4327C77.1162 18.7758 77.5247 19.0435 77.975 19.2182C78.4254 19.3929 78.9076 19.4707 79.39 19.4465C80.5306 19.4465 81.4573 19.0822 82.1781 18.3455C82.8989 17.6089 83.2633 16.603 83.2633 15.3198V6.17128H85.988V21.5138H83.8257V18.0604V18.0921L83.5722 18.7732C83.2379 19.7283 82.6186 20.5577 81.7979 21.1495C80.9038 21.7284 79.8523 22.0161 78.788 21.9732H78.6772C76.8791 21.9732 75.493 21.3792 74.5267 20.1911C73.5603 19.003 73.0772 17.3 73.0772 15.0663V6.17128H75.8098ZM122.78 5.74356C124.483 5.74356 125.869 6.12376 126.931 6.89207C127.984 7.65247 128.538 8.79306 128.578 10.298H126.02C126.007 9.99133 125.925 9.69154 125.779 9.42125C125.634 9.15095 125.429 8.9172 125.18 8.73761C124.634 8.30989 123.834 8.09603 122.772 8.09603C121.711 8.09603 120.903 8.31781 120.356 8.75346C120.097 8.94601 119.888 9.19711 119.745 9.48622C119.602 9.77532 119.529 10.0942 119.533 10.4168C119.533 10.995 119.723 11.4465 120.111 11.795C120.507 12.1356 121.14 12.3574 122.036 12.4525L123.683 12.6267C125.091 12.719 126.449 13.1897 127.612 13.9891C128.094 14.3472 128.481 14.8185 128.737 15.3614C128.994 15.9043 129.114 16.502 129.085 17.102C129.085 18.0525 128.816 18.9 128.277 19.6366C127.701 20.4004 126.929 20.9943 126.043 21.3554C125.093 21.7673 124.008 21.9732 122.772 21.9732C120.784 21.9732 119.239 21.5455 118.154 20.6822C117.619 20.2649 117.188 19.7297 116.894 19.1183C116.6 18.5069 116.451 17.8358 116.459 17.1574H119.018C119.089 17.8093 119.409 18.4084 119.913 18.8287C120.467 19.3594 121.426 19.6208 122.772 19.6208C123.984 19.6208 124.911 19.3831 125.56 18.8921C125.855 18.6948 126.097 18.4287 126.265 18.1167C126.434 17.8048 126.523 17.4565 126.527 17.102C126.527 16.4683 126.289 15.9772 125.814 15.6208C125.12 15.1949 124.33 14.9523 123.517 14.9158L121.861 14.7495C120.586 14.6582 119.363 14.2048 118.337 13.4426C117.884 13.0838 117.523 12.622 117.285 12.0957C117.046 11.5694 116.937 10.9938 116.966 10.4168C116.966 9.44257 117.22 8.61088 117.711 7.90593C118.228 7.19125 118.936 6.63675 119.754 6.30593C120.626 5.93366 121.632 5.75148 122.772 5.75148L122.78 5.74356ZM109.948 1.86237V6.20296H115.176V8.26237H109.948V16.6426C109.948 17.4584 110.17 18.1 110.614 18.5435C111.057 18.995 111.691 19.2168 112.507 19.2168H115.176V21.6881H112.847C111.707 21.6881 110.725 21.5297 109.901 21.197C109.088 20.8806 108.414 20.2854 108 19.5178C107.548 18.7257 107.327 17.6485 107.327 16.294V8.27029H104.713V6.20296H107.327V1.8703H109.94L109.948 1.86237ZM10.2812 0.5H10.3445C10.7643 0.515842 11.4535 0.70594 11.8574 1.64851L19.9604 20.0802L20.2297 20.7138L20.3247 20.9515L20.5703 21.5614L17.5208 21.5772L15.3742 16.4921H5.20396L3.0495 21.5693H0L0.0396039 21.4663L0.110891 21.3L0.245544 20.9673L0.340594 20.7218L0.6099 20.0881L8.71286 1.64851C9.14059 0.658416 9.88514 0.5 10.2891 0.5H10.2812ZM97.4256 5.74356C99.3425 5.74356 100.752 6.34554 101.679 7.5495C102.598 8.75346 103.057 10.496 103.057 12.7693V21.5138H100.325V12.199C100.325 11.0109 99.9999 10.0604 99.3346 9.34752C98.9827 8.98286 98.5566 8.69799 98.0852 8.51215C97.6138 8.32631 97.1079 8.24383 96.6019 8.27029C95.4138 8.27029 94.4395 8.64257 93.7029 9.3792C93.3253 9.77579 93.0323 10.245 92.8417 10.7583C92.651 11.2717 92.5668 11.8184 92.594 12.3653V21.5138H89.8613V6.20296H92.0237V9.68811C92.0554 9.5693 92.1346 9.34752 92.293 8.94356C92.6452 7.97383 93.2972 7.14152 94.1544 6.56732C95.1041 5.98834 96.2033 5.70184 97.3148 5.74356H97.4256ZM62.1782 8.15148C61.0851 8.15148 60.1188 8.40494 59.3108 8.89603C58.5047 9.38288 57.8537 10.0889 57.4336 10.9317C56.9842 11.8423 56.7588 12.8471 56.7762 13.8624C56.7762 14.9317 56.99 15.898 57.4098 16.7534C57.8384 17.6405 58.5198 18.3808 59.3683 18.8812C60.2169 19.3816 61.1946 19.6196 62.1782 19.5653C63.1614 19.6175 64.1382 19.3786 64.9863 18.8785C65.8345 18.3783 66.5163 17.6391 66.9465 16.7534C67.3742 15.898 67.5801 14.9317 67.5801 13.8624C67.5801 12.7693 67.3663 11.795 66.9306 10.9317C66.4958 10.0559 65.814 9.32674 64.9694 8.83408C64.1248 8.34142 63.1545 8.10688 62.1782 8.1594V8.15148ZM10.297 4.76138L6.35247 13.8307H14.2336L10.2891 4.76138H10.297Z" fill="white"/>
</svg>
