<svg width="160" height="30" viewBox="0 0 160 30" fill="none" xmlns="http://www.w3.org/2000/svg">
<path fill-rule="evenodd" clip-rule="evenodd" d="M160.001 24.3295V27.8463H149.284C148.119 27.8463 147.51 27.2364 147.51 26.0879C147.51 24.9314 148.119 24.3295 149.284 24.3295H160.001ZM148.88 2.65028C151.735 2.66286 154.469 3.80878 156.48 5.83618C158.491 7.86357 159.615 10.6065 159.605 13.4622C159.613 16.3164 158.488 19.0573 156.478 21.083C154.467 23.1087 151.734 24.2535 148.88 24.2661C146.027 24.2514 143.296 23.1057 141.287 21.0802C139.278 19.0548 138.155 16.315 138.163 13.4622C138.152 10.6079 139.275 7.86613 141.285 5.83897C143.294 3.8118 146.026 2.66495 148.88 2.65028ZM133.981 2.58691C135.121 2.58691 135.723 3.20474 135.723 4.37701V23.7592H132.238V4.37701C132.238 3.20474 132.832 2.58691 133.981 2.58691ZM148.88 6.1275C146.944 6.13798 145.091 6.91612 143.727 8.29118C142.364 9.66624 141.602 11.5259 141.609 13.4622C141.609 17.5017 144.872 20.7889 148.88 20.7889C150.816 20.7805 152.67 20.0044 154.035 18.6308C155.399 17.2572 156.163 15.3984 156.159 13.4622C156.159 9.42255 152.896 6.1275 148.88 6.1275Z" fill="white"/>
<path fill-rule="evenodd" clip-rule="evenodd" d="M62.1782 7.68811C63.4692 7.68811 64.6178 7.9099 65.6237 8.36138C67.032 8.9722 68.2288 9.98488 69.0643 11.2726C69.8998 12.5604 70.3368 14.066 70.3207 15.601V16.1158C70.3124 18.1125 69.5678 20.0359 68.2296 21.5178C67.463 22.3496 66.5248 23.005 65.4799 23.4385C64.4351 23.872 63.3085 24.0734 62.1782 24.0287C60.8554 24.0287 59.691 23.799 58.6851 23.3396C57.2897 22.7215 56.1062 21.7076 55.2812 20.4237C54.4562 19.1397 54.0258 17.6419 54.0435 16.1158V15.601C54.0502 13.5857 54.8134 11.6465 56.1821 10.1673C56.9038 9.39828 57.7742 8.78388 58.7405 8.36138C59.7465 7.9099 60.895 7.68811 62.1782 7.68811ZM28.594 7.68811C29.8614 7.68811 31.0019 7.92574 32.0158 8.40098C33.0141 8.84241 33.8692 9.55381 34.485 10.455C35.1007 11.3563 35.4526 12.4115 35.501 13.502H32.8871C32.7626 12.5707 32.2934 11.72 31.5722 11.1178C30.7293 10.4399 29.6664 10.0959 28.5861 10.1515C27.5089 10.1515 26.6059 10.4049 25.8851 10.896C25.1567 11.4014 24.5922 12.1091 24.2614 12.9317C23.8878 13.8628 23.7047 14.8593 23.7227 15.8624C23.7227 16.9079 23.9049 17.8742 24.2614 18.7376C24.5945 19.5698 25.1646 20.2859 25.901 20.797C26.6297 21.3119 27.5406 21.5653 28.6416 21.5653C29.497 21.5653 30.2336 21.4069 30.8594 21.1059C31.4543 20.8229 31.9709 20.3987 32.3643 19.8703C32.7524 19.3554 32.9742 18.7772 33.0534 18.1277H35.6673C35.6401 19.2469 35.2817 20.3329 34.6376 21.2485C33.9911 22.137 33.1263 22.8436 32.1267 23.3C31.097 23.7831 29.9326 24.0287 28.6416 24.0287C27.4715 24.057 26.3101 23.8215 25.2435 23.3396C24.3228 22.9108 23.5106 22.28 22.8673 21.494C22.2464 20.7306 21.7688 19.8612 21.4574 18.9277C21.1406 17.9931 20.9901 17.0505 20.9901 16.1158V15.601C20.9901 14.6267 21.1485 13.6683 21.4653 12.7337C21.7725 11.8063 22.2537 10.9461 22.8831 10.199C23.5801 9.3742 24.456 8.7193 25.4443 8.28418C26.4326 7.84907 27.5071 7.6452 28.5861 7.68811H28.594ZM45.1168 7.68811C46.3841 7.68811 47.5247 7.92574 48.5386 8.40098C49.5368 8.84241 50.392 9.55381 51.0077 10.455C51.6235 11.3563 51.9754 12.4115 52.0237 13.502H49.4099C49.2874 12.5719 48.8211 11.7213 48.1029 11.1178C47.26 10.4399 46.1971 10.0959 45.1168 10.1515C44.0316 10.1515 43.1366 10.4049 42.4079 10.896C41.6823 11.4026 41.1207 12.1101 40.792 12.9317C40.4158 13.8622 40.23 14.8588 40.2455 15.8624C40.2455 16.9079 40.4277 17.8742 40.792 18.7376C41.123 19.5688 41.6903 20.2847 42.4237 20.797C43.1524 21.3119 44.0712 21.5653 45.1722 21.5653C46.0198 21.5653 46.7564 21.4069 47.3901 21.1059C48.0158 20.797 48.5148 20.3931 48.895 19.8703C49.2752 19.3554 49.5049 18.7772 49.5762 18.1277H52.19C52.1628 19.2469 51.8045 20.3329 51.1603 21.2485C50.5158 22.1357 49.6539 22.8422 48.6574 23.3C47.6277 23.7831 46.4633 24.0287 45.1722 24.0287C43.9995 24.0585 42.8352 23.8229 41.7663 23.3396C40.8456 22.9108 40.0334 22.28 39.3901 21.494C38.7724 20.7297 38.2975 19.8604 37.9881 18.9277C37.6712 17.9931 37.5128 17.0505 37.5128 16.1158V15.601C37.5128 14.6267 37.6712 13.6683 37.9881 12.7337C38.3049 11.799 38.7802 10.9515 39.4138 10.199C40.1104 9.37374 40.9863 8.71852 41.9746 8.28336C42.963 7.84821 44.0377 7.64461 45.1168 7.68811ZM75.8098 8.17128V17.6049C75.8098 18.8089 76.1267 19.7515 76.7762 20.4327C77.1162 20.7758 77.5247 21.0435 77.975 21.2182C78.4254 21.3929 78.9076 21.4707 79.39 21.4465C80.5306 21.4465 81.4573 21.0822 82.1781 20.3455C82.8989 19.6089 83.2633 18.603 83.2633 17.3198V8.17128H85.988V23.5138H83.8257V20.0604V20.0921L83.5722 20.7732C83.2379 21.7283 82.6186 22.5577 81.7979 23.1495C80.9038 23.7284 79.8523 24.0161 78.788 23.9732H78.6772C76.8791 23.9732 75.493 23.3792 74.5267 22.1911C73.5603 21.003 73.0772 19.3 73.0772 17.0663V8.17128H75.8098ZM122.78 7.74356C124.483 7.74356 125.869 8.12376 126.931 8.89207C127.984 9.65247 128.538 10.7931 128.578 12.298H126.02C126.007 11.9913 125.925 11.6915 125.779 11.4212C125.634 11.151 125.429 10.9172 125.18 10.7376C124.634 10.3099 123.834 10.096 122.772 10.096C121.711 10.096 120.903 10.3178 120.356 10.7535C120.097 10.946 119.888 11.1971 119.745 11.4862C119.602 11.7753 119.529 12.0942 119.533 12.4168C119.533 12.995 119.723 13.4465 120.111 13.795C120.507 14.1356 121.14 14.3574 122.036 14.4525L123.683 14.6267C125.091 14.719 126.449 15.1897 127.612 15.9891C128.094 16.3472 128.481 16.8185 128.737 17.3614C128.994 17.9043 129.114 18.502 129.085 19.102C129.085 20.0525 128.816 20.9 128.277 21.6366C127.701 22.4004 126.929 22.9943 126.043 23.3554C125.093 23.7673 124.008 23.9732 122.772 23.9732C120.784 23.9732 119.239 23.5455 118.154 22.6822C117.619 22.2649 117.188 21.7297 116.894 21.1183C116.6 20.5069 116.451 19.8358 116.459 19.1574H119.018C119.089 19.8093 119.409 20.4084 119.913 20.8287C120.467 21.3594 121.426 21.6208 122.772 21.6208C123.984 21.6208 124.911 21.3831 125.56 20.8921C125.855 20.6948 126.097 20.4287 126.265 20.1167C126.434 19.8048 126.523 19.4565 126.527 19.102C126.527 18.4683 126.289 17.9772 125.814 17.6208C125.12 17.1949 124.33 16.9523 123.517 16.9158L121.861 16.7495C120.586 16.6582 119.363 16.2048 118.337 15.4426C117.884 15.0838 117.523 14.622 117.285 14.0957C117.046 13.5694 116.937 12.9938 116.966 12.4168C116.966 11.4426 117.22 10.6109 117.711 9.90593C118.228 9.19125 118.936 8.63675 119.754 8.30593C120.626 7.93366 121.632 7.75148 122.772 7.75148L122.78 7.74356ZM109.948 3.86237V8.20296H115.176V10.2624H109.948V18.6426C109.948 19.4584 110.17 20.1 110.614 20.5435C111.057 20.995 111.691 21.2168 112.507 21.2168H115.176V23.6881H112.847C111.707 23.6881 110.725 23.5297 109.901 23.197C109.088 22.8806 108.414 22.2854 108 21.5178C107.548 20.7257 107.327 19.6485 107.327 18.294V10.2703H104.713V8.20296H107.327V3.8703H109.94L109.948 3.86237ZM10.2812 2.5H10.3445C10.7643 2.51584 11.4535 2.70594 11.8574 3.64851L19.9604 22.0802L20.2297 22.7138L20.3247 22.9515L20.5703 23.5614L17.5208 23.5772L15.3742 18.4921H5.20396L3.0495 23.5693H0L0.0396039 23.4663L0.110891 23.3L0.245544 22.9673L0.340594 22.7218L0.6099 22.0881L8.71286 3.64851C9.14058 2.65842 9.88514 2.5 10.2891 2.5H10.2812ZM97.4256 7.74356C99.3425 7.74356 100.752 8.34554 101.679 9.5495C102.598 10.7535 103.057 12.496 103.057 14.7693V23.5138H100.325V14.199C100.325 13.0109 99.9999 12.0604 99.3346 11.3475C98.9827 10.9829 98.5566 10.698 98.0852 10.5122C97.6138 10.3263 97.1079 10.2438 96.6019 10.2703C95.4138 10.2703 94.4395 10.6426 93.7029 11.3792C93.3253 11.7758 93.0323 12.245 92.8417 12.7584C92.651 13.2717 92.5668 13.8184 92.594 14.3653V23.5138H89.8613V8.20296H92.0237V11.6881C92.0554 11.5693 92.1346 11.3475 92.293 10.9436C92.6452 9.97383 93.2972 9.14152 94.1544 8.56732C95.1041 7.98834 96.2033 7.70184 97.3148 7.74356H97.4256ZM62.1782 10.1515C61.0851 10.1515 60.1188 10.4049 59.3108 10.896C58.5047 11.3829 57.8537 12.0889 57.4336 12.9317C56.9842 13.8423 56.7588 14.8471 56.7762 15.8624C56.7762 16.9317 56.99 17.898 57.4098 18.7534C57.8384 19.6405 58.5198 20.3808 59.3684 20.8812C60.2169 21.3816 61.1946 21.6196 62.1782 21.5653C63.1614 21.6175 64.1382 21.3786 64.9863 20.8785C65.8345 20.3783 66.5163 19.6391 66.9465 18.7534C67.3742 17.898 67.5801 16.9317 67.5801 15.8624C67.5801 14.7693 67.3663 13.795 66.9306 12.9317C66.4958 12.0559 65.814 11.3267 64.9694 10.8341C64.1248 10.3414 63.1545 10.1069 62.1782 10.1594V10.1515ZM10.297 6.76138L6.35247 15.8307H14.2336L10.2891 6.76138H10.297Z" fill="white"/>
</svg>
