<svg width="24" height="24" viewBox="0 0 24 24" fill="none" xmlns="http://www.w3.org/2000/svg">
<path d="M8.46157 2.39996C8.1302 2.39996 7.86157 2.66859 7.86157 2.99996C7.86157 3.33133 8.1302 3.59996 8.46157 3.59996H17.4616C17.6697 3.59996 17.8693 3.68265 18.0163 3.82973C18.1635 3.97694 18.2462 4.17654 18.2462 4.38458V17.5384C18.2462 17.8698 18.5148 18.1384 18.8462 18.1384C19.1776 18.1384 19.4462 17.8698 19.4462 17.5384V4.38458C19.4462 3.85816 19.237 3.35341 18.8649 2.98129C18.4928 2.60903 17.9879 2.39996 17.4616 2.39996H8.46157Z" fill="#607093"/>
<path d="M7.16919 9.23062C7.16919 8.89924 7.43782 8.63062 7.76919 8.63062H13.3076C13.639 8.63062 13.9076 8.89924 13.9076 9.23062C13.9076 9.56199 13.639 9.83062 13.3076 9.83062H7.76919C7.43782 9.83062 7.16919 9.56199 7.16919 9.23062Z" fill="#607093"/>
<path d="M7.76919 12.0922C7.43782 12.0922 7.16919 12.3609 7.16919 12.6922C7.16919 13.0236 7.43782 13.2922 7.76919 13.2922H13.3076C13.639 13.2922 13.9076 13.0236 13.9076 12.6922C13.9076 12.3609 13.639 12.0922 13.3076 12.0922H7.76919Z" fill="#607093"/>
<path d="M7.16919 16.1539C7.16919 15.8225 7.43782 15.5539 7.76919 15.5539H10.5384C10.8698 15.5539 11.1384 15.8225 11.1384 16.1539C11.1384 16.4853 10.8698 16.7539 10.5384 16.7539H7.76919C7.43782 16.7539 7.16919 16.4853 7.16919 16.1539Z" fill="#607093"/>
<path fill-rule="evenodd" clip-rule="evenodd" d="M4.3999 7.1538C4.3999 6.05774 5.28845 5.16919 6.38452 5.16919H14.6922C15.7883 5.16919 16.6768 6.05774 16.6768 7.1538V19.6153C16.6768 20.7114 15.7883 21.6 14.6922 21.6H6.38452C5.28846 21.6 4.3999 20.7114 4.3999 19.6153V7.1538ZM6.38452 6.36919C5.95119 6.36919 5.5999 6.72048 5.5999 7.1538V19.6153C5.5999 20.0487 5.95119 20.4 6.38452 20.4H14.6922C15.1255 20.4 15.4768 20.0487 15.4768 19.6153V7.1538C15.4768 6.72048 15.1255 6.36919 14.6922 6.36919H6.38452Z" fill="#607093"/>
</svg>
