<svg width="24" height="24" viewBox="0 0 24 24" fill="none" xmlns="http://www.w3.org/2000/svg">
<path d="M12 5.25C11.5858 5.25 11.25 5.58579 11.25 6C11.25 6.41421 11.5858 6.75 12 6.75C13.7949 6.75 15.25 8.20507 15.25 10C15.25 10.4142 15.5858 10.75 16 10.75C16.4142 10.75 16.75 10.4142 16.75 10C16.75 7.37665 14.6234 5.25 12 5.25Z" fill="#607093"/>
<path fill-rule="evenodd" clip-rule="evenodd" d="M6.95429 16.9095C7.15956 17.7306 7.6267 18.4311 8.25319 18.931C8.2455 19.0142 8.25166 19.0989 8.2724 19.1819L8.4767 19.9991C8.69092 20.856 9.20244 21.4474 9.87662 21.803C10.5208 22.1429 11.2768 22.25 12 22.25C12.7232 22.25 13.4792 22.1429 14.1234 21.803C14.7976 21.4474 15.3091 20.856 15.5233 19.9991L15.7276 19.1819C15.7484 19.0989 15.7545 19.0141 15.7468 18.931C16.3733 18.4311 16.8404 17.7306 17.0457 16.9095L17.378 15.5803C18.8394 14.1715 19.75 12.1916 19.75 10C19.75 5.71979 16.2802 2.25 12 2.25C7.71979 2.25 4.25 5.71979 4.25 10C4.25 12.1916 5.16059 14.1715 6.62199 15.5803L6.95429 16.9095ZM12 3.75C8.54822 3.75 5.75 6.54822 5.75 10C5.75 11.8349 6.53972 13.4842 7.80014 14.6286C7.90988 14.7283 7.98763 14.8582 8.02358 15.002L8.40951 16.5457C8.65992 17.5473 9.55988 18.25 10.5923 18.25H13.4077C14.4401 18.25 15.3401 17.5473 15.5905 16.5457L15.9764 15.002C16.0124 14.8582 16.0901 14.7283 16.1999 14.6286C17.4603 13.4842 18.25 11.8349 18.25 10C18.25 6.54822 15.4518 3.75 12 3.75ZM9.9648 19.75H14.0352C13.9188 20.1071 13.7073 20.3266 13.4235 20.4763C13.0807 20.6572 12.5991 20.75 12 20.75C11.4009 20.75 10.9193 20.6572 10.5765 20.4763C10.2928 20.3266 10.0812 20.1071 9.9648 19.75Z" fill="#607093"/>
</svg>
