<svg width="24" height="24" viewBox="0 0 24 24" fill="none" xmlns="http://www.w3.org/2000/svg">
<g id="youtube-solid">
<path id="Vector" fill-rule="evenodd" clip-rule="evenodd" d="M21.3992 5.16866C21.7398 5.52262 21.9817 5.96093 22.1005 6.43931C22.4177 8.21203 22.5717 10.0105 22.5605 11.8118C22.5668 13.5862 22.4128 15.3575 22.1005 17.1037C21.9817 17.5821 21.7398 18.0204 21.3992 18.3744C21.0586 18.7283 20.6313 18.9854 20.1606 19.1197C18.4407 19.5833 11.561 19.5833 11.561 19.5833C11.561 19.5833 4.68139 19.5833 2.96148 19.1197C2.50033 18.9925 2.07951 18.7475 1.73969 18.4085C1.39987 18.0695 1.15254 17.6479 1.02158 17.1843C0.704367 15.4116 0.550387 13.6131 0.561607 11.8118C0.552843 10.024 0.706814 8.23911 1.02158 6.47962C1.14037 6.00125 1.38228 5.56294 1.72289 5.20897C2.06351 4.85501 2.49075 4.59792 2.96148 4.46367C4.68139 4 11.561 4 11.561 4C11.561 4 18.4407 4 20.1606 4.42335C20.6313 4.5576 21.0586 4.81469 21.3992 5.16866ZM15.0609 11.8118L9.31115 15.1079V8.51575L15.0609 11.8118Z" fill="white"/>
</g>
</svg>
