<svg width="24" height="24" viewBox="0 0 24 24" fill="none" xmlns="http://www.w3.org/2000/svg">
<g id="instagram-solid">
<g id="Vector">
<path d="M16.7216 7.32174C16.5894 7.12462 16.5186 6.89271 16.5182 6.65535C16.5177 6.33716 16.6435 6.03179 16.8681 5.80638C17.0927 5.58097 17.3976 5.45399 17.7158 5.45335C17.9532 5.45288 18.1853 5.5228 18.3829 5.65428C18.5805 5.78576 18.7347 5.97289 18.826 6.19201C18.9172 6.41112 18.9415 6.65237 18.8956 6.88525C18.8497 7.11813 18.7358 7.33218 18.5683 7.50033C18.4008 7.66847 18.1871 7.78315 17.9544 7.82988C17.7217 7.8766 17.4804 7.85326 17.2609 7.76281C17.0415 7.67237 16.8538 7.51887 16.7216 7.32174Z" fill="white"/>
<path fill-rule="evenodd" clip-rule="evenodd" d="M12.4003 17.1344C9.56492 17.1398 7.26169 14.846 7.25609 12.01C7.25069 9.17436 9.54491 6.87076 12.3807 6.86515C15.2166 6.85955 17.5204 9.15396 17.5258 11.99C17.5312 14.826 15.2358 17.129 12.4003 17.1344ZM9.61543 10.1533C9.25023 10.7022 9.05601 11.3471 9.05731 12.0064C9.05812 12.4441 9.14517 12.8775 9.31347 13.2816C9.48177 13.6857 9.72804 14.0527 10.0382 14.3616C10.3484 14.6706 10.7163 14.9154 11.1211 15.0821C11.5259 15.2488 11.9596 15.3341 12.3973 15.3332C13.0566 15.3319 13.7007 15.1351 14.2482 14.7677C14.7956 14.4004 15.2219 13.8789 15.4729 13.2693C15.724 12.6597 15.7887 11.9894 15.6588 11.343C15.5289 10.6966 15.2103 10.1033 14.7432 9.63804C14.276 9.17278 13.6815 8.85648 13.0346 8.72914C12.3877 8.6018 11.7176 8.66914 11.109 8.92264C10.5004 9.17614 9.98063 9.60442 9.61543 10.1533Z" fill="white"/>
<path fill-rule="evenodd" clip-rule="evenodd" d="M8.2491 2.06994C7.18509 2.12014 6.45848 2.28994 5.82328 2.53954C5.16587 2.79574 4.60866 3.13954 4.05426 3.69594C3.49985 4.25235 3.15845 4.80995 2.90405 5.46835C2.65784 6.10495 2.49104 6.83215 2.44404 7.89676C2.39704 8.96136 2.38664 9.30356 2.39184 12.0192C2.39704 14.7348 2.40904 15.0752 2.46064 16.142C2.51144 17.2058 2.68064 17.9322 2.93025 18.5676C3.18685 19.225 3.53025 19.782 4.08686 20.3366C4.64346 20.8912 5.20067 21.2318 5.86068 21.4866C6.49668 21.7324 7.22409 21.9 8.2885 21.9466C9.35291 21.9932 9.69552 22.004 12.4103 21.9988C15.1252 21.9936 15.467 21.9816 16.5336 21.931C17.6002 21.8804 18.3228 21.71 18.9584 21.4616C19.6158 21.2044 20.1732 20.8616 20.7274 20.3048C21.2816 19.748 21.6228 19.19 21.877 18.5312C22.1234 17.8952 22.2908 17.1678 22.337 16.1042C22.3836 15.0368 22.3946 14.696 22.3894 11.9808C22.3842 9.26556 22.372 8.92516 22.3214 7.85876C22.2708 6.79236 22.1014 6.06815 21.852 5.43235C21.595 4.77495 21.252 4.21835 20.6956 3.66334C20.1392 3.10834 19.5808 2.76734 18.9222 2.51374C18.2858 2.26754 17.5588 2.09974 16.4944 2.05374C15.43 2.00774 15.0874 1.99594 12.3715 2.00114C9.65572 2.00634 9.31571 2.01794 8.2491 2.06994ZM8.3659 20.1476C7.39089 20.1052 6.86149 19.9432 6.50868 19.8076C6.04148 19.6276 5.70868 19.41 5.35707 19.0618C5.00547 18.7136 4.78947 18.3796 4.60706 17.9134C4.47006 17.5606 4.30506 17.0318 4.25946 16.0568C4.20986 15.003 4.19946 14.6866 4.19366 12.0168C4.18786 9.34696 4.19806 9.03096 4.24426 7.97676C4.28586 7.00255 4.44886 6.47255 4.58426 6.11995C4.76427 5.65215 4.98107 5.31995 5.33007 4.96855C5.67907 4.61715 6.01208 4.40075 6.47868 4.21835C6.83109 4.08074 7.35989 3.91714 8.3345 3.87074C9.38911 3.82074 9.70512 3.81074 12.3745 3.80494C15.044 3.79914 15.3608 3.80914 16.4158 3.85554C17.39 3.89794 17.9202 4.05934 18.2724 4.19555C18.7398 4.37555 19.0724 4.59175 19.4238 4.94135C19.7752 5.29095 19.9918 5.62275 20.1742 6.09035C20.312 6.44175 20.4756 6.97036 20.5216 7.94556C20.5718 9.00016 20.5832 9.31636 20.588 11.9856C20.5928 14.6548 20.5834 14.9718 20.5372 16.0256C20.4946 17.0006 20.333 17.5302 20.1972 17.8834C20.0172 18.3504 19.8002 18.6834 19.451 19.0346C19.1018 19.3858 18.7692 19.6022 18.3024 19.7846C17.9504 19.922 17.421 20.086 16.4472 20.1324C15.3926 20.182 15.0766 20.1924 12.4061 20.1982C9.73572 20.204 9.42051 20.1932 8.3659 20.1476Z" fill="white"/>
</g>
</g>
</svg>
