<svg width="24" height="24" viewBox="0 0 24 24" fill="none" xmlns="http://www.w3.org/2000/svg">
<path fill-rule="evenodd" clip-rule="evenodd" d="M12.8333 3.87506C13.5984 3.87506 14.2259 4.46432 14.2868 5.21379L14.2916 5.33339V7.20837H17.8333C18.6387 7.20837 19.2916 7.86129 19.2916 8.66671V18.8751H20.3332C20.6783 18.8751 20.9582 19.1549 20.9582 19.5001C20.9582 19.8165 20.723 20.078 20.418 20.1194L20.3332 20.1251H15.7535L15.7498 20.1251H13.2498L13.246 20.1251H3.6665C3.32133 20.1251 3.0415 19.8452 3.0415 19.5001C3.0415 19.1836 3.27663 18.9222 3.5817 18.8808L3.6665 18.8751H4.70825V5.33339C4.70825 4.56825 5.29751 3.94073 6.04698 3.8799L6.16659 3.87506H12.8333ZM5.95825 18.8751H9.70825V8.66671C9.70825 7.86129 10.3612 7.20837 11.1666 7.20837H13.0416V5.33339C13.0416 5.23477 12.9731 5.15216 12.881 5.13056L12.8333 5.12506H6.16659C6.06796 5.12506 5.98535 5.19359 5.96375 5.28563L5.95825 5.33339V18.8751ZM10.9581 18.8751H12.6248V16.1667C12.6248 15.8216 12.9046 15.5417 13.2498 15.5417H15.7498C16.0949 15.5417 16.3748 15.8216 16.3748 16.1667V18.8751H18.0415V8.6668C18.0415 8.56818 17.9729 8.48556 17.8809 8.46397L17.8331 8.45847H11.1665C11.0514 8.45847 10.9581 8.55174 10.9581 8.6668V18.8751ZM15.1248 16.7916V18.8749H13.8748V16.7916H15.1248Z" fill="#607093"/>
</svg>
