<svg width="24" height="24" viewBox="0 0 24 24" fill="none" xmlns="http://www.w3.org/2000/svg">
<path fill-rule="evenodd" clip-rule="evenodd" d="M14.2913 7.41673C14.2913 6.15108 13.2653 5.12506 11.9997 5.12506C10.734 5.12506 9.70801 6.15108 9.70801 7.41673C9.70801 7.88326 9.84741 8.31722 10.0868 8.67925C6.92452 9.45787 4.53856 12.2096 4.30933 15.554C3.59381 15.6473 3.04126 16.2591 3.04126 17.0001C3.04126 18.2657 4.06727 19.2917 5.33293 19.2917H18.6663C19.9319 19.2917 20.9579 18.2657 20.9579 17.0001C20.9579 16.2592 20.4054 15.6473 19.6899 15.5541C19.4606 12.2096 17.0747 9.45796 13.9125 8.67928C14.1519 8.31725 14.2913 7.88327 14.2913 7.41673ZM19.075 16.7917C19.0776 16.7918 19.0803 16.7918 19.0829 16.7918C19.0856 16.7918 19.0882 16.7918 19.0909 16.7917H19.4994C19.6144 16.7917 19.7077 16.885 19.7077 17.0001C19.7077 17.5753 19.2413 18.0417 18.666 18.0417H5.33271C4.75741 18.0417 4.29104 17.5753 4.29104 17.0001C4.29104 16.885 4.38431 16.7917 4.49937 16.7917H4.9083C4.91095 16.7918 4.9136 16.7918 4.91626 16.7918C4.91892 16.7918 4.92157 16.7918 4.92421 16.7917H19.075ZM18.4353 15.5417C18.1605 12.2745 15.4215 9.70844 12.0832 9.70844H11.916C8.57767 9.70844 5.8387 12.2745 5.56393 15.5417H18.4353ZM10.9579 7.41662C10.9579 6.84133 11.4243 6.37496 11.9996 6.37496C12.5749 6.37496 13.0412 6.84133 13.0412 7.41662C13.0412 7.99192 12.5749 8.45829 11.9996 8.45829C11.4243 8.45829 10.9579 7.99192 10.9579 7.41662Z" fill="#607093"/>
</svg>
