<svg width="24" height="24" viewBox="0 0 24 24" fill="none" xmlns="http://www.w3.org/2000/svg">
<path fill-rule="evenodd" clip-rule="evenodd" d="M12.0022 3.05304C12.9899 3.05249 13.8153 3.78659 13.9421 4.75235L13.9551 4.88544L14.2688 9.85573L18.4185 12.6074C19.2795 13.1783 19.5479 14.3204 19.0314 15.2151C18.5387 16.0684 17.494 16.416 16.5958 16.0468L16.4685 15.9892L14.171 14.8493L14.4778 19.7083H19.5C19.8452 19.7083 20.125 19.9881 20.125 20.3333C20.125 20.6497 19.8899 20.9112 19.5848 20.9526L19.5 20.9583H4.5C4.15482 20.9583 3.875 20.6785 3.875 20.3333C3.875 20.0169 4.11013 19.7554 4.41519 19.714L4.5 19.7083H9.52024L9.82111 14.8565L7.53601 15.9933C6.61145 16.4533 5.48859 16.1152 4.97176 15.2212C4.47842 14.3678 4.69959 13.2886 5.46871 12.6951L5.58229 12.6137L9.74384 9.84753L10.0514 4.88759C10.1153 3.85694 10.9696 3.05361 12.0022 3.05304ZM11.1134 14.2135L10.7726 19.7083H13.2253L12.878 14.2078L12.0002 13.7723L11.1134 14.2135ZM17.024 14.8694L13.768 13.2539C13.7603 13.2499 13.7525 13.246 13.7446 13.2423L13.3206 13.032C13.8553 12.6542 14.2211 12.0531 14.2823 11.3645L17.7277 13.6492L17.8009 13.7048C18.0525 13.9232 18.1197 14.2942 17.9488 14.5901C17.7626 14.9127 17.3577 15.0349 17.024 14.8694ZM9.71724 11.3662C9.7789 12.0547 10.1451 12.6555 10.6801 13.0329L6.97921 14.8742L6.89449 14.9097C6.57959 15.0185 6.22489 14.8913 6.05394 14.5956C5.86746 14.273 5.96392 13.861 6.27424 13.6547L9.71724 11.3662ZM11.299 4.96497L11.0441 9.07555C11.335 8.94193 11.6586 8.86743 11.9997 8.86743C12.3455 8.86743 12.6734 8.94403 12.9674 9.0812L12.7075 4.96421C12.6841 4.59235 12.3755 4.30283 12.0029 4.30304C11.6614 4.30323 11.3739 4.54681 11.3106 4.87383L11.299 4.96497ZM13.0412 11.1591C13.0412 10.5838 12.5749 10.1175 11.9996 10.1175C11.4243 10.1175 10.9579 10.5838 10.9579 11.1591C10.9579 11.7344 11.4243 12.2008 11.9996 12.2008C12.5749 12.2008 13.0412 11.7344 13.0412 11.1591Z" fill="#607093"/>
</svg>
