<svg width="24" height="24" viewBox="0 0 24 24" fill="none" xmlns="http://www.w3.org/2000/svg">
<path fill-rule="evenodd" clip-rule="evenodd" d="M11.4421 3.50077L11.2706 3.63683C10.1906 4.56868 10.0532 6.18678 10.9435 7.30809C12.0413 8.69008 13.1386 9.82364 14.2906 10.7037C14.5387 10.8932 14.883 10.8933 15.1311 10.7037C16.3089 9.80406 17.4277 8.64135 18.5499 7.21753C19.3642 6.18459 19.2469 4.70409 18.3197 3.79023L18.1601 3.64477L18.0236 3.53439C17.0495 2.79839 15.7096 2.83107 14.7813 3.59164L14.7099 3.65333L14.6439 3.59532C13.7324 2.84535 12.4143 2.79299 11.4421 3.50077ZM13.883 4.776L14.2063 5.12049C14.48 5.41222 14.9433 5.41189 15.2166 5.11977L15.5388 4.77546C15.9929 4.2912 16.7456 4.25274 17.2541 4.69173L17.2876 4.72087C17.774 5.14158 17.8505 5.86875 17.4628 6.36062L17.1463 6.75488C16.4088 7.65678 15.6759 8.43241 14.9318 9.07997L14.7102 9.2658L14.5045 9.09207C13.6724 8.36971 12.8538 7.4867 12.028 6.4472L11.9483 6.33552C11.6313 5.83963 11.6856 5.19835 12.0787 4.77827L12.1681 4.69108L12.2802 4.60296C12.7584 4.25558 13.4554 4.31995 13.883 4.776Z" fill="#607093"/>
<path fill-rule="evenodd" clip-rule="evenodd" d="M6.44673 12.2308H4.61537C3.72349 12.2308 3 12.9543 3 13.8462V19.3846C3 20.2765 3.72349 21 4.61537 21H6.44673C7.09087 21 7.64717 20.6226 7.90653 20.077H8.75507L8.93813 20.0826C9.1206 20.0938 9.30096 20.1219 9.47634 20.1664L11.9143 20.778L12.151 20.8305C12.7058 20.9375 13.2769 20.9355 13.8325 20.824L16.527 20.2831L16.7787 20.2248C17.5271 20.0277 18.2113 19.6343 18.7605 19.0832L20.6659 17.1695L20.7764 17.0496C21.4767 16.2293 21.4398 14.9932 20.666 14.2155C19.9319 13.4786 18.7697 13.3955 17.9389 14.0203L16.3363 15.2273L16.3363 15.217V14.9373L16.3303 14.7787C16.2631 13.8873 15.634 13.129 14.7568 12.9097L12.6501 12.3809L12.4103 12.327C12.0892 12.2631 11.7624 12.2308 11.4348 12.2308C10.4448 12.2308 9.4772 12.525 8.6548 13.0764L8.02449 13.4982C7.86524 12.7735 7.21914 12.2308 6.44673 12.2308ZM12.7919 15.9294C12.6718 15.9457 12.5615 15.9928 12.4691 16.0625C12.3017 16.1889 12.1935 16.3895 12.1935 16.6155C12.1935 16.9978 12.5035 17.3078 12.8858 17.3078H15.031L15.2131 17.3012C15.6967 17.2663 16.1611 17.0927 16.5507 16.7991L18.7715 15.1266L18.858 15.0709C19.1261 14.925 19.4631 14.9698 19.6848 15.1924C19.9594 15.4684 19.9594 15.9169 19.6849 16.1923L17.7795 18.1061L17.6364 18.2405C17.2441 18.5857 16.7679 18.8225 16.2544 18.9256L13.56 19.4665L13.3424 19.5018C12.9784 19.5472 12.6086 19.5248 12.2515 19.4351L9.8152 18.8239L9.55505 18.7665C9.29273 18.7173 9.02446 18.6924 8.75507 18.6924H8.0621V15.1389L9.42534 14.2268L9.62736 14.1008C10.1757 13.7834 10.7988 13.6154 11.4348 13.6154C11.7308 13.6154 12.0259 13.6519 12.3132 13.7239L14.4204 14.2528L14.5111 14.2821C14.7741 14.3876 14.9517 14.6451 14.9517 14.9373V15.217L14.9453 15.3129C14.8988 15.658 14.6051 15.9231 14.2511 15.9231H12.8859L12.7919 15.9294ZM6.6775 14.7887C6.67716 14.7762 6.67716 14.7636 6.6775 14.7511V13.8458C6.6775 13.7186 6.57392 13.6151 6.44673 13.6151H4.61537C4.48818 13.6151 4.3846 13.7186 4.3846 13.8458V19.3842C4.3846 19.5114 4.48818 19.615 4.61537 19.615H6.44673C6.57071 19.615 6.67226 19.5166 6.67731 19.3938L6.67725 19.3847L6.6775 19.3657V14.7887Z" fill="#607093"/>
</svg>
