<svg width="24" height="24" viewBox="0 0 24 24" fill="none" xmlns="http://www.w3.org/2000/svg">
<path fill-rule="evenodd" clip-rule="evenodd" d="M3.92139 5.71426C3.92139 4.72409 4.72408 3.9214 5.71424 3.9214H9.71424C10.0732 3.9214 10.3642 4.21242 10.3642 4.5714C10.3642 4.93039 10.0732 5.2214 9.71424 5.2214H5.71424C5.44205 5.2214 5.22139 5.44206 5.22139 5.71426V18.2857C5.22139 18.5579 5.44204 18.7785 5.71424 18.7785H13.7142C13.9864 18.7785 14.2071 18.5579 14.2071 18.2857V14.2857C14.2071 13.9267 14.4981 13.6357 14.8571 13.6357C15.2161 13.6357 15.5071 13.9267 15.5071 14.2857V18.2857C15.5071 19.2759 14.7044 20.0785 13.7142 20.0785H5.71424C4.72408 20.0785 3.92139 19.2759 3.92139 18.2857V5.71426ZM8.49282 16.5714C8.49282 16.2124 8.78383 15.9214 9.14282 15.9214H10.2857C10.6447 15.9214 10.9357 16.2124 10.9357 16.5714C10.9357 16.9304 10.6447 17.2214 10.2857 17.2214H9.14282C8.78383 17.2214 8.49282 16.9304 8.49282 16.5714Z" fill="#607093"/>
<path fill-rule="evenodd" clip-rule="evenodd" d="M15.5 8.64998C15.5828 8.64998 15.65 8.58282 15.65 8.49998C15.65 8.41713 15.5828 8.34998 15.5 8.34998C15.4171 8.34998 15.35 8.41713 15.35 8.49998C15.35 8.58282 15.4171 8.64998 15.5 8.64998ZM14.35 8.49998C14.35 7.86485 14.8648 7.34998 15.5 7.34998C16.1351 7.34998 16.65 7.86485 16.65 8.49998C16.65 9.1351 16.1351 9.64998 15.5 9.64998C14.8648 9.64998 14.35 9.1351 14.35 8.49998Z" fill="#607093"/>
<path fill-rule="evenodd" clip-rule="evenodd" d="M14.9598 4.64998C14.8334 4.64998 14.7167 4.71818 14.6548 4.82838L14.1032 5.80891C13.811 6.32845 13.2612 6.64998 12.6651 6.64998H12C11.8067 6.64998 11.65 6.80668 11.65 6.99998V11C11.65 11.1933 11.8067 11.35 12 11.35H19C19.1933 11.35 19.35 11.1933 19.35 11V6.99998C19.35 6.80668 19.1933 6.64998 19 6.64998H18.3042C17.7353 6.64998 17.2065 6.3569 16.905 5.87447L16.2425 4.81448C16.1786 4.71214 16.0664 4.64998 15.9457 4.64998H14.9598ZM13.5217 4.19104C13.814 3.6715 14.3637 3.34998 14.9598 3.34998H15.9457C16.5146 3.34998 17.0434 3.64305 17.3449 4.12548L18.0074 5.18548C18.0714 5.28781 18.1835 5.34998 18.3042 5.34998H19C19.9112 5.34998 20.65 6.08871 20.65 6.99998V11C20.65 11.9112 19.9112 12.65 19 12.65H12C11.0887 12.65 10.35 11.9112 10.35 11V6.99998C10.35 6.08871 11.0887 5.34998 12 5.34998H12.6651C12.7916 5.34998 12.9082 5.28177 12.9702 5.17157L13.5217 4.19104Z" fill="#607093"/>
</svg>
