<svg width="24" height="24" viewBox="0 0 24 24" fill="none" xmlns="http://www.w3.org/2000/svg">
<path fill-rule="evenodd" clip-rule="evenodd" d="M11.1668 3.87494C8.9807 3.87494 7.2085 5.64715 7.2085 7.83327C7.2085 10.0194 8.9807 11.7916 11.1668 11.7916C13.353 11.7916 15.1252 10.0194 15.1252 7.83327C15.1252 5.64715 13.353 3.87494 11.1668 3.87494ZM11.1666 5.12511C12.6624 5.12511 13.8749 6.33767 13.8749 7.83344C13.8749 9.32921 12.6624 10.5418 11.1666 10.5418C9.67081 10.5418 8.45825 9.32921 8.45825 7.83344C8.45825 6.33767 9.67081 5.12511 11.1666 5.12511Z" fill="#607093"/>
<path fill-rule="evenodd" clip-rule="evenodd" d="M7.83333 13.8749H13.5064C14.1429 12.8731 15.2624 12.2083 16.5372 12.2083C18.5188 12.2083 20.1252 13.8146 20.1252 15.7962C20.1252 17.7778 18.5188 19.3842 16.5372 19.3842C15.7721 19.3842 15.063 19.1447 14.4807 18.7367L13.2754 19.9419C13.0314 20.186 12.6356 20.186 12.3916 19.9419C12.1697 19.72 12.1495 19.3728 12.331 19.1281L12.3916 19.058L13.5968 17.8528C13.1887 17.2705 12.9492 16.5613 12.9492 15.7962C12.9492 15.5668 12.9708 15.3424 13.0119 15.1249H7.83333C6.38914 15.1249 5.20896 16.2553 5.12929 17.6796L5.125 17.8333V18.6666C5.125 19.0118 4.84518 19.2916 4.5 19.2916C4.18359 19.2916 3.92209 19.0565 3.88071 18.7514L3.875 18.6666V17.8333C3.875 15.7079 5.55012 13.9737 7.65214 13.879L7.83333 13.8749ZM18.8752 15.7961C18.8752 14.5049 17.8284 13.4582 16.5372 13.4582C15.246 13.4582 14.1992 14.5049 14.1992 15.7961C14.1992 17.0874 15.246 18.1341 16.5372 18.1341C17.8284 18.1341 18.8752 17.0874 18.8752 15.7961Z" fill="#607093"/>
</svg>
