<svg width="24" height="24" viewBox="0 0 24 24" fill="none" xmlns="http://www.w3.org/2000/svg">
<path fill-rule="evenodd" clip-rule="evenodd" d="M9.79919 4.89568L4.65394 7.75415C3.16678 8.58023 3.16678 10.7184 4.65398 11.5445L6.40234 12.5158V15.4368L6.4081 15.6212C6.46542 16.5386 6.94806 17.3811 7.71897 17.894L9.0582 18.7849L9.25116 18.9074C11.0055 19.9685 13.2235 19.9277 14.9413 18.7849L16.2804 17.8941L16.4307 17.7873C17.1627 17.2319 17.5971 16.363 17.5971 15.4368V12.5164L19.3465 11.5445C20.8337 10.7184 20.8337 8.58023 19.3465 7.75413L14.2015 4.89582C12.832 4.13582 11.1685 4.13582 9.79919 4.89568ZM16.4165 13.1723L14.2013 14.403C12.832 15.1629 11.1675 15.1629 9.79894 14.4028L7.58293 13.1717V15.4368C7.58293 15.9801 7.83215 16.4903 8.25372 16.8245L8.37291 16.9111L9.71197 17.8019C11.0404 18.6851 12.7524 18.722 14.1121 17.9124L14.2874 17.802L15.6268 16.911C16.0789 16.6105 16.3657 16.1203 16.4104 15.5841L16.4165 15.4368V13.1723ZM13.6273 5.92951L18.772 8.7877C19.4482 9.1633 19.4482 10.1351 18.7721 10.5107L13.627 13.369C12.6149 13.9307 11.3844 13.9307 10.3729 13.369L5.22797 10.5107C4.5518 10.1351 4.5518 9.1633 5.22794 8.78772L10.373 5.92937C11.3851 5.3677 12.6149 5.3677 13.6273 5.92951Z" fill="#607093"/>
</svg>
