<svg width="24" height="24" viewBox="0 0 24 24" fill="none" xmlns="http://www.w3.org/2000/svg">
<path d="M12 9.70825C12.3164 9.70825 12.5779 9.94338 12.6193 10.2484L12.625 10.3333V10.5527C13.1892 10.6179 13.6782 10.9456 13.9774 11.4362C14.1572 11.7308 14.064 12.1154 13.7693 12.2952C13.4992 12.4599 13.1535 12.3954 12.9593 12.1565L12.9103 12.0871C12.8112 11.9247 12.6665 11.823 12.5008 11.7972L12.4163 11.7908H12.0322C12.0215 11.7913 12.0108 11.7916 12 11.7916C11.9892 11.7916 11.9785 11.7913 11.9678 11.7908H11.503C11.202 11.7908 10.958 12.0346 10.958 12.3358C10.958 12.5575 11.0925 12.7543 11.2924 12.8379L11.3703 12.8638L12.9339 13.2566C13.7314 13.4585 14.2913 14.1757 14.2913 14.9983C14.2913 15.9463 13.5565 16.7228 12.625 16.7887V16.9999C12.625 17.3451 12.3452 17.6249 12 17.6249C11.6836 17.6249 11.4221 17.3898 11.3807 17.0847L11.375 16.9999V16.7814C10.8095 16.7164 10.32 16.3883 10.0196 15.8966C9.83971 15.602 9.93263 15.2173 10.2272 15.0374C10.4972 14.8725 10.8429 14.9368 11.0373 15.1756L11.0864 15.245C11.1864 15.4087 11.3316 15.5109 11.4981 15.5368L11.583 15.5433H11.9535C11.9688 15.5421 11.9843 15.5416 12 15.5416C12.0157 15.5416 12.0312 15.5421 12.0465 15.5433H12.4963C12.7975 15.5433 13.0413 15.2993 13.0413 14.9983C13.0413 14.7764 12.9065 14.579 12.7063 14.4947L12.6282 14.4686L11.0662 14.0762C10.2685 13.8765 9.70801 13.1587 9.70801 12.3358C9.70801 11.3873 10.4434 10.611 11.3748 10.5453L11.375 10.3333C11.375 9.98807 11.6548 9.70825 12 9.70825Z" fill="#607093"/>
<path fill-rule="evenodd" clip-rule="evenodd" d="M16.099 6.44359C16.0268 5.24265 15.0306 4.29156 13.8115 4.29156H10.1882L10.0485 4.29575C8.84757 4.36787 7.89648 5.36411 7.89648 6.58323V7.62494H6.16667C4.90066 7.62494 3.875 8.65059 3.875 9.91661V17.4166C3.875 18.6826 4.90066 19.7083 6.16667 19.7083H17.8333C19.0993 19.7083 20.125 18.6826 20.125 17.4166V9.91661C20.125 8.65059 19.0993 7.62494 17.8333 7.62494H16.1032V6.58323L16.099 6.44359ZM14.8532 7.62494V6.58323C14.8532 6.04355 14.4436 5.60024 13.918 5.54694L13.8115 5.54156H10.1882C9.64847 5.54156 9.20516 5.95115 9.15186 6.47667L9.14648 6.58323V7.62494H14.8532ZM17.8335 8.87507H6.16679C5.59113 8.87507 5.12512 9.34108 5.12512 9.91674V17.4167C5.12512 17.9924 5.59113 18.4584 6.16679 18.4584H17.8335C18.4091 18.4584 18.8751 17.9924 18.8751 17.4167V9.91674C18.8751 9.34108 18.4091 8.87507 17.8335 8.87507Z" fill="#607093"/>
</svg>
