<svg width="24" height="24" viewBox="0 0 24 24" fill="none" xmlns="http://www.w3.org/2000/svg">
<path d="M20.7041 6.02485L12.2234 3.19795C12.0783 3.14959 11.9215 3.14959 11.7764 3.19795L3.29572 6.02485C3.00713 6.12106 2.81248 6.39114 2.8125 6.69536V13.7626C2.8125 14.3066 3.40144 14.6467 3.87259 14.3746C4.09125 14.2484 4.22595 14.0151 4.22595 13.7626V7.67594L7.19331 8.66447C5.55171 11.3166 6.36799 14.7971 9.01754 16.4429C7.42741 17.0665 6.05283 18.1947 5.04751 19.7371C4.7438 20.1884 5.0426 20.7993 5.58535 20.8367C5.84448 20.8545 6.09251 20.7287 6.23128 20.5092C7.56257 18.4667 9.66508 17.2962 11.9999 17.2962C14.3348 17.2962 16.4373 18.4667 17.7686 20.5092C18.0723 20.9605 18.7507 20.9139 18.9898 20.4252C19.0975 20.2048 19.0834 19.9444 18.9523 19.7371C17.947 18.1947 16.5671 17.0665 14.9823 16.4429C17.6292 14.7973 18.4451 11.3201 16.8065 8.66889L20.7041 7.37028C21.2203 7.19835 21.3567 6.53214 20.9498 6.1711C20.8783 6.1077 20.7947 6.05946 20.7041 6.02927V6.02485ZM16.2403 11.6424C16.2412 14.9067 12.7081 16.9478 9.88079 15.3165C7.69055 14.0528 7.08609 11.1652 8.58556 9.12914L11.7764 10.1892C11.9215 10.2376 12.0783 10.2376 12.2234 10.1892L15.4143 9.12914C15.9512 9.85706 16.2407 10.7379 16.2403 11.6424ZM11.9999 8.77754L5.75424 6.69536L11.9999 4.61317L18.2456 6.69536L11.9999 8.77754Z" fill="#607093"/>
</svg>
