<svg width="24" height="24" viewBox="0 0 24 24" fill="none" xmlns="http://www.w3.org/2000/svg">
<path d="M11.9974 3.70954C10.4978 3.71 9.02641 4.11722 7.73992 4.88781C6.45343 5.65841 5.40006 6.76352 4.69198 8.08544C3.9839 9.40736 3.64764 10.8966 3.71901 12.3945C3.79038 13.8924 4.26671 15.3429 5.09728 16.5915L3.70703 20.2904L8.36241 19.4485C9.48341 19.9963 10.7136 20.2841 11.9613 20.2903C13.209 20.2964 14.4419 20.0209 15.5683 19.4842C16.6946 18.9476 17.6854 18.1636 18.4666 17.1908C19.2478 16.2179 19.7994 15.0812 20.0802 13.8656C20.3608 12.6499 20.3637 11.3865 20.0881 10.1696C19.8127 8.95269 19.2662 7.81365 18.4892 6.83739C17.7123 5.86114 16.725 5.07284 15.6009 4.53127C14.4769 3.98969 13.2451 3.7088 11.9974 3.70954Z" stroke="#607093" stroke-width="1.2" stroke-linecap="round" stroke-linejoin="round"/>
<path d="M10.0845 10.0868C10.0845 9.70837 10.1967 9.33847 10.4069 9.02386C10.6171 8.70923 10.9159 8.46402 11.2655 8.31922C11.6151 8.17441 11.9998 8.13652 12.3709 8.21035C12.742 8.28416 13.0829 8.46637 13.3505 8.73394C13.618 9.0015 13.8002 9.34239 13.8741 9.71352C13.9479 10.0846 13.91 10.4693 13.7652 10.8189C13.6204 11.1685 13.3752 11.4673 13.0606 11.6775C12.7459 11.8877 12.376 11.9999 11.9976 11.9999V13.2754" stroke="#607093" stroke-width="1.2" stroke-linecap="round" stroke-linejoin="round"/>
<path d="M12 16.4641C11.8239 16.4641 11.6812 16.3213 11.6812 16.1453C11.6812 15.9691 11.8239 15.8264 12 15.8264" stroke="#607093" stroke-width="1.2" stroke-linecap="round" stroke-linejoin="round"/>
<path d="M12 16.4643C12.1761 16.4643 12.3189 16.3215 12.3189 16.1454C12.3189 15.9693 12.1761 15.8265 12 15.8265" stroke="#607093" stroke-width="1.2" stroke-linecap="round" stroke-linejoin="round"/>
</svg>
