<svg width="97" height="96" viewBox="0 0 97 96" fill="none" xmlns="http://www.w3.org/2000/svg">
<path d="M18.8341 52.409V57.7703C18.8341 66.2324 23.9994 68.6847 24.2196 68.7857L48.0746 80.181L71.9418 68.7817C72.1519 68.6847 77.3152 66.2323 77.3152 57.7703V38.232C77.3152 29.7679 72.1519 27.3156 71.9317 27.2146L48.0747 15.8213L24.2095 27.2206C23.9994 27.3156 18.8341 29.7679 18.8341 38.232V52.409ZM48.3893 83.0858H47.759L47.4762 82.9525L23.0738 71.2966C22.5283 71.0482 16.0742 67.8908 16.0742 57.7702V38.232C16.0742 28.1114 22.5283 24.954 23.0738 24.7035L47.7591 12.9143H48.3833L48.6722 13.0497L73.0747 24.7035C73.6201 24.954 80.0742 28.1113 80.0742 38.232V57.7702C80.0742 67.8907 73.6201 71.0481 73.0747 71.2966L48.3893 83.0858Z" fill="#EE5456"/>
<path d="M52.5012 71.2719L33.458 50.6044L42.1464 50.6186C42.0131 45.0553 41.4131 35.5428 25.2949 31.8884C25.2949 31.8884 52.5014 25.8928 62.2543 50.6488L70.3628 50.663L52.5012 71.2719Z" fill="#EE5456"/>
</svg>
