<svg width="24" height="24" viewBox="0 0 24 24" fill="none" xmlns="http://www.w3.org/2000/svg">
<rect x="3" y="3" width="18" height="18" rx="3" fill="black"/>
<path d="M15.4818 9.1987C15.4455 7.33736 13.8677 6 11.9273 6C9.98691 6 8.5 7.44604 8.5 9.28926C8.5 11.3313 9.93279 12.0726 11.6555 12.6864C13.197 13.2289 13.9404 13.7167 13.9404 14.8733C13.9404 15.8131 13.197 16.5902 12.0727 16.5902C11.0025 16.5902 10.0596 15.8493 10.0596 14.6926C10.0596 14.3197 10.1608 14.1071 10.2471 13.9256C10.3115 13.7903 10.3677 13.6722 10.3677 13.5179C10.3677 13.1021 10.0778 12.795 9.60609 12.795C9.06213 12.795 8.5 13.6084 8.5 14.7651C8.5 16.6264 10.1141 18 12.0727 18C14.0672 18 15.5 16.5363 15.5 14.7107C15.5 12.6143 13.9945 11.9096 12.3445 11.3132C10.803 10.753 10.0596 10.2648 10.0596 9.16247C10.0596 8.15032 10.8572 7.40939 11.9091 7.40939C13.0338 7.40939 13.9222 8.18652 13.9404 9.23493C13.9586 9.7231 14.303 10.0121 14.702 10.0121C15.1192 10.0121 15.5 9.7227 15.4818 9.1987Z" fill="#00D639"/>
</svg>
