<svg width="24" height="24" viewBox="0 0 24 24" fill="none" xmlns="http://www.w3.org/2000/svg">
<rect x="3" y="3" width="18" height="18" rx="3" fill="black"/>
<path d="M20 11.9924L14.9166 7.48853C13.8517 6.54717 12.4838 6 10.9629 6C7.68288 6 5 8.67994 5 11.9629C5 15.2459 7.67994 17.9259 10.9629 17.9259C12.4838 17.9259 13.8517 17.3464 14.9166 16.4344L20 11.9924ZM6.79153 11.9924C6.79153 9.71544 8.64482 7.82095 10.9629 7.82095C13.281 7.82095 15.1343 9.67425 15.1343 11.9924C15.1343 14.3105 13.281 16.1638 10.9629 16.1638C8.68601 16.1314 6.79153 14.2693 6.79153 11.9924Z" fill="#E51736"/>
</svg>
