<svg width="24" height="24" viewBox="0 0 24 24" fill="none" xmlns="http://www.w3.org/2000/svg">
<g clip-path="url(#clip0_14010_36007)">
<rect width="24" height="24" rx="4" fill="black"/>
<path d="M2.78694 8.72606C2.86811 8.80723 2.96281 8.83429 3.07104 8.83429C3.17927 8.83429 3.27398 8.7937 3.35515 8.72606C3.43632 8.65842 3.46338 8.55019 3.46338 8.44196C3.46338 8.33373 3.42279 8.23902 3.35515 8.15785C3.2875 8.07668 3.17927 8.04962 3.07104 8.04962C2.96281 8.04962 2.86811 8.09021 2.78694 8.15785C2.70577 8.2255 2.67871 8.33373 2.67871 8.44196C2.67871 8.55019 2.7193 8.65842 2.78694 8.72606ZM2.73283 14.3405C2.73283 14.4352 2.75988 14.5028 2.82753 14.5705C2.89517 14.6381 2.97634 14.6652 3.05752 14.6652C3.15222 14.6652 3.21986 14.6381 3.2875 14.5705C3.35515 14.5028 3.38221 14.4217 3.38221 14.3405V10.2683C3.38221 10.1736 3.35515 10.106 3.2875 10.0383C3.21986 9.9707 3.13869 9.94365 3.05752 9.94365C2.96281 9.94365 2.89517 9.9707 2.82753 10.0383C2.75988 10.106 2.73283 10.1872 2.73283 10.2683V14.3405Z" fill="#00BCE4" stroke="#00BCE4" stroke-width="0.101466"/>
<path d="M2.78694 8.72606C2.86811 8.80723 2.96281 8.83429 3.07104 8.83429C3.17927 8.83429 3.27398 8.7937 3.35515 8.72606C3.43632 8.65842 3.46338 8.55019 3.46338 8.44196C3.46338 8.33373 3.42279 8.23902 3.35515 8.15785C3.2875 8.07668 3.17927 8.04962 3.07104 8.04962C2.96281 8.04962 2.86811 8.09021 2.78694 8.15785C2.70577 8.2255 2.67871 8.33373 2.67871 8.44196C2.67871 8.55019 2.7193 8.65842 2.78694 8.72606ZM2.73283 14.3405C2.73283 14.4352 2.75988 14.5028 2.82753 14.5705C2.89517 14.6381 2.97634 14.6652 3.05752 14.6652C3.15222 14.6652 3.21986 14.6381 3.2875 14.5705C3.35515 14.5028 3.38221 14.4217 3.38221 14.3405V10.2683C3.38221 10.1736 3.35515 10.106 3.2875 10.0383C3.21986 9.9707 3.13869 9.94365 3.05752 9.94365C2.96281 9.94365 2.89517 9.9707 2.82753 10.0383C2.75988 10.106 2.73283 10.1872 2.73283 10.2683V14.3405Z" stroke="#00BCE4" stroke-width="0.135287"/>
<path d="M4.302 16.221C4.302 16.3157 4.32906 16.3833 4.3967 16.451C4.46435 16.5186 4.54552 16.5457 4.62669 16.5457C4.72139 16.5457 4.78904 16.5186 4.85668 16.451C4.92432 16.3833 4.95138 16.3022 4.95138 16.221V13.9887C5.12726 14.2052 5.41136 14.4217 5.79016 14.6111C6.16897 14.8005 6.53425 14.8952 6.89952 14.8952C7.2648 14.8952 7.60302 14.8275 7.91418 14.6922C8.22534 14.5569 8.50944 14.3675 8.73943 14.1376C8.96942 13.9076 9.15882 13.6235 9.29411 13.3123C9.4294 13.0011 9.49704 12.6629 9.49704 12.2976C9.49704 11.9324 9.4294 11.5942 9.29411 11.283C9.15882 10.9718 8.96942 10.6877 8.73943 10.4577C8.50944 10.2277 8.22534 10.0383 7.91418 9.90306C7.60302 9.76777 7.2648 9.70013 6.89952 9.70013C6.53425 9.70013 6.19603 9.76777 5.88487 9.90306C5.5737 10.0383 5.2896 10.2277 5.05961 10.4577C4.82962 10.6877 4.64022 10.9718 4.50493 11.283C4.36965 11.5942 4.302 11.9324 4.302 12.2976V16.1939V16.221ZM5.11373 11.54C5.20843 11.2965 5.35724 11.0936 5.53312 10.9177C5.70899 10.7418 5.91192 10.6066 6.15544 10.4983C6.39896 10.4036 6.64248 10.3495 6.91305 10.3495C7.18363 10.3495 7.42714 10.4036 7.67066 10.4983C7.91418 10.593 8.11711 10.7418 8.29298 10.9177C8.46886 11.0936 8.60414 11.2965 8.71237 11.54C8.80708 11.7836 8.86119 12.0271 8.86119 12.2976C8.86119 12.5682 8.80708 12.8117 8.71237 13.0553C8.61767 13.2988 8.46886 13.5017 8.29298 13.6776C8.11711 13.8535 7.91418 13.9887 7.67066 14.097C7.42714 14.1917 7.18363 14.2458 6.91305 14.2458C6.64248 14.2458 6.39896 14.1917 6.15544 14.097C5.91192 14.0023 5.70899 13.8535 5.53312 13.6776C5.35724 13.5017 5.22196 13.2988 5.11373 13.0553C5.01903 12.8117 4.96491 12.5682 4.96491 12.2976C4.96491 12.0271 5.01903 11.77 5.11373 11.54ZM10.187 14.3405C10.187 14.4352 10.2141 14.5028 10.2817 14.5705C10.3494 14.6381 10.4305 14.6652 10.5117 14.6652C10.6064 14.6652 10.674 14.6381 10.7417 14.5705C10.8093 14.5028 10.8364 14.4217 10.8364 14.3405V8.37431C10.8364 8.27961 10.8093 8.21197 10.7417 8.14432C10.674 8.07668 10.5929 8.04962 10.5117 8.04962C10.417 8.04962 10.3494 8.07668 10.2817 8.14432C10.2141 8.21197 10.187 8.29314 10.187 8.37431V14.3405ZM11.5669 8.72606C11.6481 8.80723 11.7428 8.83429 11.851 8.83429C11.9593 8.83429 12.054 8.7937 12.1351 8.72606C12.2163 8.65842 12.2434 8.55019 12.2434 8.44196C12.2434 8.33373 12.2028 8.23902 12.1351 8.15785C12.0675 8.07668 11.9593 8.04962 11.851 8.04962C11.7428 8.04962 11.6481 8.09021 11.5669 8.15785C11.4858 8.2255 11.4587 8.33373 11.4587 8.44196C11.4587 8.55019 11.4858 8.64489 11.5669 8.72606ZM11.5128 14.3405C11.5128 14.4352 11.5399 14.5028 11.6075 14.5705C11.6752 14.6381 11.7563 14.6652 11.8375 14.6652C11.9322 14.6652 11.9999 14.6381 12.0675 14.5705C12.1351 14.5028 12.1622 14.4217 12.1622 14.3405V10.2683C12.1622 10.1736 12.1351 10.106 12.0675 10.0383C11.9999 9.9707 11.9187 9.94365 11.8375 9.94365C11.7428 9.94365 11.6752 9.9707 11.6075 10.0383C11.5399 10.106 11.5128 10.1872 11.5128 10.2683V14.3405ZM16.1261 14.0429C15.8691 14.1646 15.5985 14.2323 15.3415 14.2323C15.0844 14.2323 14.8274 14.1781 14.5839 14.0834C14.3403 13.9887 14.1374 13.8399 13.9615 13.6641C13.7857 13.4882 13.6504 13.2852 13.5421 13.0417C13.4474 12.7982 13.3933 12.5547 13.3933 12.2841C13.3933 12.0135 13.4474 11.77 13.5421 11.5265C13.6368 11.283 13.7857 11.0801 13.9615 10.9042C14.1374 10.7283 14.3403 10.593 14.5839 10.4848C14.8274 10.3901 15.0709 10.336 15.3415 10.336C15.612 10.336 15.8826 10.3901 16.1667 10.5119C16.4508 10.6336 16.6943 10.8365 16.8973 11.1477C16.9649 11.2289 17.0326 11.3101 17.1002 11.3642C17.1678 11.4318 17.249 11.4453 17.3572 11.4318C17.4384 11.4183 17.4925 11.3642 17.5331 11.3101C17.5602 11.2424 17.5737 11.1612 17.5466 11.0665C17.5196 10.9177 17.4249 10.7554 17.2625 10.5524C16.9784 10.2413 16.6673 10.0113 16.3561 9.876C16.045 9.74072 15.7067 9.67307 15.3415 9.67307C14.9762 9.67307 14.638 9.74072 14.3268 9.876C14.0156 10.0113 13.7315 10.2007 13.5016 10.4307C13.2716 10.6607 13.0822 10.9448 12.9469 11.2559C12.8116 11.5671 12.7439 11.9053 12.7439 12.2706C12.7439 12.6359 12.8116 12.9741 12.9469 13.2852C13.0822 13.5964 13.2716 13.8805 13.5016 14.1105C13.7315 14.3405 14.0156 14.5299 14.3268 14.6652C14.638 14.8005 14.9762 14.8681 15.3415 14.8681C15.7067 14.8681 16.045 14.8005 16.3561 14.6652C16.6673 14.5299 16.9784 14.2864 17.2625 13.9346C17.4114 13.7723 17.5061 13.6235 17.5331 13.4746C17.5602 13.3799 17.5602 13.2852 17.5196 13.2041C17.479 13.1229 17.3978 13.0688 17.3031 13.0688C17.2084 13.0553 17.1408 13.0823 17.0596 13.1364C16.992 13.1905 16.9243 13.2717 16.8837 13.3529C16.6402 13.7046 16.3832 13.9211 16.1261 14.0429ZM18.3178 8.72606C18.399 8.80723 18.4937 8.83429 18.6019 8.83429C18.7101 8.83429 18.8048 8.7937 18.886 8.72606C18.9672 8.64489 18.9942 8.55019 18.9942 8.44196C18.9942 8.33373 18.9536 8.23902 18.886 8.15785C18.8048 8.07668 18.7101 8.04962 18.6019 8.04962C18.4937 8.04962 18.399 8.09021 18.3178 8.15785C18.2366 8.23902 18.2096 8.33373 18.2096 8.44196C18.2096 8.55019 18.2501 8.64489 18.3178 8.72606ZM18.2637 14.3405C18.2637 14.4352 18.2907 14.5028 18.3584 14.5705C18.426 14.6381 18.5072 14.6652 18.5884 14.6652C18.6695 14.6652 18.7507 14.6381 18.8183 14.5705C18.886 14.5028 18.9131 14.4217 18.9131 14.3405V10.2683C18.9131 10.1736 18.886 10.106 18.8183 10.0383C18.7507 9.9707 18.6695 9.94365 18.5884 9.94365C18.4937 9.94365 18.426 9.9707 18.3584 10.0383C18.2907 10.106 18.2637 10.1872 18.2637 10.2683V14.3405ZM19.8871 9.93012H19.7383C19.6436 9.93012 19.576 9.95718 19.5083 10.0248C19.4407 10.0925 19.4136 10.1736 19.4136 10.2548C19.4136 10.3495 19.4407 10.4172 19.5083 10.4848C19.576 10.5524 19.6571 10.5795 19.7383 10.5795H19.7654H19.8871V14.2864V14.3134C19.8871 14.4081 19.9142 14.4758 19.9818 14.5434C20.0495 14.6111 20.1306 14.6381 20.2118 14.6381C20.3065 14.6381 20.3742 14.6111 20.4418 14.5434C20.5094 14.4758 20.5365 14.3946 20.5365 14.3134V10.5795H21.4159H21.4429C21.5376 10.5795 21.6053 10.5524 21.6729 10.4848C21.7406 10.4172 21.7676 10.336 21.7676 10.2548C21.7676 10.1601 21.7406 10.0925 21.6729 10.0248C21.6053 9.95718 21.5241 9.93012 21.4429 9.93012H20.5365V8.37431C20.5365 8.27961 20.5094 8.21197 20.4418 8.14432C20.3742 8.07668 20.293 8.04962 20.2118 8.04962C20.1171 8.04962 20.0495 8.07668 19.9818 8.14432C19.9142 8.21197 19.8871 8.29314 19.8871 8.37431V9.93012Z" fill="#00BCE4"/>
<path d="M4.302 16.221C4.302 16.3157 4.32906 16.3833 4.3967 16.451C4.46435 16.5186 4.54552 16.5457 4.62669 16.5457C4.72139 16.5457 4.78904 16.5186 4.85668 16.451C4.92432 16.3833 4.95138 16.3022 4.95138 16.221V13.9887C5.12726 14.2052 5.41136 14.4217 5.79016 14.6111C6.16897 14.8005 6.53425 14.8952 6.89952 14.8952C7.2648 14.8952 7.60302 14.8275 7.91418 14.6922C8.22534 14.5569 8.50944 14.3675 8.73943 14.1376C8.96942 13.9076 9.15882 13.6235 9.29411 13.3123C9.4294 13.0011 9.49704 12.6629 9.49704 12.2976C9.49704 11.9324 9.4294 11.5942 9.29411 11.283C9.15882 10.9718 8.96942 10.6877 8.73943 10.4577C8.50944 10.2277 8.22534 10.0383 7.91418 9.90306C7.60302 9.76777 7.2648 9.70013 6.89952 9.70013C6.53425 9.70013 6.19603 9.76777 5.88487 9.90306C5.5737 10.0383 5.2896 10.2277 5.05961 10.4577C4.82962 10.6877 4.64022 10.9718 4.50493 11.283C4.36965 11.5942 4.302 11.9324 4.302 12.2976V16.1939V16.221ZM5.11373 11.54C5.20843 11.2965 5.35724 11.0936 5.53312 10.9177C5.70899 10.7418 5.91192 10.6066 6.15544 10.4983C6.39896 10.4036 6.64248 10.3495 6.91305 10.3495C7.18363 10.3495 7.42714 10.4036 7.67066 10.4983C7.91418 10.593 8.11711 10.7418 8.29298 10.9177C8.46886 11.0936 8.60414 11.2965 8.71237 11.54C8.80708 11.7836 8.86119 12.0271 8.86119 12.2976C8.86119 12.5682 8.80708 12.8117 8.71237 13.0553C8.61767 13.2988 8.46886 13.5017 8.29298 13.6776C8.11711 13.8535 7.91418 13.9887 7.67066 14.097C7.42714 14.1917 7.18363 14.2458 6.91305 14.2458C6.64248 14.2458 6.39896 14.1917 6.15544 14.097C5.91192 14.0023 5.70899 13.8535 5.53312 13.6776C5.35724 13.5017 5.22196 13.2988 5.11373 13.0553C5.01903 12.8117 4.96491 12.5682 4.96491 12.2976C4.96491 12.0271 5.01903 11.77 5.11373 11.54ZM10.187 14.3405C10.187 14.4352 10.2141 14.5028 10.2817 14.5705C10.3494 14.6381 10.4305 14.6652 10.5117 14.6652C10.6064 14.6652 10.674 14.6381 10.7417 14.5705C10.8093 14.5028 10.8364 14.4217 10.8364 14.3405V8.37431C10.8364 8.27961 10.8093 8.21197 10.7417 8.14432C10.674 8.07668 10.5929 8.04962 10.5117 8.04962C10.417 8.04962 10.3494 8.07668 10.2817 8.14432C10.2141 8.21197 10.187 8.29314 10.187 8.37431V14.3405ZM11.5669 8.72606C11.6481 8.80723 11.7428 8.83429 11.851 8.83429C11.9593 8.83429 12.054 8.7937 12.1351 8.72606C12.2163 8.65842 12.2434 8.55019 12.2434 8.44196C12.2434 8.33373 12.2028 8.23902 12.1351 8.15785C12.0675 8.07668 11.9593 8.04962 11.851 8.04962C11.7428 8.04962 11.6481 8.09021 11.5669 8.15785C11.4858 8.2255 11.4587 8.33373 11.4587 8.44196C11.4587 8.55019 11.4858 8.64489 11.5669 8.72606ZM11.5128 14.3405C11.5128 14.4352 11.5399 14.5028 11.6075 14.5705C11.6752 14.6381 11.7563 14.6652 11.8375 14.6652C11.9322 14.6652 11.9999 14.6381 12.0675 14.5705C12.1351 14.5028 12.1622 14.4217 12.1622 14.3405V10.2683C12.1622 10.1736 12.1351 10.106 12.0675 10.0383C11.9999 9.9707 11.9187 9.94365 11.8375 9.94365C11.7428 9.94365 11.6752 9.9707 11.6075 10.0383C11.5399 10.106 11.5128 10.1872 11.5128 10.2683V14.3405ZM16.1261 14.0429C15.8691 14.1646 15.5985 14.2323 15.3415 14.2323C15.0844 14.2323 14.8274 14.1781 14.5839 14.0834C14.3403 13.9887 14.1374 13.8399 13.9615 13.6641C13.7857 13.4882 13.6504 13.2852 13.5421 13.0417C13.4474 12.7982 13.3933 12.5547 13.3933 12.2841C13.3933 12.0135 13.4474 11.77 13.5421 11.5265C13.6368 11.283 13.7857 11.0801 13.9615 10.9042C14.1374 10.7283 14.3403 10.593 14.5839 10.4848C14.8274 10.3901 15.0709 10.336 15.3415 10.336C15.612 10.336 15.8826 10.3901 16.1667 10.5119C16.4508 10.6336 16.6943 10.8365 16.8973 11.1477C16.9649 11.2289 17.0326 11.3101 17.1002 11.3642C17.1678 11.4318 17.249 11.4453 17.3572 11.4318C17.4384 11.4183 17.4925 11.3642 17.5331 11.3101C17.5602 11.2424 17.5737 11.1612 17.5466 11.0665C17.5196 10.9177 17.4249 10.7554 17.2625 10.5524C16.9784 10.2413 16.6673 10.0113 16.3561 9.876C16.045 9.74072 15.7067 9.67307 15.3415 9.67307C14.9762 9.67307 14.638 9.74072 14.3268 9.876C14.0156 10.0113 13.7315 10.2007 13.5016 10.4307C13.2716 10.6607 13.0822 10.9448 12.9469 11.2559C12.8116 11.5671 12.7439 11.9053 12.7439 12.2706C12.7439 12.6359 12.8116 12.9741 12.9469 13.2852C13.0822 13.5964 13.2716 13.8805 13.5016 14.1105C13.7315 14.3405 14.0156 14.5299 14.3268 14.6652C14.638 14.8005 14.9762 14.8681 15.3415 14.8681C15.7067 14.8681 16.045 14.8005 16.3561 14.6652C16.6673 14.5299 16.9784 14.2864 17.2625 13.9346C17.4114 13.7723 17.5061 13.6235 17.5331 13.4746C17.5602 13.3799 17.5602 13.2852 17.5196 13.2041C17.479 13.1229 17.3978 13.0688 17.3031 13.0688C17.2084 13.0553 17.1408 13.0823 17.0596 13.1364C16.992 13.1905 16.9243 13.2717 16.8837 13.3529C16.6402 13.7046 16.3832 13.9211 16.1261 14.0429ZM18.3178 8.72606C18.399 8.80723 18.4937 8.83429 18.6019 8.83429C18.7101 8.83429 18.8048 8.7937 18.886 8.72606C18.9672 8.64489 18.9942 8.55019 18.9942 8.44196C18.9942 8.33373 18.9536 8.23902 18.886 8.15785C18.8048 8.07668 18.7101 8.04962 18.6019 8.04962C18.4937 8.04962 18.399 8.09021 18.3178 8.15785C18.2366 8.23902 18.2096 8.33373 18.2096 8.44196C18.2096 8.55019 18.2501 8.64489 18.3178 8.72606ZM18.2637 14.3405C18.2637 14.4352 18.2907 14.5028 18.3584 14.5705C18.426 14.6381 18.5072 14.6652 18.5884 14.6652C18.6695 14.6652 18.7507 14.6381 18.8183 14.5705C18.886 14.5028 18.9131 14.4217 18.9131 14.3405V10.2683C18.9131 10.1736 18.886 10.106 18.8183 10.0383C18.7507 9.9707 18.6695 9.94365 18.5884 9.94365C18.4937 9.94365 18.426 9.9707 18.3584 10.0383C18.2907 10.106 18.2637 10.1872 18.2637 10.2683V14.3405ZM19.8871 9.93012H19.7383C19.6436 9.93012 19.576 9.95718 19.5083 10.0248C19.4407 10.0925 19.4136 10.1736 19.4136 10.2548C19.4136 10.3495 19.4407 10.4172 19.5083 10.4848C19.576 10.5524 19.6571 10.5795 19.7383 10.5795H19.7654H19.8871V14.2864V14.3134C19.8871 14.4081 19.9142 14.4758 19.9818 14.5434C20.0495 14.6111 20.1306 14.6381 20.2118 14.6381C20.3065 14.6381 20.3742 14.6111 20.4418 14.5434C20.5094 14.4758 20.5365 14.3946 20.5365 14.3134V10.5795H21.4159H21.4429C21.5376 10.5795 21.6053 10.5524 21.6729 10.4848C21.7406 10.4172 21.7676 10.336 21.7676 10.2548C21.7676 10.1601 21.7406 10.0925 21.6729 10.0248C21.6053 9.95718 21.5241 9.93012 21.4429 9.93012H20.5365V8.37431C20.5365 8.27961 20.5094 8.21197 20.4418 8.14432C20.3742 8.07668 20.293 8.04962 20.2118 8.04962C20.1171 8.04962 20.0495 8.07668 19.9818 8.14432C19.9142 8.21197 19.8871 8.29314 19.8871 8.37431V9.93012Z" stroke="#00BCE4" stroke-width="0.135287"/>
</g>
<defs>
<clipPath id="clip0_14010_36007">
<rect width="24" height="24" fill="white"/>
</clipPath>
</defs>
</svg>
