<svg width="24" height="24" viewBox="0 0 24 24" fill="none" xmlns="http://www.w3.org/2000/svg">
<rect x="3" y="3" width="18" height="18" rx="3" fill="#2CA01C"/>
<path d="M8.57068 8.4406C6.59762 8.4406 5 10.0352 5 11.9999C5 13.9667 6.59762 15.5593 8.57068 15.5593H9.08077V14.2373H8.57068C7.33216 14.2373 6.32626 13.2345 6.32626 11.9999C6.32626 10.7654 7.33216 9.76264 8.57068 9.76264H9.79696V16.678C9.79696 17.4081 10.3907 18 11.1232 18V8.4406H8.57068ZM14.6937 15.5594C16.6668 15.5594 18.2643 13.9648 18.2643 12.0001C18.2643 10.0333 16.6668 8.4407 14.6937 8.4407H14.1836V9.76271H14.6937C15.9322 9.76271 16.9381 10.7655 16.9381 12.0001C16.9381 13.2347 15.9322 14.2373 14.6937 14.2373H13.4674V7.32206C13.4674 6.59187 12.8737 6 12.1412 6V15.5594H14.6937Z" fill="white"/>
</svg>
