<svg width="24" height="24" viewBox="0 0 24 24" fill="none" xmlns="http://www.w3.org/2000/svg">
<path d="M5 5.25C5.41421 5.25 5.75 5.58579 5.75 6V16.3871C5.75 16.8013 5.41421 17.1371 5 17.1371C4.58579 17.1371 4.25 16.8013 4.25 16.3871V6C4.25 5.58579 4.58579 5.25 5 5.25Z" fill="#607093"/>
<path fill-rule="evenodd" clip-rule="evenodd" d="M6.95968 11.4194C6.95968 8.01211 9.72179 5.25 13.129 5.25C16.5363 5.25 19.2984 8.01211 19.2984 11.4194C19.2984 14.3677 17.2302 16.8329 14.4655 17.4435H19C19.4142 17.4435 19.75 17.7793 19.75 18.1935C19.75 18.6078 19.4142 18.9435 19 18.9435H13.5806C13.1664 18.9435 12.8306 18.6078 12.8306 18.1935C12.8306 17.9453 12.9513 17.7252 13.1371 17.5887C13.1344 17.5887 13.1317 17.5887 13.129 17.5887C9.72179 17.5887 6.95968 14.8266 6.95968 11.4194ZM13.129 6.75C10.5502 6.75 8.45968 8.84054 8.45968 11.4194C8.45968 13.9982 10.5502 16.0887 13.129 16.0887C15.7078 16.0887 17.7984 13.9982 17.7984 11.4194C17.7984 8.84054 15.7078 6.75 13.129 6.75Z" fill="#607093"/>
</svg>
