<svg width="24" height="24" viewBox="0 0 24 24" fill="none" xmlns="http://www.w3.org/2000/svg">
<path d="M20.25 12.5V5C20.25 4.66848 20.1182 4.35063 19.8838 4.11621C19.6494 3.88179 19.3315 3.75 19 3.75H5C4.66848 3.75 4.35063 3.88179 4.11621 4.11621C3.88179 4.35063 3.75 4.66848 3.75 5V19C3.75 19.3315 3.88179 19.6494 4.11621 19.8838C4.35063 20.1182 4.66848 20.25 5 20.25H12.5C12.9142 20.25 13.25 20.5858 13.25 21C13.25 21.4142 12.9142 21.75 12.5 21.75H5C4.27065 21.75 3.57139 21.4601 3.05566 20.9443C2.53994 20.4286 2.25 19.7293 2.25 19V5C2.25 4.27065 2.53994 3.57139 3.05566 3.05566C3.57139 2.53994 4.27065 2.25 5 2.25H19C19.7293 2.25 20.4286 2.53994 20.9443 3.05566C21.4601 3.57139 21.75 4.27065 21.75 5V12.5C21.75 12.9142 21.4142 13.25 21 13.25C20.5858 13.25 20.25 12.9142 20.25 12.5Z" fill="#607093"/>
<path d="M21 9.25C21.4142 9.25 21.75 9.58579 21.75 10C21.75 10.4142 21.4142 10.75 21 10.75H3C2.58579 10.75 2.25 10.4142 2.25 10C2.25 9.58579 2.58579 9.25 3 9.25H21Z" fill="#607093"/>
<path d="M9.25 21V3C9.25 2.58579 9.58579 2.25 10 2.25C10.4142 2.25 10.75 2.58579 10.75 3V21C10.75 21.4142 10.4142 21.75 10 21.75C9.58579 21.75 9.25 21.4142 9.25 21Z" fill="#607093"/>
<path d="M16 19.75C15.5858 19.75 15.25 19.4142 15.25 19C15.25 18.5858 15.5858 18.25 16 18.25L22 18.25C22.4142 18.25 22.75 18.5858 22.75 19C22.75 19.4142 22.4142 19.75 22 19.75H16Z" fill="#607093"/>
<path d="M19.5303 22.5303C19.2374 22.8232 18.7626 22.8232 18.4697 22.5303L15.4697 19.5303C15.1768 19.2374 15.1768 18.7626 15.4697 18.4697L18.4697 15.4697C18.7626 15.1768 19.2374 15.1768 19.5303 15.4697C19.8232 15.7626 19.8232 16.2374 19.5303 16.5303L17.0605 19L19.5303 21.4697C19.8232 21.7626 19.8232 22.2374 19.5303 22.5303Z" fill="#607093"/>
</svg>
