<svg width="24" height="24" viewBox="0 0 24 24" fill="none" xmlns="http://www.w3.org/2000/svg">
<path fill-rule="evenodd" clip-rule="evenodd" d="M8 13.25C8.46413 13.25 8.90912 13.4345 9.2373 13.7627C9.56549 14.0909 9.75 14.5359 9.75 15V19C9.75 19.4641 9.56549 19.9091 9.2373 20.2373C8.90912 20.5655 8.46413 20.75 8 20.75H4C3.53587 20.75 3.09089 20.5655 2.7627 20.2373C2.43451 19.9091 2.25 19.4641 2.25 19V15C2.25 14.5359 2.43451 14.0909 2.7627 13.7627C3.09088 13.4345 3.53587 13.25 4 13.25H8ZM4 14.75C3.9337 14.75 3.87013 14.7764 3.82324 14.8232C3.77636 14.8701 3.75 14.9337 3.75 15V19L3.75488 19.0488C3.76447 19.0969 3.78804 19.1416 3.82324 19.1768C3.87013 19.2236 3.93369 19.25 4 19.25H8C8.06631 19.25 8.12987 19.2236 8.17676 19.1768C8.22364 19.1299 8.25 19.0663 8.25 19V15C8.25 14.9337 8.22364 14.8701 8.17676 14.8232C8.12987 14.7764 8.0663 14.75 8 14.75H4Z" fill="#607093"/>
<path d="M18 18.25C18.4142 18.25 18.75 18.5858 18.75 19C18.75 19.4142 18.4142 19.75 18 19.75H13C12.5858 19.75 12.25 19.4142 12.25 19C12.25 18.5858 12.5858 18.25 13 18.25H18Z" fill="#607093"/>
<path d="M21 14.25C21.4142 14.25 21.75 14.5858 21.75 15C21.75 15.4142 21.4142 15.75 21 15.75H13C12.5858 15.75 12.25 15.4142 12.25 15C12.25 14.5858 12.5858 14.25 13 14.25H21Z" fill="#607093"/>
<path fill-rule="evenodd" clip-rule="evenodd" d="M8 3.25C8.46413 3.25 8.90912 3.43451 9.2373 3.7627C9.56549 4.09088 9.75 4.53587 9.75 5V9C9.75 9.46413 9.56549 9.90912 9.2373 10.2373C8.90912 10.5655 8.46413 10.75 8 10.75H4C3.53587 10.75 3.09088 10.5655 2.7627 10.2373C2.43451 9.90912 2.25 9.46413 2.25 9V5C2.25 4.53587 2.43451 4.09088 2.7627 3.7627C3.09088 3.43451 3.53587 3.25 4 3.25H8ZM4 4.75C3.9337 4.75 3.87013 4.77636 3.82324 4.82324C3.77636 4.87013 3.75 4.9337 3.75 5V9L3.75488 9.04883C3.76447 9.09694 3.78804 9.14156 3.82324 9.17676C3.87013 9.22364 3.9337 9.25 4 9.25H8C8.0663 9.25 8.12987 9.22364 8.17676 9.17676C8.22364 9.12987 8.25 9.0663 8.25 9V5C8.25 4.9337 8.22364 4.87013 8.17676 4.82324C8.12987 4.77636 8.0663 4.75 8 4.75H4Z" fill="#607093"/>
<path d="M18 8.25C18.4142 8.25 18.75 8.58579 18.75 9C18.75 9.41421 18.4142 9.75 18 9.75H13C12.5858 9.75 12.25 9.41421 12.25 9C12.25 8.58579 12.5858 8.25 13 8.25H18Z" fill="#607093"/>
<path d="M21 4.25C21.4142 4.25 21.75 4.58579 21.75 5C21.75 5.41421 21.4142 5.75 21 5.75H13C12.5858 5.75 12.25 5.41421 12.25 5C12.25 4.58579 12.5858 4.25 13 4.25H21Z" fill="#607093"/>
</svg>
