<svg xmlns="http://www.w3.org/2000/svg" width="24" height="24" fill="none" viewBox="0 0 24 24">
  <path fill="#607093" d="M12.533 15.25c1.156 0 2.239.531 3.019 1.43.776.897 1.198 2.092 1.198 3.32v1a.75.75 0 0 1-1.5 0v-1c0-.894-.309-1.733-.832-2.337-.52-.6-1.202-.913-1.885-.913H6.467c-.683 0-1.364.313-1.885.913-.523.604-.832 1.443-.832 2.337v1a.75.75 0 0 1-1.5 0v-1c0-1.228.422-2.423 1.198-3.32.78-.899 1.863-1.43 3.019-1.43h6.066ZM9.5 5.25c.65 0 1.27.146 1.822.41a.75.75 0 0 1-.644 1.355 2.75 2.75 0 1 0 .786 4.41.751.751 0 0 1 1.072 1.05A4.25 4.25 0 1 1 9.5 5.25ZM16.49 5c.426 0 .773.346.773.772v.086a1.9 1.9 0 0 1-.178.77A3.254 3.254 0 0 1 15.884 8l-.902-.459c.211-.25.389-.51.532-.782a1.88 1.88 0 0 0 .203-.892v-.095c0-.426.346-.772.772-.772Zm2.72 0c.426 0 .772.346.772.772v.086c0 .247-.06.504-.177.77A3.25 3.25 0 0 1 18.604 8l-.902-.459c.211-.25.388-.51.531-.782.14-.27.208-.567.204-.892v-.095c0-.426.346-.772.773-.772Z"/>
  <path fill="#607093" fill-rule="evenodd" d="M21 2.25c.966 0 1.75.784 1.75 1.75v5A1.75 1.75 0 0 1 21 10.75h-2.26l-3.304 2.36a.75.75 0 0 1-1.186-.61v-1.75H14A1.75 1.75 0 0 1 12.25 9V4c0-.966.784-1.75 1.75-1.75h7Zm-7 1.5a.25.25 0 0 0-.25.25v5c0 .138.112.25.25.25h1l.077.004a.75.75 0 0 1 .673.746v1.042l2.314-1.652.1-.06a.75.75 0 0 1 .336-.08H21a.25.25 0 0 0 .25-.25V4a.25.25 0 0 0-.25-.25h-7Z" clip-rule="evenodd"/>
</svg>
